<svg width="68" height="68" viewBox="0 0 68 68" fill="none" xmlns="http://www.w3.org/2000/svg">
<path d="M52.5407 33.9459C52.1779 32.9934 51.4327 32.1429 50.5258 31.5297C47.9076 29.8673 43.9175 29.7489 41.2198 31.2518C39.7485 32.0019 38.7815 33.4864 38.4805 35.0151C37.9346 37.5266 38.0756 40.5149 40.0106 42.3974C42.2668 44.3753 45.5506 44.8122 48.4706 43.9998C48.6094 43.9731 49.049 43.8624 49.3523 43.7015L49.4377 43.6649C50.3446 43.288 51.2095 42.6744 51.8552 41.8434C53.3455 39.6644 53.4476 36.3996 52.5407 33.9459ZM47.7865 39.5858C47.6835 40.0621 47.3631 40.5555 46.8579 40.7345C46.0535 41.0883 44.9654 40.9902 44.2203 40.5763C43.5953 40.1394 43.5149 39.4078 43.4345 38.7155C43.3735 37.3508 43.2749 35.9057 43.6572 34.6581C43.9568 33.8854 44.7833 33.6865 45.5307 33.6282C46.3156 33.6282 47.0798 33.748 47.5646 34.3811C47.8665 34.8352 47.848 35.4294 47.9076 35.9645C47.8864 37.0919 47.9876 38.4367 47.7865 39.5858ZM23.9151 40.8149C23.2499 40.7742 22.5048 40.8325 21.8609 40.7535L21.8808 33.8045L21.9214 33.7466L23.9151 33.7272C23.9359 32.5993 23.9558 31.3896 23.8943 30.3616L16.3014 30.3404L15.0511 30.3621C15.0312 31.4104 15.0312 32.6364 15.0511 33.7064C15.7366 33.7277 16.38 33.7064 17.0452 33.7683V40.4982L17.0258 40.7747L15.0312 40.8154C14.9896 41.9037 14.9896 42.9932 15.0312 44.0815H23.9147L23.9151 40.8149ZM46.2741 45.5646C45.429 46.7734 44.3613 47.941 43.1954 48.8493C43.1529 48.9112 43.0323 48.8877 42.9939 48.8308C42.4887 48.5149 41.9451 48.2565 41.4607 47.941C42.1059 47.1697 42.7309 46.3979 43.2144 45.5434H42.5876C42.087 46.2786 41.5619 47.0499 40.8976 47.7011C40.0106 47.3455 39.2053 47.0292 38.2989 46.7897L38.1981 46.7142C38.3391 46.3143 38.6003 45.9388 38.6802 45.5425H38.1366L37.593 46.6121C36.4059 46.355 35.0959 46.2149 33.8872 46.1367C33.8262 45.9591 33.9061 45.7015 33.8262 45.5425H33.3024C33.2609 45.7806 33.363 45.96 33.2419 46.1575C31.9929 46.2149 30.7846 46.3549 29.6174 46.5949L29.0715 45.5425C28.8722 45.5425 28.6481 45.5045 28.5089 45.5637L29.0114 46.7318L28.9513 46.7897C28.0485 47.0509 27.1608 47.3619 26.2924 47.7214L26.2125 47.6808C25.6472 47.0671 25.1031 46.397 24.6594 45.7237C24.5595 45.3852 24.1564 45.5831 23.9345 45.5434C24.4162 46.4155 25.0629 47.1864 25.7064 47.9795C25.1627 48.2971 24.6209 48.6514 24.0543 48.9112C22.8221 47.9728 21.748 46.8433 20.8726 45.5655C20.6304 45.5267 20.4709 45.5443 20.2273 45.5655C21.6779 47.8222 23.9345 49.801 26.2915 50.9691C26.2915 50.9691 26.2915 50.9515 26.3132 50.9515C26.3304 50.9515 26.3706 50.9881 26.3304 51.0088C27.9228 51.7811 29.616 52.3351 31.4073 52.5737C37.5921 53.3844 43.495 50.7531 46.9175 45.5655C46.7036 45.5435 46.488 45.5432 46.2741 45.5646ZM37.8759 47.3459L37.9351 47.3062C38.8036 47.5041 39.6278 47.7815 40.3938 48.1566C39.7485 48.8873 38.9225 49.5222 38.1579 50.0563C37.6951 50.3324 37.2302 50.6324 36.7462 50.8683L35.8818 50.4923L35.941 50.3554C36.6676 49.3862 37.3124 48.3952 37.8759 47.3459ZM33.9061 46.7517C35.0553 46.7734 36.2039 46.8918 37.2699 47.148L37.2912 47.2081C36.7281 48.2759 36.0214 49.3075 35.2573 50.2754C34.9129 50.3161 34.5921 50.1792 34.25 50.158L33.9057 50.1173C33.8664 48.9492 33.8451 47.9198 33.9061 46.7517ZM30.02 47.1078C31.0674 46.9099 32.1547 46.7517 33.2821 46.7517L33.3029 50.1006C32.879 50.1964 32.4159 50.1964 32.0128 50.298C31.1867 49.3256 30.5026 48.2759 29.9192 47.1864L30.02 47.1078ZM26.7751 48.1778C27.5627 47.8005 28.3874 47.5217 29.2324 47.3057L29.3142 47.3265C29.8966 48.4155 30.6228 49.444 31.3476 50.4734C31.0679 50.6329 30.7236 50.7282 30.4425 50.8891C29.0802 50.2161 27.8407 49.3192 26.7755 48.2357V48.1778H26.7751ZM29.3747 51.5624C27.6824 51.1254 26.1099 50.3735 24.6598 49.3459V49.2845C25.1433 48.9903 25.6286 48.6726 26.1506 48.4526C27.2997 49.5841 28.4872 50.4354 29.7764 51.2452C29.6761 51.364 29.5152 51.4833 29.3747 51.5624ZM36.8474 51.8182C34.7127 52.2764 32.3345 52.294 30.2003 51.7802C30.1596 51.6817 30.3011 51.6605 30.3612 51.6026C32.2346 50.3938 35.1542 50.3938 36.9893 51.6989C37.049 51.8182 36.8881 51.7802 36.8474 51.8182ZM38.7819 51.266L37.8352 51.5619C37.6735 51.4829 37.5334 51.364 37.391 51.2447L37.4317 51.1842C38.7214 50.435 39.889 49.5217 40.9975 48.4331C41.5415 48.6505 42.0657 48.9492 42.5506 49.284C41.4213 50.1792 40.1113 50.7703 38.7819 51.266ZM20.8333 28.8365C21.3316 28.147 21.8766 27.4925 22.4646 26.8776C22.9865 26.3828 23.4718 25.9079 24.0367 25.55C24.5608 25.8862 25.1442 26.1664 25.6476 26.4818C25.0236 27.25 24.3787 28.0254 23.9156 28.8546C24.0556 28.9165 24.3186 28.8971 24.5206 28.8546C25.0236 28.1235 25.5658 27.3914 26.2129 26.7375C27.0769 27.0552 27.9242 27.3905 28.8117 27.6291L28.8898 27.7077L28.3883 28.8546C28.6106 28.8971 28.7516 28.8763 28.9716 28.8546C29.1524 28.5202 29.2925 28.1451 29.494 27.8067C30.6639 28.0652 31.893 28.203 33.142 28.2414C33.302 28.3819 33.1818 28.6775 33.2423 28.8546H33.7859C33.8451 28.6603 33.7656 28.4398 33.8451 28.2635C35.0146 28.2021 36.2428 28.0832 37.3748 27.8058L37.4728 27.8266L38.0169 28.8537C38.1985 28.8537 38.4398 28.8962 38.5808 28.813L38.0761 27.668L38.1181 27.6282C39.0431 27.3905 39.9107 27.0344 40.7968 26.6788C41.4231 27.3318 42.0056 28.1036 42.5312 28.8532C42.7517 28.8532 42.9735 28.8749 43.1349 28.8126C42.8861 28.3706 42.5959 27.9533 42.2682 27.5663C42.0021 27.1872 41.7053 26.8307 41.3807 26.5003V26.3977L42.791 25.5875L42.9943 25.5084C44.2208 26.4368 45.2941 27.5517 46.1751 28.8126C46.4169 28.8126 46.6188 28.8957 46.8208 28.7959C44.1186 24.761 39.6676 22.165 34.8555 21.7913L34.8343 21.8297L34.7932 21.7913C34.25 21.733 33.5826 21.7099 32.9992 21.7682C32.7783 21.7511 32.5171 21.7682 32.2545 21.7913C27.4208 22.165 22.9693 24.6408 20.188 28.8555C20.3896 28.8365 20.6313 28.917 20.8333 28.8365ZM29.1944 27.0972L29.114 27.1144C28.287 26.8989 27.4804 26.639 26.715 26.3037L26.7538 26.1849C27.8618 25.1361 29.0299 24.2644 30.3191 23.5929C30.6228 23.7118 30.9247 23.8098 31.2265 23.9504L31.1673 24.1049C30.4005 25.0575 29.7977 26.0846 29.1944 27.0972ZM33.2017 27.63C32.6391 27.7091 32.1352 27.6124 31.569 27.5686C31.0277 27.489 30.3413 27.4316 29.7977 27.2509C30.3819 26.1673 31.0679 25.1162 31.893 24.1487L33.1827 24.3245C33.2423 25.3521 33.2017 26.5405 33.2017 27.63ZM33.8257 27.6512C33.7859 26.5988 33.8067 25.4325 33.8257 24.3435C34.2301 24.2857 34.6712 24.2242 35.0752 24.1659C35.8605 25.1542 36.6278 26.1673 37.152 27.2509C36.0628 27.5144 34.9463 27.6488 33.8257 27.6512ZM40.2537 26.2635C39.4665 26.5984 38.6599 26.9156 37.795 27.0972C37.171 26.048 36.4864 24.9992 35.7186 23.9856C36.0011 23.8306 36.3454 23.7118 36.6468 23.5541C37.9586 24.2066 39.2261 25.1361 40.2925 26.2016L40.2537 26.2635ZM37.6735 22.879C39.3657 23.3155 40.9573 24.0665 42.4078 25.0959L42.3676 25.1749L40.979 25.9459H40.8764C39.8104 24.8808 38.5619 23.9504 37.2912 23.2161C37.3314 23.0773 37.5338 22.9775 37.6735 22.879ZM36.8687 22.6801V22.7222C35.1149 23.9856 32.2753 24.1049 30.4231 22.9368C30.3191 22.8577 30.1203 22.8193 30.0986 22.6806C32.2351 22.188 34.7516 22.1483 36.8687 22.6801ZM24.5798 25.1361C25.8501 24.2066 27.2595 23.5138 28.7507 23.0385C28.8117 22.9766 28.8505 22.9183 28.9301 22.9183V22.9589C29.0909 22.9978 29.2125 22.8184 29.353 22.9359C29.4746 23.0385 29.6169 23.1166 29.7163 23.2152C28.4682 23.9856 27.2387 24.8979 26.1103 26.0041C25.5663 25.8098 25.0647 25.5111 24.5794 25.1749L24.5798 25.1361ZM33.2225 40.9695C31.3291 41.4851 29.273 41.0919 27.9038 39.6644C27.7434 39.4665 27.6418 39.2306 27.48 39.0336L24.7615 39.0526C24.7186 40.6554 24.6996 42.4968 24.7615 44.0811L27.7818 44.0617L27.8221 43.1109C28.1659 43.2691 28.5089 43.4665 28.8505 43.6441C30.9454 44.5163 33.6422 44.7142 35.7177 43.6441C37.2297 42.8149 38.0359 41.2121 37.8135 39.4864C37.593 37.8059 35.9807 36.2808 34.3503 35.8664L29.4741 34.4597L29.1135 34.2808C28.9522 34.1434 28.851 33.9662 28.8903 33.7466C29.273 33.095 30.1605 33.2929 30.8252 33.3106C32.2351 33.5089 33.6852 33.9839 34.5117 35.2713C35.3969 35.2713 36.424 35.2884 37.3901 35.2505C37.4313 33.6278 37.3743 32.2035 37.3504 30.56C36.4439 30.5392 35.3354 30.5392 34.4303 30.5808C34.3897 30.8162 34.4692 31.1515 34.3684 31.3901L33.4425 30.8948C31.2256 29.9649 28.123 29.8677 26.1094 31.3128C24.7994 32.2613 24.3977 33.9653 24.7402 35.4692C25.001 36.8922 26.3706 37.9423 27.6806 38.4358C29.4732 39.0684 31.3458 39.5266 33.1619 40.1394C33.3418 40.2198 33.5831 40.3992 33.5442 40.6165C33.5451 40.7923 33.3625 40.894 33.2225 40.9695Z" fill="#EC1C24"/>
</svg>
