<svg width="39" height="32" viewBox="0 0 39 32" fill="none" xmlns="http://www.w3.org/2000/svg">
<path d="M37.5407 12.9459C37.1779 11.9934 36.4327 11.1429 35.5258 10.5297C32.9076 8.86726 28.9175 8.74886 26.2198 10.2518C24.7485 11.0019 23.7815 12.4864 23.4805 14.0151C22.9346 16.5266 23.0756 19.5149 25.0106 21.3974C27.2668 23.3753 30.5506 23.8122 33.4706 22.9998C33.6094 22.9731 34.049 22.8624 34.3523 22.7015L34.4377 22.6649C35.3446 22.288 36.2095 21.6744 36.8552 20.8434C38.3455 18.6644 38.4476 15.3996 37.5407 12.9459ZM32.7865 18.5858C32.6835 19.0621 32.3631 19.5555 31.8579 19.7345C31.0535 20.0883 29.9654 19.9902 29.2203 19.5763C28.5953 19.1394 28.5149 18.4078 28.4345 17.7155C28.3735 16.3508 28.2749 14.9057 28.6572 13.6581C28.9568 12.8854 29.7833 12.6865 30.5307 12.6282C31.3156 12.6282 32.0798 12.748 32.5646 13.3811C32.8665 13.8352 32.848 14.4294 32.9076 14.9645C32.8864 16.0919 32.9876 17.4367 32.7865 18.5858ZM8.91511 19.8149C8.24995 19.7742 7.5048 19.8325 6.86087 19.7535L6.88076 12.8045L6.92142 12.7466L8.91511 12.7272C8.9359 11.5993 8.95578 10.3896 8.89433 9.36161L1.30141 9.34037L0.0510627 9.36206C0.0311801 10.4104 0.0311801 11.6364 0.0510627 12.7064C0.736562 12.7277 1.38004 12.7064 2.0452 12.7683V19.4982L2.02577 19.7747L0.0311801 19.8154C-0.0103934 20.9037 -0.0103934 21.9932 0.0311801 23.0815H8.91466L8.91511 19.8149ZM31.2741 24.5646C30.429 25.7734 29.3613 26.941 28.1954 27.8493C28.1529 27.9112 28.0323 27.8877 27.9939 27.8308C27.4887 27.5149 26.9451 27.2565 26.4607 26.941C27.1059 26.1697 27.7309 25.3979 28.2144 24.5434H27.5876C27.087 25.2786 26.5619 26.0499 25.8976 26.7011C25.0106 26.3455 24.2053 26.0292 23.2989 25.7897L23.1981 25.7142C23.3391 25.3143 23.6003 24.9388 23.6802 24.5425H23.1366L22.593 25.6121C21.4059 25.355 20.0959 25.2149 18.8872 25.1367C18.8262 24.9591 18.9061 24.7015 18.8262 24.5425H18.3024C18.2609 24.7806 18.363 24.96 18.2419 25.1575C16.9929 25.2149 15.7846 25.3549 14.6174 25.5949L14.0715 24.5425C13.8722 24.5425 13.6481 24.5045 13.5089 24.5637L14.0114 25.7318L13.9513 25.7897C13.0485 26.0509 12.1608 26.3619 11.2924 26.7214L11.2125 26.6808C10.6472 26.0671 10.1031 25.397 9.65936 24.7237C9.55949 24.3852 9.15642 24.5831 8.93454 24.5434C9.41625 25.4155 10.0629 26.1864 10.7064 26.9795C10.1627 27.2971 9.62095 27.6514 9.05429 27.9112C7.8221 26.9728 6.74797 25.8433 5.87261 24.5655C5.63041 24.5267 5.47089 24.5443 5.22733 24.5655C6.67786 26.8222 8.93454 28.801 11.2915 29.9691C11.2915 29.9691 11.2915 29.9515 11.3132 29.9515C11.3304 29.9515 11.3706 29.9881 11.3304 30.0088C12.9228 30.7811 14.616 31.3351 16.4073 31.5737C22.5921 32.3844 28.495 29.7531 31.9175 24.5655C31.7036 24.5435 31.488 24.5432 31.2741 24.5646ZM22.8759 26.3459L22.9351 26.3062C23.8036 26.5041 24.6278 26.7815 25.3938 27.1566C24.7485 27.8873 23.9225 28.5222 23.1579 29.0563C22.6951 29.3324 22.2302 29.6324 21.7462 29.8683L20.8818 29.4923L20.941 29.3554C21.6676 28.3862 22.3124 27.3952 22.8759 26.3459ZM18.9061 25.7517C20.0553 25.7734 21.2039 25.8918 22.2699 26.148L22.2912 26.2081C21.7281 27.2759 21.0214 28.3075 20.2573 29.2754C19.9129 29.3161 19.5921 29.1792 19.25 29.158L18.9057 29.1173C18.8664 27.9492 18.8451 26.9198 18.9061 25.7517ZM15.02 26.1078C16.0674 25.9099 17.1547 25.7517 18.2821 25.7517L18.3029 29.1006C17.879 29.1964 17.4159 29.1964 17.0128 29.298C16.1867 28.3256 15.5026 27.2759 14.9192 26.1864L15.02 26.1078ZM11.7751 27.1778C12.5627 26.8005 13.3874 26.5217 14.2324 26.3057L14.3142 26.3265C14.8966 27.4155 15.6228 28.444 16.3476 29.4734C16.0679 29.6329 15.7236 29.7282 15.4425 29.8891C14.0802 29.2161 12.8407 28.3192 11.7755 27.2357V27.1778H11.7751ZM14.3747 30.5624C12.6824 30.1254 11.1099 29.3735 9.65981 28.3459V28.2845C10.1433 27.9903 10.6286 27.6726 11.1506 27.4526C12.2997 28.5841 13.4872 29.4354 14.7764 30.2452C14.6761 30.364 14.5152 30.4833 14.3747 30.5624ZM21.8474 30.8182C19.7127 31.2764 17.3345 31.294 15.2003 30.7802C15.1596 30.6817 15.3011 30.6605 15.3612 30.6026C17.2346 29.3938 20.1542 29.3938 21.9893 30.6989C22.049 30.8182 21.8881 30.7802 21.8474 30.8182ZM23.7819 30.266L22.8352 30.5619C22.6735 30.4829 22.5334 30.364 22.391 30.2447L22.4317 30.1842C23.7214 29.435 24.889 28.5217 25.9975 27.4331C26.5415 27.6505 27.0657 27.9492 27.5506 28.284C26.4213 29.1792 25.1113 29.7703 23.7819 30.266ZM5.8333 7.83652C6.33157 7.14698 6.87661 6.49247 7.46458 5.87763C7.9865 5.38282 8.47182 4.9079 9.03667 4.55001C9.56085 4.88621 10.1442 5.16637 10.6476 5.48178C10.0236 6.24998 9.37874 7.0254 8.91556 7.8546C9.05565 7.9165 9.31864 7.89707 9.52063 7.8546C10.0236 7.12346 10.5658 6.39141 11.2129 5.73755C12.0769 6.05522 12.9242 6.39051 13.8117 6.6291L13.8898 6.70773L13.3883 7.8546C13.6106 7.89707 13.7516 7.87629 13.9716 7.8546C14.1524 7.52021 14.2925 7.14515 14.494 6.80669C15.6639 7.06517 16.893 7.20299 18.142 7.2414C18.302 7.38193 18.1818 7.67746 18.2423 7.8546H18.7859C18.8451 7.66029 18.7656 7.43977 18.8451 7.26354C20.0146 7.20208 21.2428 7.08324 22.3748 6.80579L22.4728 6.82657L23.0169 7.85369C23.1985 7.85369 23.4398 7.89617 23.5808 7.81302L23.0761 6.66796L23.1181 6.6282C24.0431 6.39051 24.9107 6.03443 25.7968 5.6788C26.4231 6.33177 27.0056 7.10357 27.5312 7.85324C27.7517 7.85324 27.9735 7.87493 28.1349 7.81257C27.8861 7.37064 27.5959 6.95333 27.2682 6.56629C27.0021 6.18719 26.7053 5.83066 26.3807 5.50031V5.39773L27.791 4.58752L27.9943 4.50844C29.2208 5.43677 30.2941 6.55169 31.1751 7.81257C31.4169 7.81257 31.6188 7.89572 31.8208 7.79585C29.1186 3.76103 24.6676 1.16499 19.8555 0.791283L19.8343 0.829693L19.7932 0.791283C19.25 0.732991 18.5826 0.709945 17.9992 0.768238C17.7783 0.751066 17.5171 0.768238 17.2545 0.791283C12.4208 1.16499 7.96933 3.64083 5.18802 7.8555C5.38956 7.83652 5.63131 7.91696 5.8333 7.83652ZM14.1944 6.09724L14.114 6.11441C13.287 5.89887 12.4804 5.63904 11.715 5.30374L11.7538 5.1849C12.8618 4.13609 14.0299 3.26441 15.3191 2.59292C15.6228 2.71177 15.9247 2.80982 16.2265 2.95036L16.1673 3.1049C15.4005 4.05746 14.7977 5.08458 14.1944 6.09724ZM18.2017 6.63001C17.6391 6.70908 17.1352 6.61238 16.569 6.56855C16.0277 6.48902 15.3413 6.43163 14.7977 6.25088C15.3819 5.16728 16.0679 4.11621 16.893 3.14873L18.1827 3.32451C18.2423 4.35209 18.2017 5.54053 18.2017 6.63001ZM18.8257 6.65124C18.7859 5.59882 18.8067 4.43252 18.8257 3.34349C19.2301 3.28565 19.6712 3.2242 20.0752 3.16591C20.8605 4.15416 21.6278 5.16728 22.152 6.25088C21.0628 6.51441 19.9463 6.64879 18.8257 6.65124ZM25.2537 5.26353C24.4665 5.59837 23.6599 5.91559 22.795 6.09724C22.171 5.04798 21.4864 3.99917 20.7186 2.98561C21.0011 2.83061 21.3454 2.71177 21.6468 2.55406C22.9586 3.20657 24.2261 4.13609 25.2925 5.20162L25.2537 5.26353ZM22.6735 1.87896C24.3657 2.31547 25.9573 3.06649 27.4078 4.09587L27.3676 4.17495L25.979 4.94585H25.8764C24.8104 3.88078 23.5619 2.95036 22.2912 2.21606C22.3314 2.07733 22.5338 1.97746 22.6735 1.87896ZM21.8687 1.68013V1.72215C20.1149 2.98561 17.2753 3.1049 15.4231 1.9368C15.3191 1.85772 15.1203 1.81931 15.0986 1.68058C17.2351 1.18803 19.7516 1.14827 21.8687 1.68013ZM9.57983 4.13609C10.8501 3.20657 12.2595 2.51384 13.7507 2.03847C13.8117 1.97656 13.8505 1.91827 13.9301 1.91827V1.95894C14.0909 1.9978 14.2125 1.8184 14.353 1.93589C14.4746 2.03847 14.6169 2.11664 14.7163 2.21515C13.4682 2.98561 12.2387 3.89795 11.1103 5.00415C10.5663 4.80984 10.0647 4.51115 9.57937 4.17495L9.57983 4.13609ZM18.2225 19.9695C16.3291 20.4851 14.273 20.0919 12.9038 18.6644C12.7434 18.4665 12.6418 18.2306 12.48 18.0336L9.76148 18.0526C9.71855 19.6554 9.69957 21.4968 9.76148 23.0811L12.7818 23.0617L12.8221 22.1109C13.1659 22.2691 13.5089 22.4665 13.8505 22.6441C15.9454 23.5163 18.6422 23.7142 20.7177 22.6441C22.2297 21.8149 23.0359 20.2121 22.8135 18.4864C22.593 16.8059 20.9807 15.2808 19.3503 14.8664L14.4741 13.4597L14.1135 13.2808C13.9522 13.1434 13.851 12.9662 13.8903 12.7466C14.273 12.095 15.1605 12.2929 15.8252 12.3106C17.2351 12.5089 18.6852 12.9839 19.5117 14.2713C20.3969 14.2713 21.424 14.2884 22.3901 14.2505C22.4313 12.6278 22.3743 11.2035 22.3504 9.55999C21.4439 9.5392 20.3354 9.5392 19.4303 9.58077C19.3897 9.8162 19.4692 10.1515 19.3684 10.3901L18.4425 9.89483C16.2256 8.96486 13.123 8.86771 11.1094 10.3128C9.79944 11.2613 9.39772 12.9653 9.74024 14.4692C10.001 15.8922 11.3706 16.9423 12.6806 17.4358C14.4732 18.0684 16.3458 18.5266 18.1619 19.1394C18.3418 19.2198 18.5831 19.3992 18.5442 19.6165C18.5451 19.7923 18.3625 19.894 18.2225 19.9695Z" fill="#EC1C24"/>
</svg>
