<svg width="38" height="38" viewBox="0 0 38 38" fill="none" xmlns="http://www.w3.org/2000/svg">
<path d="M30.8438 13.5811C30.8438 16.1186 30.0913 18.4461 28.7963 20.3886C27.8474 21.8039 26.613 23.0051 25.1725 23.9153C23.7319 24.8254 22.117 25.4243 20.4313 25.6736C19.8363 25.7786 19.2238 25.8311 18.5938 25.8311C17.9638 25.8311 17.3513 25.7786 16.7563 25.6736C15.0707 25.4243 13.4557 24.8254 12.0152 23.9153C10.5746 23.0051 9.34026 21.8039 8.39133 20.3886C7.04787 18.3731 6.33507 16.0032 6.34383 13.5811C6.34383 6.80856 11.8213 1.33105 18.5938 1.33105C25.3663 1.33105 30.8438 6.80856 30.8438 13.5811Z" stroke="#EC1C24" stroke-width="2" stroke-linecap="round" stroke-linejoin="round"/>
<path d="M34.7817 30.1536L31.8942 30.8361C31.2467 30.9936 30.7392 31.4836 30.5992 32.1311L29.9867 34.7036C29.9115 35.0193 29.75 35.308 29.5203 35.5373C29.2905 35.7666 29.0015 35.9274 28.6855 36.0019C28.3696 36.0763 28.0392 36.0614 27.7312 35.9588C27.4232 35.8563 27.1499 35.6701 26.9417 35.4211L18.5942 25.8311L10.2467 35.4386C10.0384 35.6876 9.76506 35.8738 9.4571 35.9763C9.14913 36.0789 8.81871 36.0938 8.50276 36.0194C8.18682 35.9449 7.89781 35.7841 7.66803 35.5548C7.43826 35.3255 7.27678 35.0368 7.20165 34.7211L6.58915 32.1486C6.5147 31.8338 6.35415 31.546 6.12544 31.3173C5.89673 31.0886 5.60891 30.928 5.29415 30.8536L2.40665 30.1711C2.10412 30.0985 1.8263 29.9469 1.60164 29.7317C1.37698 29.5165 1.21355 29.2455 1.12808 28.9464C1.04262 28.6472 1.03819 28.3308 1.11525 28.0294C1.19231 27.728 1.3481 27.4525 1.56665 27.2311L8.39165 20.4061C9.34059 21.8214 10.5749 23.0226 12.0155 23.9328C13.4561 24.8429 15.071 25.4418 16.7567 25.6911C17.3517 25.7961 17.9642 25.8486 18.5942 25.8486C19.2242 25.8486 19.8367 25.7961 20.4317 25.6911C23.9142 25.1836 26.9067 23.2061 28.7967 20.4061L35.6216 27.2311C36.5841 28.1761 36.1117 29.8386 34.7817 30.1536ZM19.6092 8.29605L20.6417 10.3611C20.7817 10.6411 21.1492 10.9211 21.4817 10.9736L23.3542 11.2886C24.5442 11.4811 24.8242 12.3561 23.9667 13.2136L22.5142 14.6661C22.2692 14.9111 22.1292 15.3836 22.2167 15.7336L22.6367 17.5361C22.9692 18.9536 22.2167 19.5136 20.9567 18.7611L19.2067 17.7286C19.0289 17.6337 18.8306 17.5841 18.6292 17.5841C18.4277 17.5841 18.2294 17.6337 18.0517 17.7286L16.3017 18.7611C15.0417 19.4961 14.2891 18.9536 14.6216 17.5361L15.0417 15.7336C15.1117 15.4011 14.9892 14.9111 14.7442 14.6661L13.2917 13.2136C12.4342 12.3561 12.7142 11.4986 13.9042 11.2886L15.7767 10.9736C16.0917 10.9211 16.4592 10.6411 16.5992 10.3611L17.6317 8.29605C18.1392 7.17605 19.0492 7.17605 19.6092 8.29605Z" stroke="#EC1C24" stroke-width="2" stroke-linecap="round" stroke-linejoin="round"/>
</svg>
