<svg width="68" height="69" viewBox="0 0 68 69" fill="none" xmlns="http://www.w3.org/2000/svg">
<path d="M45.8438 29.5811C45.8438 32.1186 45.0913 34.4461 43.7963 36.3886C42.8474 37.8039 41.613 39.0051 40.1725 39.9153C38.7319 40.8254 37.117 41.4243 35.4313 41.6736C34.8363 41.7786 34.2238 41.8311 33.5938 41.8311C32.9638 41.8311 32.3513 41.7786 31.7563 41.6736C30.0707 41.4243 28.4557 40.8254 27.0152 39.9153C25.5746 39.0051 24.3403 37.8039 23.3913 36.3886C22.0479 34.3731 21.3351 32.0032 21.3438 29.5811C21.3438 22.8086 26.8213 17.3311 33.5938 17.3311C40.3663 17.3311 45.8438 22.8086 45.8438 29.5811Z" stroke="#EC1C24" stroke-width="2" stroke-linecap="round" stroke-linejoin="round"/>
<path d="M49.7817 46.1536L46.8942 46.8361C46.2467 46.9936 45.7392 47.4836 45.5992 48.1311L44.9867 50.7036C44.9115 51.0193 44.75 51.308 44.5203 51.5373C44.2905 51.7666 44.0015 51.9274 43.6855 52.0019C43.3696 52.0763 43.0392 52.0614 42.7312 51.9588C42.4232 51.8563 42.1499 51.6701 41.9417 51.4211L33.5942 41.8311L25.2467 51.4386C25.0384 51.6876 24.7651 51.8738 24.4571 51.9763C24.1491 52.0789 23.8187 52.0938 23.5028 52.0194C23.1868 51.9449 22.8978 51.7841 22.668 51.5548C22.4383 51.3255 22.2768 51.0368 22.2017 50.7211L21.5892 48.1486C21.5147 47.8338 21.3541 47.546 21.1254 47.3173C20.8967 47.0886 20.6089 46.928 20.2942 46.8536L17.4067 46.1711C17.1041 46.0985 16.8263 45.9469 16.6016 45.7317C16.377 45.5165 16.2135 45.2455 16.1281 44.9464C16.0426 44.6472 16.0382 44.3308 16.1153 44.0294C16.1923 43.728 16.3481 43.4525 16.5667 43.2311L23.3917 36.4061C24.3406 37.8214 25.5749 39.0226 27.0155 39.9328C28.4561 40.8429 30.071 41.4418 31.7567 41.6911C32.3517 41.7961 32.9642 41.8486 33.5942 41.8486C34.2242 41.8486 34.8367 41.7961 35.4317 41.6911C38.9142 41.1836 41.9067 39.2061 43.7967 36.4061L50.6216 43.2311C51.5841 44.1761 51.1117 45.8386 49.7817 46.1536ZM34.6092 24.2961L35.6417 26.3611C35.7817 26.6411 36.1492 26.9211 36.4817 26.9736L38.3542 27.2886C39.5442 27.4811 39.8242 28.3561 38.9667 29.2136L37.5142 30.6661C37.2692 30.9111 37.1292 31.3836 37.2167 31.7336L37.6367 33.5361C37.9692 34.9536 37.2167 35.5136 35.9567 34.7611L34.2067 33.7286C34.0289 33.6337 33.8306 33.5841 33.6292 33.5841C33.4277 33.5841 33.2294 33.6337 33.0517 33.7286L31.3017 34.7611C30.0417 35.4961 29.2891 34.9536 29.6216 33.5361L30.0417 31.7336C30.1117 31.4011 29.9892 30.9111 29.7442 30.6661L28.2917 29.2136C27.4342 28.3561 27.7142 27.4986 28.9042 27.2886L30.7767 26.9736C31.0917 26.9211 31.4592 26.6411 31.5992 26.3611L32.6317 24.2961C33.1392 23.1761 34.0492 23.1761 34.6092 24.2961Z" stroke="#EC1C24" stroke-width="2" stroke-linecap="round" stroke-linejoin="round"/>
</svg>
