<svg width="68" height="58" viewBox="0 0 68 58" fill="none" xmlns="http://www.w3.org/2000/svg">
<path d="M14.6299 17.0719V21.2682H11.0439V36.5221H14.6299V40.7184H1V36.5221H4.58594V21.2682H1V17.0719H14.6299Z" stroke="#EC1C24" stroke-width="2"/>
<path d="M26.4658 16.8076C30.7425 16.8077 33.4838 18.6736 33.793 18.8945L35.374 20.0244V17.4844H38.5957V24.2607H35.249C35.2396 24.2476 35.2306 24.2356 35.2227 24.2246C35.2089 24.2056 35.1973 24.1895 35.1895 24.1787L35.1777 24.1631L35.1768 24.1621L35.1719 24.1553L35.167 24.1475L35.0166 24.2607H35.0156C35.1497 24.1596 35.1646 24.1489 35.166 24.1475L35.165 24.1465L35.1641 24.1445C35.163 24.1432 35.1615 24.1414 35.1602 24.1396C35.1574 24.136 35.1534 24.1312 35.1494 24.126C35.1414 24.1156 35.1311 24.102 35.1182 24.0859C35.0921 24.0536 35.0557 24.0102 35.0098 23.957C34.9178 23.8507 34.7854 23.7059 34.6123 23.5352C34.2663 23.1939 33.7547 22.7469 33.0723 22.3027C31.7026 21.4112 29.6503 20.5323 26.9053 20.5322C26.0021 20.5322 25.2324 20.6899 24.6494 20.9932C24.133 21.2618 23.5885 21.7549 23.5225 22.4756L23.5156 22.623L23.5215 22.7598C23.5772 23.4276 24.0332 23.8794 24.3857 24.1367C24.7863 24.4291 25.2847 24.6464 25.7588 24.8066C26.6405 25.1045 31.6475 26.5868 32.5889 26.8701C33.0694 27.0147 34.8138 27.5132 36.4336 28.6729C38.0324 29.8175 39.4297 31.5422 39.4297 34.1816C39.4297 36.882 38.2337 38.5987 36.5654 39.6836C34.8452 40.8021 32.5772 41.2695 30.5234 41.2695C26.9371 41.2695 23.897 39.3197 23.3008 38.9092L21.7334 37.8301V40.6895H18.2734V33.3174H21.6045C21.6381 33.3673 21.6844 33.4318 21.7334 33.501V33.5273L21.9395 33.7959C22.4123 34.4139 24.8769 37.3074 29.6094 37.3076C30.9478 37.3076 31.9371 37.0766 32.6299 36.7393C32.9745 36.5714 33.2644 36.3675 33.4834 36.1357C33.6674 35.9409 33.9296 35.5889 33.9297 35.127C33.9297 34.6648 33.6776 34.3344 33.4941 34.1504C33.3007 33.9564 33.0565 33.7956 32.8047 33.6572C32.295 33.3773 31.5519 33.0818 30.5498 32.7578C29.5596 32.4376 27.8977 31.9366 26.3691 31.4619C24.8 30.9746 23.4193 30.5295 22.8926 30.3018C21.7085 29.7897 18.0859 28.0227 18.0859 23.877C18.0859 21.7027 18.8328 19.9739 20.1807 18.7773C21.5418 17.5692 23.6258 16.8076 26.4658 16.8076Z" stroke="#EC1C24" stroke-width="2"/>
<path d="M54.2939 16.7214C57.5213 16.7215 60.5691 17.6506 62.7959 19.6218C65.0013 21.5743 66.5117 24.6453 66.5117 29.1667C66.5117 33.6866 65.0028 36.6581 62.8145 38.5173C60.5983 40.4001 57.5575 41.2498 54.3252 41.2498C51.0947 41.2497 48.0376 40.3927 45.8047 38.4929C43.5995 36.6166 42.0762 33.6198 42.0762 29.0681C42.0762 24.4893 43.4905 21.4513 45.6279 19.5447C47.7857 17.62 50.8222 16.7214 54.2939 16.7214ZM54.4531 21.1472C52.96 21.1472 51.4167 21.2841 50.4287 22.6775C49.9716 23.3222 49.695 24.1547 49.5254 25.1658C49.3549 26.1825 49.2803 27.4543 49.2803 29.0349C49.2803 32.1563 49.6629 34.172 50.5928 35.3884C51.612 36.7215 53.0819 36.8562 54.3574 36.8562C55.6043 36.8562 57.102 36.7662 58.1377 35.4148C59.0785 34.1871 59.4658 32.1158 59.4658 28.8376C59.4658 25.5141 58.9234 23.5064 57.8799 22.3601C56.7788 21.1508 55.3438 21.1472 54.4531 21.1472Z" stroke="#EC1C24" stroke-width="2"/>
<path d="M10.4168 13.2435C12.0492 10.7494 14.0567 8.53852 16.358 6.70249C17.2885 7.41434 18.2776 8.06003 19.3174 8.6355C17.5753 10.6448 16.0144 12.871 15.7558 13.2435H16.8012C17.4286 12.3685 18.7264 10.6083 20.0949 9.04783C21.5908 9.80868 23.1805 10.431 24.8392 10.9049C24.3977 11.8741 24.0639 12.7216 23.8681 13.2435H24.7762C24.9849 12.7061 25.2907 11.9566 25.6722 11.1284C27.7881 11.6633 30.0053 11.9631 32.2734 12.0088V13.2436H33.1165V12.013C35.3681 11.996 37.573 11.7305 39.6815 11.2316C40.0409 12.0184 40.3303 12.7286 40.5302 13.2435H41.4384C41.2501 12.7423 40.9351 11.9412 40.519 11.0195C42.2073 10.565 43.8274 9.95901 45.3532 9.21009C46.6693 10.7292 47.8997 12.3989 48.5055 13.2435H49.5506C49.3001 12.8824 47.82 10.7709 46.1381 8.80823C47.2945 8.18987 48.3908 7.48631 49.4156 6.70249C51.7169 8.53852 53.7245 10.7494 55.3568 13.2435H56.3709C51.3842 5.28011 42.7205 0 32.8866 0C23.0528 0 14.3891 5.28011 9.40234 13.2435H10.4168ZM25.2154 10.1072C23.6376 9.66619 22.1238 9.08811 20.6967 8.38091C20.8906 8.17242 21.0843 7.97047 21.2759 7.77928C23.2301 5.8294 26.4443 3.68834 27.1489 3.22744C27.7207 3.5524 28.3446 3.82719 29.0083 4.04528C28.4929 4.74462 27.4808 6.16425 26.3787 7.96494C25.9497 8.66574 25.5589 9.4023 25.2154 10.1072ZM32.2734 11.1361C30.1381 11.0919 28.0502 10.8168 26.0545 10.3272C26.3666 9.69585 26.7149 9.04623 27.091 8.4318C28.3608 6.35747 29.5063 4.80002 29.8879 4.29332C30.6494 4.47841 31.4497 4.59545 32.2734 4.63369V11.1361ZM33.1165 11.1405V4.64358C33.9292 4.62933 34.7242 4.54035 35.4851 4.38201C35.9213 4.96577 37.0129 6.46681 38.2156 8.4318C38.6113 9.07837 38.9762 9.76375 39.3007 10.426C37.312 10.8811 35.2363 11.1242 33.1165 11.1405ZM40.1459 10.2194C39.7894 9.48082 39.3795 8.70296 38.9277 7.96494C37.8826 6.25715 36.918 4.89191 36.3817 4.15883C37.0875 3.95368 37.7538 3.68703 38.3657 3.3644C39.3548 4.02042 42.2276 5.98032 44.0306 7.77928C44.2699 8.01816 44.5124 8.27332 44.7547 8.53794C43.2978 9.23394 41.7535 9.79734 40.1459 10.2194ZM48.7096 6.15712C47.7205 6.89587 46.6637 7.5577 45.5509 8.13956C45.2399 7.7944 44.9263 7.46101 44.6159 7.15132C42.9295 5.46868 40.4185 3.70346 39.1883 2.87457C39.6062 2.59426 39.9884 2.28428 40.3291 1.94682C43.3744 2.84709 46.2015 4.28663 48.7096 6.15712ZM32.8869 0.872361C35.1133 0.872361 37.2772 1.15341 39.3492 1.67944C37.7767 3.00092 35.4206 3.77616 32.8869 3.77616C30.3417 3.77616 27.992 3.00339 26.4217 1.68017C28.4944 1.1537 30.6593 0.872361 32.8869 0.872361ZM25.4443 1.94682C25.7217 2.2219 26.0253 2.47925 26.3543 2.71653C25.2397 3.45862 22.4943 5.35179 20.6908 7.15118C20.4311 7.41027 20.1693 7.68622 19.9085 7.97149C18.9109 7.43106 17.9596 6.82579 17.0643 6.15712C19.5721 4.28663 22.3991 2.84724 25.4443 1.94682Z" fill="#EC1C24"/>
<path d="M55.3575 44.624C53.7598 47.0656 51.8023 49.2355 49.562 51.0483C48.4951 50.2181 47.3498 49.476 46.1387 48.8278C47.5977 47.125 48.905 45.3102 49.3889 44.6242H48.3389C47.6917 45.5184 46.5587 47.0352 45.3536 48.4262C43.8278 47.677 42.2079 47.0706 40.5193 46.6162C40.8763 45.8251 41.1584 45.1241 41.3503 44.6242H40.4395C40.2464 45.1115 39.9897 45.7299 39.6812 46.405C37.574 45.9069 35.3694 45.6415 33.116 45.6246V44.6242H32.2729V45.6286C30.0029 45.6741 27.7859 45.9736 25.6712 46.5078C25.3418 45.7929 25.0688 45.1361 24.866 44.6242H23.955C24.1561 45.1482 24.4563 45.8932 24.8379 46.7309C23.1788 47.2051 21.5885 47.8265 20.0928 48.5878C18.836 47.1543 17.6392 45.5531 16.9665 44.624H15.9166C16.4166 45.3328 17.7974 47.2494 19.3167 49.0014C18.2225 49.6077 17.1835 50.2909 16.2104 51.0481C13.97 49.2353 12.0125 47.0655 10.4149 44.6239H9.40234C14.3893 52.5872 23.0526 57.8674 32.8864 57.8674C42.72 57.8674 51.3835 52.5874 56.3704 44.6239L55.3575 44.624ZM40.1456 47.4168C41.7537 47.8387 43.2981 48.4019 44.7551 49.0982C44.5124 49.3631 44.2698 49.6187 44.03 49.8581C42.2326 51.6512 39.369 53.6066 38.3724 54.2678C37.7606 53.9439 37.0934 53.6773 36.3853 53.4721C36.9227 52.7377 37.8847 51.3751 38.927 49.6721C39.3791 48.9339 39.789 48.1557 40.1456 47.4168ZM33.1158 46.4969C35.2373 46.5131 37.313 46.7555 39.3004 47.21C38.9758 47.8727 38.6109 48.5582 38.2147 49.2054C37.0137 51.1676 35.9238 52.6671 35.4864 53.2526C34.7276 53.0961 33.9325 53.0079 33.1157 52.9939V46.4969H33.1158ZM32.2727 46.5012V53.0029C31.4459 53.0409 30.6448 53.1565 29.8843 53.3402C29.5 52.8298 28.3581 51.2767 27.0903 49.2054C26.7139 48.5905 26.3654 47.9405 26.0531 47.3086C28.0477 46.8195 30.1355 46.5453 32.2727 46.5012ZM25.2142 47.5293C25.558 48.2346 25.949 48.9712 26.378 49.6723C27.4793 51.4715 28.4906 52.8902 29.0065 53.5902C28.3418 53.8081 27.7186 54.0832 27.1471 54.409C26.4399 53.9461 23.2284 51.8066 21.2753 49.8581C21.0835 49.6667 20.8897 49.4645 20.6955 49.2558C22.1224 48.5484 23.6361 47.9701 25.2142 47.5293ZM16.9109 51.5951C17.8506 50.8803 18.8525 50.2359 19.9065 49.6647C20.1676 49.9502 20.4299 50.2266 20.6899 50.486C22.4931 52.285 25.2376 54.1777 26.3526 54.9201C25.9553 55.2078 25.5932 55.5242 25.2714 55.8676C22.2303 54.9455 19.4093 53.4858 16.9109 51.5951ZM32.8862 56.9951C30.5869 56.9951 28.3537 56.6964 26.2204 56.1364C27.7782 54.72 30.2519 53.8612 32.8862 53.8612C35.5173 53.8612 37.9934 54.7206 39.5514 56.1366C37.4181 56.6965 35.1853 56.9951 32.8862 56.9951ZM40.5004 55.8676C40.118 55.4598 39.6808 55.0879 39.1931 54.7588C40.4254 53.9285 42.9313 52.166 44.6152 50.4859C44.9257 50.176 45.2393 49.8425 45.5506 49.4971C46.7202 50.1092 47.8286 50.8094 48.8614 51.5949C46.3628 53.4859 43.5417 54.9457 40.5004 55.8676Z" fill="#EC1C24"/>
</svg>
