<svg width="68" height="58" viewBox="0 0 68 58" fill="none" xmlns="http://www.w3.org/2000/svg">
<path d="M49.7067 50L53.6064 46.0727C56.4401 43.2209 58 39.4265 58 35.3924L57.996 14.7528L57.992 15.049C57.992 12.2737 55.7482 10.014 52.9924 10.014C50.6966 10.014 48.7768 11.593 48.1928 13.7218L48.0008 31.0925M42.1133 38.5182L47.3449 33.0381C47.7969 32.4943 48.0168 31.7995 48.0008 31.1006V31.0925M48.0008 31.0925C47.9828 30.3937 47.7309 29.6948 47.2369 29.139C46.137 27.9044 44.2431 27.7976 43.0112 28.9053L37.5537 33.9645C36.5118 34.9312 35.5277 36.1296 33.6278 39.2593M34.002 49.285V42.1172C34.002 39.0277 32.7081 36.0571 30.4503 33.9665L24.9828 28.8993C23.7649 27.7997 21.867 27.9044 20.7671 29.141C19.7792 30.2507 19.7532 31.9485 20.7031 33.0884L25.8887 38.5162M18.2933 49.996L14.3936 46.0687C11.5599 43.2148 10 39.4225 10 35.3884V15.049C10 12.2737 12.2438 10.014 14.9996 10.014C17.2974 10.014 19.2172 11.591 19.7992 13.7218L20.0086 31.0925M41.4274 22.6639C40.0575 19.8302 37.2497 18.07 34.102 18.07C30.9543 18.07 28.3514 19.7286 26.7766 22.6639L26.8266 22.5719M34.002 16.056C36.2078 16.056 38.0017 14.2494 38.0017 12.028C38.0017 9.80656 36.2078 8 34.002 8C31.7962 8 30.0023 9.80656 30.0023 12.028C30.0023 14.2494 31.7962 16.056 34.002 16.056Z" stroke="#EC1C24" stroke-width="2" stroke-linecap="round"/>
</svg>
