<svg width="51" height="44" viewBox="0 0 51 44" fill="none" xmlns="http://www.w3.org/2000/svg">
<path d="M41.0836 43L44.9833 39.0727C47.8171 36.2209 49.377 32.4265 49.377 28.3924L49.373 7.75283L49.369 8.04901C49.369 5.27371 47.1251 3.014 44.3694 3.014C42.0736 3.014 40.1537 4.59298 39.5698 6.72178L39.3778 24.0925M33.4903 31.5182L38.7218 26.0381C39.1738 25.4943 39.3938 24.7995 39.3778 24.1006V24.0925M39.3778 24.0925C39.3598 23.3937 39.1078 22.6948 38.6139 22.139C37.5139 20.9044 35.6201 20.7976 34.3882 21.9053L28.9307 26.9645C27.8887 27.9312 26.9046 29.1296 25.0048 32.2593M25.379 42.285V35.1172C25.379 32.0277 24.0851 29.0571 21.8272 26.9665L16.3597 21.8993C15.1418 20.7997 13.244 20.9044 12.1441 22.141C11.1561 23.2507 11.1301 24.9485 12.0801 26.0884L17.2656 31.5162M9.67026 42.996L5.77059 39.0687C2.93682 36.2148 1.37695 32.4225 1.37695 28.3884V8.04901C1.37695 5.27371 3.62077 3.014 6.37654 3.014C8.67434 3.014 10.5942 4.59097 11.1761 6.72178L11.3856 24.0925M32.8043 15.6639C31.4344 12.8302 28.6267 11.07 25.4789 11.07C22.3312 11.07 19.7284 12.7286 18.1536 15.6639L18.2035 15.5719M25.379 9.05601C27.5848 9.05601 29.3786 7.24945 29.3786 5.028C29.3786 2.80656 27.5848 1 25.379 1C23.1731 1 21.3793 2.80656 21.3793 5.028C21.3793 7.24945 23.1731 9.05601 25.379 9.05601Z" stroke="#EC1C24" stroke-width="2" stroke-linecap="round"/>
</svg>
