<svg width="34" height="37" viewBox="0 0 34 37" fill="none" xmlns="http://www.w3.org/2000/svg">
<path d="M28.0937 28.6524H5.23764M2.19964 6.21692L5.23764 9.28677M9.23405 1.73438L10.8577 5.61432M28.9888 10.2447L31.9248 7.13788M23.5651 6.19276L25.0763 2.31281M16.6211 14.4401C13.7717 14.4401 11.4544 16.9898 11.4544 20.125M28.8919 28.6524H28.2461V20.125C28.2461 13.0715 23.0316 7.33401 16.6211 7.33401C10.2106 7.33401 4.99609 13.0715 4.99609 20.125V28.6524H4.35026C2.56905 28.6524 1.12109 30.2456 1.12109 32.2055V35.7344H32.1211V32.2055C32.1211 30.2456 30.6731 28.6524 28.8919 28.6524Z" stroke="#EC1C24" stroke-width="2" stroke-linecap="round"/>
</svg>
