<svg width="68" height="68" viewBox="0 0 68 68" fill="none" xmlns="http://www.w3.org/2000/svg">
<path d="M45.0937 44.6524H22.2376M19.1996 22.2169L22.2376 25.2868M26.2341 17.7344L27.8577 21.6143M45.9888 26.2447L48.9248 23.1379M40.5651 22.1928L42.0763 18.3128M33.6211 30.4401C30.7717 30.4401 28.4544 32.9898 28.4544 36.125M45.8919 44.6524H45.2461V36.125C45.2461 29.0715 40.0316 23.334 33.6211 23.334C27.2106 23.334 21.9961 29.0715 21.9961 36.125V44.6524H21.3503C19.5691 44.6524 18.1211 46.2456 18.1211 48.2055V51.7344H49.1211V48.2055C49.1211 46.2456 47.6731 44.6524 45.8919 44.6524Z" stroke="#EC1C24" stroke-width="2" stroke-linecap="round"/>
</svg>
