<svg width="44" height="43" viewBox="0 0 44 43" fill="none" xmlns="http://www.w3.org/2000/svg">
<path d="M22 26.7802V11.5421M22 31.5421C21.0371 31.5421 20.2493 32.3993 20.2493 33.4469C20.2493 34.4945 21.0371 35.3516 22 35.3516C22.9629 35.3516 23.7507 34.4945 23.7507 33.4469C23.7507 32.3993 22.9629 31.5421 22 31.5421ZM42.3252 37.3897C41.2048 39.7326 38.8414 41.0659 35.8302 41.0659H8.16977C5.17613 41.0659 2.79523 39.7326 1.67481 37.3897C0.536876 35.0278 0.851996 31.9231 2.51513 29.3135L17.2732 3.78973C18.3586 2.07544 20.1268 1.06592 22 1.06592C23.8732 1.06592 25.6414 2.07544 26.7093 3.75163L41.4849 29.3326C43.148 31.9421 43.4631 35.0278 42.3252 37.3897Z" stroke="#EC1C24" stroke-width="2" stroke-linecap="round"/>
</svg>
