<svg width="68" height="69" viewBox="0 0 68 69" fill="none" xmlns="http://www.w3.org/2000/svg">
<path d="M34 39.7802V24.5421M34 44.5421C33.0371 44.5421 32.2493 45.3993 32.2493 46.4469C32.2493 47.4945 33.0371 48.3516 34 48.3516C34.9629 48.3516 35.7507 47.4945 35.7507 46.4469C35.7507 45.3993 34.9629 44.5421 34 44.5421ZM54.3252 50.3897C53.2048 52.7326 50.8414 54.0659 47.8302 54.0659H20.1698C17.1761 54.0659 14.7952 52.7326 13.6748 50.3897C12.5369 48.0278 12.852 44.9231 14.5151 42.3135L29.2732 16.7897C30.3586 15.0754 32.1268 14.0659 34 14.0659C35.8732 14.0659 37.6414 15.0754 38.7093 16.7516L53.4849 42.3326C55.148 44.9421 55.4631 48.0278 54.3252 50.3897Z" stroke="#EC1C24" stroke-width="2" stroke-linecap="round"/>
</svg>
