<svg width="26" height="26" viewBox="0 0 26 26" fill="none" xmlns="http://www.w3.org/2000/svg">
<path d="M0.870037 8.02774C0.928459 6.75115 1.12835 5.92781 1.39867 5.22893L1.4023 5.21928C1.67018 4.50811 2.08982 3.86386 2.63201 3.33137L2.63961 3.32389L2.64709 3.31629C3.18002 2.7734 3.8245 2.35417 4.53505 2.08701L4.54731 2.08232C5.24459 1.81116 6.06631 1.61201 7.34397 1.5536M0.870037 8.02774C0.80862 9.39172 0.792969 9.81453 0.792969 13.351C0.792969 16.8884 0.80776 17.3102 0.870006 18.6745M0.870037 8.02774L0.870036 8.3718M1.40341 21.4834C1.67058 22.1939 2.08981 22.8384 2.63269 23.3713L2.64029 23.3788L2.64775 23.3864C3.18027 23.9286 3.82454 24.3482 4.53572 24.6161L4.54634 24.6201C5.24425 24.8908 6.06638 25.09 7.34397 25.1484M1.40341 21.4834L1.39873 21.4711C1.12756 20.7738 0.928417 19.9521 0.870006 18.6745M1.40341 21.4834L1.3874 21.399M0.870006 18.6745L0.890925 18.7846M0.870006 18.6745L0.870007 18.3295M1.3874 21.399L0.890925 18.7846M1.3874 21.399C1.17654 20.842 0.959415 20.0648 0.890925 18.7846M1.3874 21.399C1.39479 21.4186 1.40218 21.4378 1.40956 21.4569C1.67696 22.1777 2.10065 22.8305 2.65018 23.3682C3.18767 23.9176 3.84016 24.3412 4.5608 24.6086C5.13912 24.8339 5.95402 25.0693 7.34377 25.133C8.74627 25.1968 9.17957 25.2098 12.6674 25.2098C16.1553 25.2098 16.5889 25.1968 17.9914 25.1329C19.3829 25.0692 20.1968 24.8324 20.7731 24.6089C21.4942 24.3417 22.147 23.9179 22.6847 23.3681C23.2341 22.8307 23.6576 22.1782 23.925 21.4576C24.1503 20.8793 24.3857 20.0644 24.4494 18.6747C24.5132 17.2722 24.5262 16.838 24.5262 13.351C24.5262 9.86404 24.5132 9.4295 24.4494 8.027C24.3853 6.62826 24.1464 5.81311 23.9218 5.23631C23.6283 4.47847 23.256 3.90531 22.6838 3.33309C22.1127 2.76314 21.5411 2.39066 20.7827 2.09681C20.2038 1.87049 19.3881 1.63308 17.9914 1.56908C17.87 1.56355 17.7558 1.5584 17.6462 1.55361M0.890925 18.7846C0.888992 18.7485 0.887177 18.712 0.885484 18.675C0.879952 18.5535 0.874801 18.4392 0.870007 18.3295M7.34397 1.5536C8.70827 1.49135 9.13093 1.47656 12.6674 1.47656C16.2039 1.47656 16.6264 1.4922 17.9903 1.55361M7.34397 1.5536L7.68891 1.5536M17.9903 1.55361L17.6462 1.55361M17.9903 1.55361C19.2671 1.61201 20.0906 1.81187 20.7895 2.08222L20.7992 2.0859C21.5103 2.35377 22.1546 2.77341 22.6871 3.3156L22.6945 3.32313L22.702 3.33053C23.2443 3.86307 23.6639 4.5075 23.9315 5.21887L23.9361 5.2309C24.2073 5.92818 24.4064 6.74991 24.4648 8.02756M7.68891 1.5536L17.6462 1.55361M7.68891 1.5536C8.84417 1.50309 9.4827 1.49221 12.6674 1.49221C15.8524 1.49221 16.4908 1.50309 17.6462 1.55361M7.68891 1.5536C7.57927 1.55839 7.46497 1.56355 7.34341 1.56908C5.95191 1.63285 5.13798 1.86958 4.5617 2.0931C3.83795 2.3614 3.18292 2.78734 2.6441 3.34008C2.07722 3.90929 1.70617 4.47971 1.41325 5.23565C1.18693 5.81451 0.949478 6.6306 0.885468 8.02737C0.879953 8.14854 0.874817 8.26249 0.870036 8.3718M24.4648 18.6745C24.4064 19.9521 24.2073 20.7742 23.9366 21.4721L23.9325 21.4827C23.6647 22.1939 23.245 22.8382 22.7028 23.3707L22.6952 23.3781L22.6878 23.3857C22.1548 23.9286 21.5103 24.3479 20.7998 24.615L20.7875 24.6197C20.0903 24.8909 19.2685 25.09 17.9909 25.1484M0.870007 18.3295C0.819492 17.1743 0.808619 16.5357 0.808619 13.351C0.808619 10.1653 0.819485 9.52768 0.870036 8.3718M0.870007 18.3295L0.870036 8.3718M10.5555 18.4497C11.225 18.7271 11.9427 18.8698 12.6674 18.8698C14.1311 18.8698 15.5348 18.2884 16.5698 17.2534C17.6048 16.2184 18.1862 14.8147 18.1862 13.351C18.1862 11.8873 17.6048 10.4836 16.5698 9.44863C15.5348 8.41365 14.1311 7.83221 12.6674 7.83221C11.9427 7.83221 11.225 7.97496 10.5555 8.2523C9.8859 8.52965 9.27751 8.93616 8.76504 9.44863C8.25257 9.9611 7.84606 10.5695 7.56872 11.2391C7.29137 11.9086 7.14862 12.6263 7.14862 13.351C7.14862 14.0758 7.29137 14.7934 7.56872 15.463C7.84606 16.1325 8.25257 16.7409 8.76504 17.2534C9.27751 17.7659 9.8859 18.1724 10.5555 18.4497ZM8.75275 9.43633C9.79098 8.3981 11.1991 7.81482 12.6674 7.81482C14.1357 7.81482 15.5439 8.3981 16.5821 9.43633C17.6203 10.4746 18.2036 11.8827 18.2036 13.351C18.2036 14.8193 17.6203 16.2275 16.5821 17.2657C15.5439 18.3039 14.1357 18.8872 12.6674 18.8872C11.1991 18.8872 9.79098 18.3039 8.75275 17.2657C7.71451 16.2275 7.13123 14.8193 7.13123 13.351C7.13123 11.8827 7.71451 10.4746 8.75275 9.43633ZM21.321 6.52587C21.321 6.94612 21.1541 7.34916 20.8569 7.64632C20.5597 7.94349 20.1567 8.11043 19.7365 8.11043C19.3162 8.11043 18.9132 7.94349 18.616 7.64632C18.3188 7.34916 18.1519 6.94612 18.1519 6.52587C18.1519 6.10561 18.3188 5.70257 18.616 5.40541C18.9132 5.10825 19.3162 4.9413 19.7365 4.9413C20.1567 4.9413 20.5597 5.10825 20.8569 5.40541C21.1541 5.70257 21.321 6.10561 21.321 6.52587Z" stroke="#EC1C24" stroke-linejoin="round"/>
</svg>
