<svg width="26" height="26" viewBox="0 0 26 26" fill="none" xmlns="http://www.w3.org/2000/svg">
<path d="M1.37028 8.02774C1.4287 6.75115 1.62859 5.92781 1.89891 5.22893L1.90255 5.21928C2.17042 4.50811 2.59006 3.86386 3.13225 3.33137L3.13986 3.32389L3.14733 3.31629C3.68027 2.7734 4.32474 2.35417 5.03529 2.08701L5.04755 2.08232C5.74483 1.81116 6.56656 1.61201 7.84421 1.5536M1.37028 8.02774C1.30886 9.39172 1.29321 9.81453 1.29321 13.351C1.29321 16.8884 1.308 17.3102 1.37025 18.6745M1.37028 8.02774L1.37028 8.3718M1.90366 21.4834C2.17082 22.1939 2.59005 22.8384 3.13294 23.3713L3.14053 23.3788L3.14799 23.3864C3.68052 23.9286 4.32478 24.3482 5.03596 24.6161L5.04658 24.6201C5.7445 24.8908 6.56662 25.09 7.84421 25.1484M1.90366 21.4834L1.89897 21.4711C1.62781 20.7738 1.42866 19.9521 1.37025 18.6745M1.90366 21.4834L1.88764 21.399M1.37025 18.6745L1.39117 18.7846M1.37025 18.6745L1.37025 18.3295M1.88764 21.399L1.39117 18.7846M1.88764 21.399C1.67679 20.842 1.45966 20.0648 1.39117 18.7846M1.88764 21.399C1.89504 21.4186 1.90243 21.4378 1.9098 21.4569C2.17721 22.1777 2.6009 22.8305 3.15042 23.3682C3.68792 23.9176 4.3404 24.3412 5.06104 24.6086C5.63936 24.8339 6.45426 25.0693 7.84402 25.133C9.24651 25.1968 9.67982 25.2098 13.1677 25.2098C16.6555 25.2098 17.0892 25.1968 18.4917 25.1329C19.8832 25.0692 20.6971 24.8324 21.2734 24.6089C21.9944 24.3417 22.6473 23.9179 23.1849 23.3681C23.7343 22.8307 24.1579 22.1782 24.4252 21.4576C24.6505 20.8793 24.8859 20.0644 24.9496 18.6747C25.0134 17.2722 25.0265 16.838 25.0265 13.351C25.0265 9.86404 25.0134 9.4295 24.9496 8.027C24.8855 6.62826 24.6466 5.81311 24.4221 5.23631C24.1285 4.47847 23.7562 3.90531 23.184 3.33309C22.613 2.76314 22.0413 2.39066 21.2829 2.09681C20.7041 1.87049 19.8884 1.63308 18.4917 1.56908C18.3702 1.56355 18.256 1.5584 18.1465 1.55361M1.39117 18.7846C1.38924 18.7485 1.38742 18.712 1.38573 18.675C1.3802 18.5535 1.37504 18.4392 1.37025 18.3295M7.84421 1.5536C9.20851 1.49135 9.63118 1.47656 13.1677 1.47656C16.7041 1.47656 17.1266 1.4922 18.4906 1.55361M7.84421 1.5536L8.18915 1.5536M18.4906 1.55361L18.1465 1.55361M18.4906 1.55361C19.7674 1.61201 20.5908 1.81187 21.2898 2.08222L21.2994 2.0859C22.0106 2.35377 22.6548 2.77341 23.1873 3.3156L23.1947 3.32313L23.2022 3.33053C23.7445 3.86307 24.1641 4.5075 24.4318 5.21887L24.4364 5.2309C24.7075 5.92818 24.9067 6.74991 24.9651 8.02756M8.18915 1.5536L18.1465 1.55361M8.18915 1.5536C9.34442 1.50309 9.98294 1.49221 13.1677 1.49221C16.3527 1.49221 16.991 1.50309 18.1465 1.55361M8.18915 1.5536C8.07951 1.55839 7.96522 1.56355 7.84365 1.56908C6.45216 1.63285 5.63822 1.86958 5.06195 2.0931C4.33819 2.3614 3.68317 2.78734 3.14435 3.34008C2.57747 3.90929 2.20641 4.47971 1.9135 5.23565C1.68717 5.81451 1.44972 6.6306 1.38571 8.02737C1.3802 8.14854 1.37506 8.26249 1.37028 8.3718M24.9651 18.6745C24.9067 19.9521 24.7075 20.7742 24.4368 21.4721L24.4328 21.4827C24.1649 22.1939 23.7453 22.8382 23.2031 23.3707L23.1955 23.3781L23.188 23.3857C22.6551 23.9286 22.0106 24.3479 21.3 24.615L21.2878 24.6197C20.5905 24.8909 19.7688 25.09 18.4911 25.1484M1.37025 18.3295C1.31974 17.1743 1.30886 16.5357 1.30886 13.351C1.30886 10.1653 1.31973 9.52768 1.37028 8.3718M1.37025 18.3295L1.37028 8.3718M11.0557 18.4497C11.7253 18.7271 12.4429 18.8698 13.1677 18.8698C14.6313 18.8698 16.0351 18.2884 17.0701 17.2534C18.105 16.2184 18.6865 14.8147 18.6865 13.351C18.6865 11.8873 18.105 10.4836 17.0701 9.44863C16.0351 8.41365 14.6313 7.83221 13.1677 7.83221C12.4429 7.83221 11.7253 7.97496 11.0557 8.2523C10.3861 8.52965 9.77776 8.93616 9.26529 9.44863C8.75282 9.9611 8.34631 10.5695 8.06896 11.2391C7.79161 11.9086 7.64887 12.6263 7.64887 13.351C7.64887 14.0758 7.79161 14.7934 8.06896 15.463C8.34631 16.1325 8.75282 16.7409 9.26529 17.2534C9.77776 17.7659 10.3861 18.1724 11.0557 18.4497ZM9.25299 9.43633C10.2912 8.3981 11.6994 7.81482 13.1677 7.81482C14.636 7.81482 16.0441 8.3981 17.0824 9.43633C18.1206 10.4746 18.7039 11.8827 18.7039 13.351C18.7039 14.8193 18.1206 16.2275 17.0824 17.2657C16.0441 18.3039 14.636 18.8872 13.1677 18.8872C11.6994 18.8872 10.2912 18.3039 9.25299 17.2657C8.21475 16.2275 7.63148 14.8193 7.63148 13.351C7.63148 11.8827 8.21475 10.4746 9.25299 9.43633ZM21.8213 6.52587C21.8213 6.94612 21.6543 7.34916 21.3572 7.64632C21.06 7.94349 20.6569 8.11043 20.2367 8.11043C19.8164 8.11043 19.4134 7.94349 19.1162 7.64632C18.8191 7.34916 18.6521 6.94612 18.6521 6.52587C18.6521 6.10561 18.8191 5.70257 19.1162 5.40541C19.4134 5.10825 19.8164 4.9413 20.2367 4.9413C20.6569 4.9413 21.06 5.10825 21.3572 5.40541C21.6543 5.70257 21.8213 6.10561 21.8213 6.52587Z" stroke="white" stroke-linejoin="round"/>
</svg>
