<svg width="27" height="27" viewBox="0 0 27 27" fill="none" xmlns="http://www.w3.org/2000/svg">
<path d="M26.4559 3.3135V24.622C26.4559 25.1092 26.2624 25.5764 25.9179 25.9209C25.5734 26.2654 25.1061 26.4589 24.6189 26.4589H3.31045C2.82326 26.4589 2.35603 26.2654 2.01154 25.9209C1.66704 25.5764 1.47351 25.1092 1.47351 24.622V3.3135C1.47351 2.82632 1.66704 2.35908 2.01154 2.01459C2.35603 1.6701 2.82326 1.47656 3.31045 1.47656L24.6189 1.47656C25.1061 1.47656 25.5734 1.6701 25.9179 2.01459C26.2624 2.35908 26.4559 2.82632 26.4559 3.3135ZM8.82127 11.0286H5.14739V22.7851H8.82127V11.0286ZM9.15192 6.98738C9.15385 6.70948 9.10103 6.43392 8.99647 6.17644C8.89191 5.91895 8.73766 5.68458 8.54252 5.48671C8.34738 5.28885 8.11517 5.13135 7.85916 5.02322C7.60316 4.9151 7.32836 4.85845 7.05046 4.85653H6.98433C6.41919 4.85653 5.8772 5.08103 5.47759 5.48064C5.07798 5.88025 4.85348 6.42224 4.85348 6.98738C4.85348 7.55252 5.07798 8.09451 5.47759 8.49412C5.8772 8.89373 6.41919 9.11823 6.98433 9.11823C7.26225 9.12507 7.53879 9.07708 7.79815 8.977C8.05752 8.87692 8.29462 8.72672 8.49592 8.53498C8.69721 8.34324 8.85876 8.11371 8.97132 7.85951C9.08387 7.60532 9.14524 7.33143 9.15192 7.05351V6.98738ZM22.782 15.643C22.782 12.1088 20.5336 10.7347 18.2999 10.7347C17.5685 10.6981 16.8403 10.8539 16.188 11.1865C15.5356 11.5192 14.9818 12.017 14.5819 12.6305H14.479V11.0286H11.0256V22.7851H14.6995V16.5321C14.6464 15.8917 14.8481 15.2562 15.2608 14.7637C15.6736 14.2711 16.264 13.9614 16.9038 13.9016H17.0434C18.2117 13.9016 19.0787 14.6364 19.0787 16.488V22.7851H22.7526L22.782 15.643Z" stroke="#EC1C24" stroke-linejoin="round"/>
</svg>
