<svg width="27" height="27" viewBox="0 0 27 27" fill="none" xmlns="http://www.w3.org/2000/svg">
<path d="M25.956 3.3135V24.622C25.956 25.1092 25.7625 25.5764 25.418 25.9209C25.0735 26.2654 24.6063 26.4589 24.1191 26.4589H2.81057C2.32339 26.4589 1.85615 26.2654 1.51166 25.9209C1.16717 25.5764 0.973633 25.1092 0.973633 24.622L0.973633 3.3135C0.973633 2.82632 1.16717 2.35908 1.51166 2.01459C1.85615 1.6701 2.32339 1.47656 2.81057 1.47656L24.1191 1.47656C24.6063 1.47656 25.0735 1.6701 25.418 2.01459C25.7625 2.35908 25.956 2.82632 25.956 3.3135ZM8.32139 11.0286H4.64751V22.7851H8.32139V11.0286ZM8.65204 6.98738C8.65397 6.70948 8.60115 6.43392 8.49659 6.17644C8.39203 5.91895 8.23778 5.68458 8.04264 5.48671C7.8475 5.28885 7.61529 5.13135 7.35929 5.02322C7.10328 4.9151 6.82848 4.85845 6.55058 4.85653H6.48445C5.91931 4.85653 5.37732 5.08103 4.97771 5.48064C4.5781 5.88025 4.3536 6.42224 4.3536 6.98738C4.3536 7.55252 4.5781 8.09451 4.97771 8.49412C5.37732 8.89373 5.91931 9.11823 6.48445 9.11823C6.76237 9.12507 7.03891 9.07708 7.29828 8.977C7.55764 8.87692 7.79474 8.72672 7.99604 8.53498C8.19734 8.34324 8.35888 8.11371 8.47144 7.85951C8.584 7.60532 8.64537 7.33143 8.65204 7.05351V6.98738ZM22.2821 15.643C22.2821 12.1088 20.0337 10.7347 17.8 10.7347C17.0686 10.6981 16.3404 10.8539 15.6881 11.1865C15.0357 11.5192 14.4819 12.017 14.082 12.6305H13.9792V11.0286H10.5257V22.7851H14.1996V16.5321C14.1465 15.8917 14.3482 15.2562 14.761 14.7637C15.1737 14.2711 15.7641 13.9614 16.4039 13.9016H16.5435C17.7118 13.9016 18.5789 14.6364 18.5789 16.488V22.7851H22.2527L22.2821 15.643Z" stroke="white" stroke-linejoin="round"/>
</svg>
