<svg width="23" height="22" viewBox="0 0 23 22" fill="none" xmlns="http://www.w3.org/2000/svg">
<path d="M21.4702 17.33C21.4702 17.69 21.3902 18.06 21.2202 18.42C21.0502 18.78 20.8302 19.12 20.5402 19.44C20.0502 19.98 19.5102 20.37 18.9002 20.62C18.3002 20.87 17.6502 21 16.9502 21C15.9302 21 14.8402 20.76 13.6902 20.27C12.5402 19.78 11.3902 19.12 10.2502 18.29C9.10024 17.45 8.01024 16.52 6.97024 15.49C5.94024 14.45 5.01024 13.36 4.18024 12.22C3.36024 11.08 2.70024 9.94 2.22024 8.81C1.74024 7.67 1.50024 6.58 1.50024 5.54C1.50024 4.86 1.62024 4.21 1.86024 3.61C2.10024 3 2.48024 2.44 3.01024 1.94C3.65024 1.31 4.35024 1 5.09024 1C5.37024 1 5.65024 1.06 5.90024 1.18C6.16024 1.3 6.39024 1.48 6.57024 1.74L8.89024 5.01C9.07024 5.26 9.20024 5.49 9.29024 5.71C9.38024 5.92 9.43024 6.13 9.43024 6.32C9.43024 6.56 9.36024 6.8 9.22024 7.03C9.09024 7.26 8.90024 7.5 8.66024 7.74L7.90024 8.53C7.79024 8.64 7.74024 8.77 7.74024 8.93C7.74024 9.01 7.75024 9.08 7.77024 9.16C7.80024 9.24 7.83024 9.3 7.85024 9.36C8.03024 9.69 8.34024 10.12 8.78024 10.64C9.23024 11.16 9.71024 11.69 10.2302 12.22C10.7702 12.75 11.2902 13.24 11.8202 13.69C12.3402 14.13 12.7702 14.43 13.1102 14.61C13.1602 14.63 13.2202 14.66 13.2902 14.69C13.3702 14.72 13.4502 14.73 13.5402 14.73C13.7102 14.73 13.8402 14.67 13.9502 14.56L14.7102 13.81C14.9602 13.56 15.2002 13.37 15.4302 13.25C15.6602 13.11 15.8902 13.04 16.1402 13.04C16.3302 13.04 16.5302 13.08 16.7502 13.17C16.9702 13.26 17.2002 13.39 17.4502 13.56L20.7602 15.91C21.0202 16.09 21.2002 16.3 21.3102 16.55C21.4102 16.8 21.4702 17.05 21.4702 17.33Z" stroke="#EC1C24" stroke-width="1.5" stroke-miterlimit="10"/>
</svg>
