<svg width="45" height="41" viewBox="0 0 45 41" fill="none" xmlns="http://www.w3.org/2000/svg">
<path d="M44.0716 10.292C44.0352 10.122 43.9544 9.96199 43.8413 9.83199L36.5619 1.63599C36.1901 1.22199 35.5517 1.17999 35.1355 1.54599C34.7173 1.90999 34.6748 2.54199 35.0426 2.95799L35.9982 4.03399V11.924C35.9982 13.872 37.5943 15.458 39.5581 15.458H42.6695C42.823 17.374 42.9442 19.854 42.9442 22.87C42.9442 25.786 42.4351 31.114 42.1906 33.674C42.126 34.346 42.0815 34.814 42.0714 34.976C41.9543 36.864 40.5501 38.286 38.8025 38.286C37.0003 38.286 35.5355 36.828 35.5355 35.036V33.994C35.5355 31.098 33.1636 28.744 30.2482 28.744H29.8239C30.0219 26.268 30.1613 23.444 30.1613 20.414C30.1613 10.09 28.6157 2.53399 28.5511 2.21599C28.4703 1.83599 28.1753 1.53399 27.7934 1.44399C27.5591 1.38799 21.9626 0.0939941 15.3378 0.0939941C8.71302 0.0939941 3.1186 1.38799 2.88222 1.44199C2.50037 1.53199 2.20337 1.83399 2.12458 2.21599C2.10841 2.29399 0.516357 10.174 0.516357 20.412C0.516357 30.736 2.05992 38.292 2.12458 38.61C2.20539 38.992 2.50239 39.294 2.88626 39.382C3.12062 39.436 8.71706 40.71 15.3378 40.71C21.9586 40.71 27.555 39.438 27.7894 39.382C28.1733 39.294 28.4723 38.992 28.5511 38.608C28.5612 38.56 29.1794 35.502 29.6461 30.742H30.2482C32.0504 30.742 33.5151 32.2 33.5151 33.992V35.034C33.5151 37.928 35.8871 40.284 38.8025 40.284C41.633 40.284 43.9059 38.054 44.0878 35.096C44.0979 34.942 44.1403 34.5 44.2029 33.86C44.4494 31.27 44.9646 25.878 44.9646 22.868C44.9646 14.734 44.106 10.468 44.0716 10.292ZM3.98534 3.24999C5.62589 2.91599 10.2263 2.08999 15.3378 2.08999C20.4494 2.08999 25.0558 2.91799 26.6923 3.24999C26.959 4.72399 27.6015 8.65599 27.9349 13.934H2.74483C3.07819 8.68599 3.71865 4.73399 3.98534 3.24999ZM26.6903 37.564C25.0478 37.892 20.4474 38.704 15.3378 38.704C10.2283 38.704 5.62387 37.89 3.98332 37.564C3.61561 35.528 2.53673 28.836 2.53673 20.408C2.53673 18.854 2.5731 17.356 2.63775 15.934H28.0419C28.1046 17.354 28.1409 18.852 28.1409 20.408C28.1409 28.772 27.058 35.516 26.6903 37.564ZM39.5561 13.454C38.7075 13.454 38.0165 12.766 38.0165 11.92V6.30399L42.1361 10.942C42.2048 11.334 42.3381 12.178 42.4796 13.454H39.5561Z" fill="#EC1C24"/>
</svg>
