<svg width="38" height="49" viewBox="0 0 38 49" fill="none" xmlns="http://www.w3.org/2000/svg">
<path d="M35.54 0.397949V9.23395L20.1234 1.39395V0.397949H18.0678V1.39395L2.65114 9.23395V0.397949H0.595581V39.2579L18.5652 48.3979H19.7246L37.5956 39.256V0.397949L35.54 0.397949ZM18.0678 3.65195V19.3299L2.65114 11.4919L18.0678 3.65195ZM2.65114 13.7459L16.3226 20.5539L2.65114 27.6519V13.7459ZM18.0678 22.0679V37.7459L2.65114 29.9079L18.0678 22.07V22.0679ZM35.54 38.048L19.2169 46.3979L2.65114 38.0459V32.1639L19.0956 40.5259L35.54 32.1639V38.048ZM20.1234 37.7459V22.0679L35.54 29.9059L20.1234 37.7459ZM35.54 27.65L21.8685 20.6979L35.54 13.7459V27.65ZM20.1234 19.3279V3.65195L35.54 11.4899L20.1234 19.3279Z" fill="#EC1C24"/>
</svg>
