<svg id="em8LTrtX6741" xmlns="http://www.w3.org/2000/svg" xmlns:xlink="http://www.w3.org/1999/xlink" viewBox="0 0 51 49" shape-rendering="geometricPrecision" text-rendering="geometricPrecision" project-id="ed6d8de0fbdf4e1c96ed7bd8a9470603" export-id="1909fd1214bb45088623eb2886492b34" cached="false">
<style><![CDATA[
#em8LTrtX6742_to {animation: em8LTrtX6742_to__to 3000ms linear infinite normal forwards}@keyframes em8LTrtX6742_to__to { 0% {transform: translate(18.4053px,35.4994px)} 33.333333% {transform: translate(18.4053px,35.4994px)} 66.666667% {transform: translate(18.4053px,37.4994px)} 100% {transform: translate(18.4053px,37.4994px)}} #em8LTrtX6743_to {animation: em8LTrtX6743_to__to 3000ms linear infinite normal forwards}@keyframes em8LTrtX6743_to__to { 0% {transform: translate(15.9912px,26.2454px)} 33.333333% {transform: translate(15.9912px,26.2454px)} 66.666667% {transform: translate(15.9912px,28.2454px)} 100% {transform: translate(15.9912px,28.2454px)}} #em8LTrtX6744 {animation: em8LTrtX6744_s_do 3000ms linear infinite normal forwards}@keyframes em8LTrtX6744_s_do { 0% {stroke-dashoffset: 155.64} 33.333333% {stroke-dashoffset: 311.28} 100% {stroke-dashoffset: 311.28}}
]]></style>
<g id="em8LTrtX6742_to" transform="translate(18.4053,35.4994)"><path d="M23.1983,45.9994l-9.586-8.602l9.586-8.398v17Z" transform="translate(-18.4053,-37.4994)" fill="none" stroke="#ec1c24" stroke-width="2" stroke-linecap="round"/></g><g id="em8LTrtX6743_to" transform="translate(15.9912,26.2454)"><path d="M11.1982,35.9914v-15.492l9.586,6.898-9.586,8.594Z" transform="translate(-15.9912,-28.2454)" fill="none" stroke="#ec1c24" stroke-width="2" stroke-linecap="round"/></g><path id="em8LTrtX6744" d="M39.1982,40.3974c0,2.756,2.242,5,5,5s5-2.244,5-5c0-1.842-1.01-3.532-2.632-4.406-.83-.446-1.368-1.434-1.368-2.514v-16.08h4v-2.68L15.5662,1.39737h-1.45L1.19824,14.9974v2.4h9.99996v30h-9.99996" fill="none" stroke="#ec1c24" stroke-width="2" stroke-linecap="round" stroke-dashoffset="155.64" stroke-dasharray="155.64"/><path d="M11.1982,17.3974h12" fill="none" stroke="#ec1c24" stroke-width="2" stroke-linecap="round"/><path d="M11.1982,47.3974v-7.898" fill="none" stroke="#ec1c24" stroke-width="2" stroke-linecap="round"/><path d="M33.1982,47.3974h-10v-30h21.5" fill="none" stroke="#ec1c24" stroke-width="2" stroke-linecap="round"/></svg>
