<svg width="49" height="45" viewBox="0 0 49 45" fill="none" xmlns="http://www.w3.org/2000/svg">
<path d="M47.1912 32.398H46.1912V23.78C46.1912 14.152 39.5912 5.664 30.1252 3.076C28.6592 1.444 26.5552 0.395996 24.1912 0.395996C21.8272 0.395996 19.7232 1.444 18.2572 3.076C8.79116 5.664 2.19116 14.154 2.19116 23.78V32.398H1.19116C0.639162 32.398 0.191162 32.846 0.191162 33.398C0.191162 33.95 0.639162 34.398 1.19116 34.398H2.69316C4.21516 36.344 11.2912 44.398 24.1912 44.398C37.0912 44.398 44.1652 36.344 45.6872 34.398H47.1912C47.7432 34.398 48.1912 33.95 48.1912 33.398C48.1912 32.846 47.7432 32.398 47.1912 32.398ZM44.1912 23.78V32.398H32.1912V8.382C32.1912 7.444 31.9992 6.554 31.6992 5.718C39.1532 8.666 44.1912 15.784 44.1912 23.782V23.78ZM24.1912 2.398C27.4992 2.398 30.1912 5.084 30.1912 8.382V32.398H18.1912V8.382C18.1912 5.084 20.8832 2.398 24.1912 2.398ZM4.19116 23.78C4.19116 15.784 9.22916 8.666 16.6832 5.718C16.3832 6.556 16.1912 7.444 16.1912 8.382V32.398H4.19116V23.78ZM24.1912 42.398C14.2732 42.398 7.95516 37.114 5.36116 34.398H43.0212C40.4272 37.114 34.1092 42.398 24.1912 42.398Z" fill="#EC1C24"/>
</svg>
