<svg id="eBMAuJPoVGE1" xmlns="http://www.w3.org/2000/svg" xmlns:xlink="http://www.w3.org/1999/xlink" viewBox="0 0 48 49" shape-rendering="geometricPrecision" text-rendering="geometricPrecision" project-id="20126edea00140a3aef8878bb3194e90" export-id="a4065b67f21a4f729bc6129205632c6d" cached="false">
<style><![CDATA[
#eBMAuJPoVGE2 {animation: eBMAuJPoVGE2_s_do 3000ms linear infinite normal forwards}@keyframes eBMAuJPoVGE2_s_do { 0% {stroke-dashoffset: 189.95} 33.333333% {stroke-dashoffset: 0} 100% {stroke-dashoffset: 0}} #eBMAuJPoVGE3_to {animation: eBMAuJPoVGE3_to__to 3000ms linear infinite normal forwards}@keyframes eBMAuJPoVGE3_to__to { 0% {transform: translate(29.179501px,23.94728px)} 33.333333% {transform: translate(29.179501px,23.94728px)} 66.666667% {transform: translate(29.179501px,20.94728px)} 100% {transform: translate(29.179501px,20.94728px)}}
]]></style>
<path id="eBMAuJPoVGE2" d="M1.00439,47.3975h39.10001m-35.65001,0v-39.10004c0-4.6,3.08201-6.9,6.90001-6.9h18.4c3.818,0,6.9,2.3,6.9,6.9v39.10004h-32.20001Z" fill="none" stroke="#ec1c24" stroke-width="2" stroke-linecap="round" stroke-linejoin="round" stroke-dashoffset="189.95" stroke-dasharray="189.95"/><g id="eBMAuJPoVGE3_to" transform="translate(29.179501,23.94728)"><path d="M11.3545,26.6973h6.9m18.4,6.923l10.35-.023v-13.8l-4.6-2.3m-26.703,2.3h9.729c2.392,0,4.347-1.15,4.347-4.347v-2.829c0-3.19704-1.955-4.34704-4.347-4.34704h-9.729c-2.392,0-4.347,1.15-4.347,4.34704v2.829c0,3.197,1.955,4.347,4.347,4.347Z" transform="translate(-29.179501,-20.94728)" fill="none" stroke="#ec1c24" stroke-width="2" stroke-linecap="round" stroke-linejoin="round"/></g></svg>
