<svg width="48" height="49" viewBox="0 0 48 49" fill="none" xmlns="http://www.w3.org/2000/svg">
<path d="M14.2725 0.897949L47.5 14.0581V15.8979H43.5V32.478C43.5 33.6328 44.0384 34.7381 44.9453 35.3228L45.1309 35.4321C46.5911 36.219 47.5 37.74 47.5 39.3979C47.5 41.8779 45.4817 43.8979 43 43.8979C40.6874 43.8979 38.7779 42.1438 38.5283 39.8979H39.5361C39.7794 41.592 41.2396 42.8979 43 42.8979C44.9301 42.8979 46.5 41.3281 46.5 39.3979C46.5 38.1078 45.7925 36.9241 44.6543 36.313H44.6533C43.3401 35.6044 42.5 34.1461 42.5 32.478V15.8979H21.5V46.8979H31.5V47.8979H0.5V46.8979H10.5V15.8979H0.5V14.1968L13.1328 0.897949H14.2725ZM11.5 46.8979H20.793L11.5 37.605V46.8979ZM11.707 36.3979L20.5 45.1909V27.605L11.707 36.3979ZM11.5 35.1909L20.293 26.3979L11.5 17.605V35.1909ZM20.5 25.1909V15.8979H11.207L20.5 25.1909ZM13.415 2.05322L2.01562 14.0532L1.21289 14.8979H44.2725L44.4551 13.9331L13.9609 1.93311L13.6475 1.80908L13.415 2.05322Z" stroke="#EC1C24"/>
</svg>
