<svg width="49" height="49" viewBox="0 0 49 49" fill="none" xmlns="http://www.w3.org/2000/svg">
<path d="M38.4044 26.3979V28.3979H46.3764C45.7884 39.3299 35.5904 45.9479 25.4044 46.3579V28.3979H32.4044V26.3979H25.4044V16.2959C29.3404 15.7979 32.4044 12.4659 32.4044 8.39795C32.4044 3.98595 28.8164 0.397949 24.4044 0.397949C19.9924 0.397949 16.4044 3.98595 16.4044 8.39795C16.4044 12.4659 19.4684 15.7979 23.4044 16.2959V26.3979H16.4044V28.3979H23.4044V46.3579C13.2204 45.9479 3.02042 39.3299 2.43042 28.3979H10.4044V26.3979H0.404419V27.3979C0.404419 40.5419 12.6084 48.3979 24.4044 48.3979C36.2004 48.3979 48.4044 40.5419 48.4044 27.3979V26.3979H38.4044ZM18.4044 8.39795C18.4044 5.08995 21.0964 2.39795 24.4044 2.39795C27.7124 2.39795 30.4044 5.08995 30.4044 8.39795C30.4044 11.7059 27.7124 14.3979 24.4044 14.3979C21.0964 14.3979 18.4044 11.7059 18.4044 8.39795Z" fill="#EC1C24"/>
</svg>
