<svg id="eOMaDndIhLs1" xmlns="http://www.w3.org/2000/svg" xmlns:xlink="http://www.w3.org/1999/xlink" viewBox="0 0 49 45" shape-rendering="geometricPrecision" text-rendering="geometricPrecision" project-id="0822e0925fa14faa958f3eb55aa62d7f" export-id="07184b5003074a94bcb61b340b5aff59" cached="false">
<style><![CDATA[
#eOMaDndIhLs2_tr {animation: eOMaDndIhLs2_tr__tr 3000ms linear infinite alternate-reverse forwards}@keyframes eOMaDndIhLs2_tr__tr { 0% {transform: translate(24.191181px,22.396997px) rotate(3deg)} 33.333333% {transform: translate(24.191181px,22.396997px) rotate(-3deg)} 66.666667% {transform: translate(24.191181px,22.396997px) rotate(0deg)} 100% {transform: translate(24.191181px,22.396997px) rotate(0deg)}}
]]></style>
<g id="eOMaDndIhLs2_tr" transform="translate(24.191181,22.396997) rotate(0)"><path d="M47.1912,32.398h-1v-8.618c0-9.628-6.6-18.116-16.066-20.704-1.466-1.632-3.57-2.680004-5.934-2.680004s-4.468,1.048004-5.934,2.680004C8.79116,5.664,2.19116,14.154,2.19116,23.78v8.618h-1c-.551998,0-.999998.448-.999998,1s.448,1,.999998,1h1.502c1.522,1.946,8.59804,10,21.49804,10s19.974-8.054,21.496-10h1.504c.552,0,1-.448,1-1s-.448-1-1-1Zm-3-8.618v8.618h-12v-24.016c0-.938-.192-1.828-.492-2.664c7.454,2.948,12.492,10.066,12.492,18.064v-.002Zm-20-21.382c3.308,0,6,2.686,6,5.984v24.016h-12v-24.016c0-3.298,2.692-5.984,6-5.984ZM4.19116,23.78c0-7.996,5.038-15.114,12.49204-18.062-.3.838-.492,1.726-.492,2.664v24.016h-12.00004v-8.618ZM24.1912,42.398c-9.918,0-16.23604-5.284-18.83004-8h37.66004c-2.594,2.716-8.912,8-18.83,8Z" transform="translate(-24.191181,-22.396997)" fill="#ec1c24"/></g></svg>
