<svg width="38" height="49" viewBox="0 0 38 49" fill="none" xmlns="http://www.w3.org/2000/svg">
<path d="M6.31301 18.6986C6.31301 25.3166 11.9758 30.6986 18.939 30.6986C25.9023 30.6986 31.565 25.3166 31.565 18.6946L31.5503 14.6986H33.642V12.6986H31.5419L31.5377 11.5946C31.5377 5.58661 26.3926 0.698608 20.0691 0.698608H17.7543C11.4308 0.698608 6.28565 5.58861 6.28565 11.6026L6.28986 12.6986H4.18132V14.6986H6.29828L6.31301 18.6986ZM29.4607 18.6986C29.4607 24.2126 24.7407 28.6986 18.939 28.6986C13.1374 28.6986 8.41734 24.2126 8.41734 18.6946L8.40261 14.6986H29.446L29.4607 18.6986ZM8.38999 11.5986C8.38999 7.70661 11.033 4.39061 14.703 3.18461V8.69861H16.8073V2.74461C17.1188 2.71461 17.4344 2.69861 17.7543 2.69861H20.0691C20.3889 2.69861 20.7046 2.71461 21.016 2.74461V8.69861H23.1203V3.18461C26.7903 4.39061 29.4333 7.70661 29.4333 11.5986L29.4376 12.6986H8.3942L8.38999 11.5986ZM37.8507 42.6986V48.6986H35.7464V42.6986C35.7464 38.2866 31.9712 34.6986 27.329 34.6986H10.5217C5.87951 34.6986 2.10434 38.2866 2.10434 42.6986V48.6986H0V42.6986C0 37.1846 4.72002 32.6986 10.5217 32.6986H27.329C33.1307 32.6986 37.8507 37.1846 37.8507 42.6986Z" fill="#EC1C24"/>
</svg>
