<svg width="48" height="49" viewBox="0 0 48 49" fill="none" xmlns="http://www.w3.org/2000/svg">
<path d="M43 4.61966H36V0.603882H34V4.61966H14V0.603882H12V4.61966H5C2.244 4.61966 0 6.87251 0 9.63938V48.7932H48V9.63938C48 6.87251 45.756 4.61966 43 4.61966ZM5 6.62755H43C44.654 6.62755 46 7.97886 46 9.63938V16.667H2V9.63938C2 7.97886 3.346 6.62755 5 6.62755ZM2 46.7853V18.6749H46V46.7853H2Z" fill="#EC1C24"/>
<path d="M22 26.7065H18V28.7144H22V26.7065Z" fill="#EC1C24"/>
<path d="M30 26.7065H26V28.7144H30V26.7065Z" fill="#EC1C24"/>
<path d="M38 26.7065H34V28.7144H38V26.7065Z" fill="#EC1C24"/>
<path d="M22 36.746H18V38.7539H22V36.746Z" fill="#EC1C24"/>
<path d="M14 26.7065H10V28.7144H14V26.7065Z" fill="#EC1C24"/>
<path d="M14 36.746H10V38.7539H14V36.746Z" fill="#EC1C24"/>
<path d="M30 36.746H26V38.7539H30V36.746Z" fill="#EC1C24"/>
<path d="M38 36.746H34V38.7539H38V36.746Z" fill="#EC1C24"/>
</svg>
