<svg width="43" height="44" viewBox="0 0 43 44" fill="none" xmlns="http://www.w3.org/2000/svg">
<path d="M21.0845 43C20.5991 43 20.1337 42.8513 19.739 42.5688L15.8258 39.8177C15.5544 39.6162 15.2199 39.5061 14.8817 39.5061C14.8765 39.5061 14.8713 39.5061 14.8661 39.5061L10.0908 39.4318C9.09474 39.4236 8.21983 38.788 7.90613 37.8499L6.3577 33.3236C6.25437 32.995 6.04449 32.7074 5.76425 32.5074L1.94507 29.6402C1.14447 29.0478 0.809994 28.0197 1.10734 27.0764L2.51457 22.5047C2.62385 22.1784 2.62385 21.8223 2.51457 21.4959L1.10952 16.9309C0.809941 15.9809 1.1435 14.9521 1.9389 14.3641L5.76425 11.4926C6.04449 11.2926 6.25437 11.0049 6.3577 10.6763L7.90395 6.15744C8.21988 5.21263 9.09455 4.57699 10.0832 4.56881L14.8661 4.4945C14.8713 4.4945 14.8765 4.4945 14.8817 4.4945C15.2199 4.4945 15.5544 4.38379 15.8258 4.18234L19.7328 1.43556C20.1342 1.14937 20.5991 1 21.0845 1C21.5699 1 22.0353 1.14938 22.43 1.43112L26.3428 4.18152C26.6142 4.38298 26.9487 4.49377 27.2869 4.49377C27.2921 4.49377 27.2973 4.49377 27.3025 4.49377L32.0781 4.56809C33.0742 4.57626 33.9491 5.21188 34.2628 6.15L35.8113 10.6756C35.9146 11.0042 36.1241 11.2926 36.4044 11.4918L40.2239 14.3589C41.0245 14.9514 41.359 15.9802 41.0616 16.9228L39.6544 21.4945C39.5451 21.8208 39.5451 22.1769 39.6544 22.504L41.0591 27.0682C41.3587 28.0183 41.0251 29.0471 40.2297 29.6351L36.4044 32.5066C36.1241 32.7066 35.9146 32.9943 35.8113 33.3229L34.265 37.8417C33.9491 38.7866 33.0741 39.4222 32.0854 39.4304L27.3025 39.5047C27.2973 39.5047 27.2921 39.5047 27.2869 39.5047C26.9487 39.5047 26.6142 39.6155 26.3428 39.8169L22.4358 42.5636C22.0344 42.8498 21.5699 42.9992 21.0845 42.9992V43ZM21.0845 10.2541C14.6076 10.2541 9.33769 15.5238 9.33769 22.0007C9.33769 28.4776 14.6076 33.7473 21.0845 33.7473C27.5547 33.7399 32.8235 28.4709 32.8309 22.0022C32.8309 15.5238 27.5614 10.2541 21.0845 10.2541Z" stroke="#EC1C24" stroke-width="2" stroke-linecap="round"/>
<path d="M14.3683 21.1996L18.6815 26.1652C18.7424 26.2351 18.8292 26.2782 18.9228 26.2834C18.9288 26.2834 18.9413 26.2841 18.9413 26.2841C19.0276 26.2841 19.1101 26.2522 19.1733 26.1942L27.7695 18.316" stroke="#EC1C24" stroke-width="2" stroke-linecap="round"/>
</svg>
