<svg width="77" height="44" viewBox="0 0 77 44" fill="none" xmlns="http://www.w3.org/2000/svg">
<path d="M27.1808 36.1252H49.1375C49.7691 36.1252 50.3748 35.8743 50.8214 35.4278C51.268 34.9812 51.5189 34.3755 51.5189 33.7439L59.8111 3.38153C59.8112 3.06641 59.7486 2.75441 59.6272 2.46363C59.5057 2.17284 59.3278 1.90905 59.1037 1.68755C58.8795 1.46604 58.6136 1.29123 58.3214 1.17324C58.0292 1.05524 57.7165 0.996417 57.4014 1.00017H21.4117C20.7788 1.00016 20.1716 1.2506 19.7228 1.69678C19.2739 2.14297 19.0199 2.74865 19.0162 3.38153L11.9288 33.7439C11.9288 34.3755 12.1797 34.9812 12.6263 35.4278C13.0728 35.8743 13.6786 36.1252 14.3101 36.1252H17.4002" stroke="#EC1C24" stroke-width="2"/>
<path d="M55.502 36.1252H50.5833L57.6707 11.6171H69.3224C69.4976 11.6167 69.6709 11.6545 69.83 11.728C69.9891 11.8014 70.1303 11.9087 70.2437 12.0423L75.3183 20.9724C75.5001 21.1806 75.6008 21.4473 75.6018 21.7237L70.8816 36.1252H65.7787" stroke="#EC1C24" stroke-width="2"/>
<path d="M22.4039 43C25.3083 43 27.6628 40.6138 27.6628 37.6703C27.6628 34.7268 25.3083 32.3406 22.4039 32.3406C19.4995 32.3406 17.1451 34.7268 17.1451 37.6703C17.1451 40.6138 19.4995 43 22.4039 43Z" stroke="#EC1C24" stroke-width="2"/>
<path d="M60.7325 43C63.6368 43 65.9913 40.6138 65.9913 37.6703C65.9913 34.7268 63.6368 32.3406 60.7325 32.3406C57.8281 32.3406 55.4736 34.7268 55.4736 37.6703C55.4736 40.6138 57.8281 43 60.7325 43Z" stroke="#EC1C24" stroke-width="2"/>
<path d="M29.4063 7.97412H6.18799" stroke="#EC1C24" stroke-width="2" stroke-linecap="round"/>
<path d="M24.8278 15.4017H8.42755" stroke="#EC1C24" stroke-width="2" stroke-linecap="round"/>
<path d="M26.4862 23.7649H1" stroke="#EC1C24" stroke-width="2" stroke-linecap="round"/>
</svg>
