<svg width="46" height="44" viewBox="0 0 46 44" fill="none" xmlns="http://www.w3.org/2000/svg">
<path d="M4.47909 29.9459C7.72338 37.8756 15.3554 43 23.9223 43C35.5016 43 44.9227 33.5793 44.9227 22C44.9227 10.4208 35.5016 1 23.9223 1C18.1816 1 12.8581 3.29901 8.99755 7.19809C6.35269 9.86944 4.6268 13.3143 3.97521 17.0168M8.6066 13.8368L4.20608 17.8714C4.11059 17.9589 3.98538 18.0079 3.85619 18.0079C3.8265 18.0079 3.79999 18.0055 3.77351 18.0007C3.60741 17.971 3.46957 17.8698 3.39815 17.7294L1.00022 13.0736" stroke="#EC1C24" stroke-width="2" stroke-linecap="round"/>
<path d="M15.8898 18.1785V31.0493C15.8898 31.8178 16.5153 32.4426 17.2833 32.4426H19.0642L33.118 32.4432C33.886 32.4432 34.511 31.8178 34.511 31.0498V18.179M15.8898 18.1785L13.0371 20.66M15.8898 18.1785L25.2016 10.6294L34.511 18.179M37.5117 20.66L34.511 18.179M28.6365 32.443V25.8284C28.6365 24.68 27.7793 23.7455 26.7256 23.7455H23.5796C22.5259 23.7455 21.6686 24.68 21.6686 25.8284V32.4427" stroke="#EC1C24" stroke-width="2" stroke-linecap="round"/>
</svg>
