<svg width="46" height="44" viewBox="0 0 46 44" fill="none" xmlns="http://www.w3.org/2000/svg">
<path d="M4.1395 29.9459C7.38379 37.8756 15.0158 43 23.5828 43C35.1621 43 44.5831 33.5793 44.5831 22C44.5831 10.4208 35.1621 1 23.5828 1C17.8421 1 12.5185 3.29901 8.65796 7.19809C6.0131 9.86944 4.28721 13.3143 3.63562 17.0168" stroke="#EC1C24" stroke-width="2"/>
<path d="M8.49543 13.3203L4.0949 17.355C3.99941 17.4424 3.8742 17.4914 3.74501 17.4914C3.71532 17.4914 3.68882 17.489 3.66234 17.4842C3.49623 17.4545 3.35839 17.3534 3.28697 17.2129L0.889038 12.5571" stroke="#EC1C24" stroke-width="2"/>
<path d="M29.86 27.2448L23.239 22.2792C23.1098 22.1822 23.0317 22.0273 23.0317 21.8652V13.5895" stroke="#EC1C24" stroke-width="2"/>
</svg>
