<svg width="40" height="44" viewBox="0 0 40 44" fill="none" xmlns="http://www.w3.org/2000/svg">
<path opacity="0.93" d="M19.5244 43C18.7938 43 18.0803 42.8676 17.403 42.6069C7.59018 38.833 0.998386 29.2349 1 18.7238V8.31605C1 8.14733 1.13128 8.0109 1.29838 8.00444C7.2752 7.77195 13.3449 5.4358 19.3395 1.05974C19.4065 1.0105 19.4768 1 19.5236 1C19.5704 1 19.6406 1.0105 19.71 1.06055C25.7014 5.435 31.7712 7.77195 37.7488 8.00444C37.9175 8.0109 38.0484 8.14814 38.0484 8.31605V19.7369C38.05 29.7968 32.2182 38.5392 23.1917 42.0111L21.6465 42.6069C20.9652 42.8676 20.2509 43 19.5244 43Z" stroke="#EC1C24" stroke-width="2"/>
<path opacity="0.93" d="M11.9824 21.5946L17.3915 27.0063L27.0689 17.3291" stroke="#EC1C24" stroke-width="2" stroke-linecap="round"/>
</svg>
