<svg width="40" height="44" viewBox="0 0 40 44" fill="none" xmlns="http://www.w3.org/2000/svg">
<path d="M11.0568 1V7.00074" stroke="#EC1C24" stroke-width="2" stroke-miterlimit="10" stroke-linecap="round" stroke-linejoin="round"/>
<path d="M28.1532 1V7.00074" stroke="#EC1C24" stroke-width="2" stroke-miterlimit="10" stroke-linecap="round" stroke-linejoin="round"/>
<path d="M1 16L37.204 16" stroke="#EC1C24" stroke-width="2" stroke-miterlimit="10" stroke-linecap="round" stroke-linejoin="round"/>
<path d="M38.2096 14.5405V32.4595C38.2096 38.7838 35.1088 43 27.8736 43H11.336C4.1008 43 1 38.7838 1 32.4595V14.5405C1 8.21622 4.1008 4 11.336 4H27.8736C35.1088 4 38.2096 8.21622 38.2096 14.5405Z" stroke="#EC1C24" stroke-width="2" stroke-miterlimit="10" stroke-linecap="round" stroke-linejoin="round"/>
<path d="M27.1391 25.5H27.1572" stroke="#EC1C24" stroke-width="2" stroke-linecap="round" stroke-linejoin="round"/>
<path d="M27.1391 32.0004H27.1572" stroke="#EC1C24" stroke-width="2" stroke-linecap="round" stroke-linejoin="round"/>
<path d="M19.5914 25.5H19.6185" stroke="#EC1C24" stroke-width="2" stroke-linecap="round" stroke-linejoin="round"/>
<path d="M19.5914 32.0004H19.6185" stroke="#EC1C24" stroke-width="2" stroke-linecap="round" stroke-linejoin="round"/>
<path d="M12.0534 25.5H12.0715" stroke="#EC1C24" stroke-width="2" stroke-linecap="round" stroke-linejoin="round"/>
<path d="M12.0534 32.0004H12.0715" stroke="#EC1C24" stroke-width="2" stroke-linecap="round" stroke-linejoin="round"/>
</svg>
