<svg width="42" height="42" viewBox="0 0 42 42" fill="none" xmlns="http://www.w3.org/2000/svg">
<path d="M38.4475 32.0775C38.4475 32.7075 38.3075 33.355 38.01 33.985C37.7125 34.615 37.3275 35.21 36.82 35.77C35.9625 36.715 35.0175 37.3975 33.95 37.835C32.9 38.2725 31.7625 38.5 30.5375 38.5C28.7525 38.5 26.845 38.08 24.8325 37.2225C22.82 36.365 20.8075 35.21 18.8125 33.7575C16.8 32.2875 14.8925 30.66 13.0725 28.8575C11.27 27.0375 9.6425 25.13 8.19 23.135C6.755 21.14 5.6 19.145 4.76 17.1675C3.92 15.1725 3.5 13.265 3.5 11.445C3.5 10.255 3.71 9.1175 4.13 8.0675C4.55 7 5.215 6.02 6.1425 5.145C7.2625 4.0425 8.4875 3.5 9.7825 3.5C10.2725 3.5 10.7625 3.605 11.2 3.815C11.655 4.025 12.0575 4.34 12.3725 4.795L16.4325 10.5175C16.7475 10.955 16.975 11.3575 17.1325 11.7425C17.29 12.11 17.3775 12.4775 17.3775 12.81C17.3775 13.23 17.255 13.65 17.01 14.0525C16.7825 14.455 16.45 14.875 16.03 15.295L14.7 16.6775C14.5075 16.87 14.42 17.0975 14.42 17.3775C14.42 17.5175 14.4375 17.64 14.4725 17.78C14.525 17.92 14.5775 18.025 14.6125 18.13C14.9275 18.7075 15.47 19.46 16.24 20.37C17.0275 21.28 17.8675 22.2075 18.7775 23.135C19.7225 24.0625 20.6325 24.92 21.56 25.7075C22.47 26.4775 23.2225 27.0025 23.8175 27.3175C23.905 27.3525 24.01 27.405 24.1325 27.4575C24.2725 27.51 24.4125 27.5275 24.57 27.5275C24.8675 27.5275 25.095 27.4225 25.2875 27.23L26.6175 25.9175C27.055 25.48 27.475 25.1475 27.8775 24.9375C28.28 24.6925 28.6825 24.57 29.12 24.57C29.4525 24.57 29.8025 24.64 30.1875 24.7975C30.5725 24.955 30.975 25.1825 31.4125 25.48L37.205 29.5925C37.66 29.9075 37.975 30.275 38.1675 30.7125C38.3425 31.15 38.4475 31.5875 38.4475 32.0775Z" stroke="#EC1C24" stroke-width="2" stroke-miterlimit="10"/>
<path d="M32.375 15.75C32.375 14.7 31.5525 13.09 30.3275 11.7775C29.2075 10.57 27.72 9.625 26.25 9.625" stroke="#EC1C24" stroke-width="2" stroke-linecap="round" stroke-linejoin="round"/>
<path d="M38.5 15.75C38.5 8.9775 33.0225 3.5 26.25 3.5" stroke="#EC1C24" stroke-width="2" stroke-linecap="round" stroke-linejoin="round"/>
</svg>
