<svg width="299" height="129" viewBox="0 0 299 129" fill="none" xmlns="http://www.w3.org/2000/svg">
<g clip-path="url(#clip0_702_47)">
<path d="M62.7691 102.54C65.057 100.382 66.9917 98.0538 68.4846 95.5482C68.7496 94.859 69.0102 94.0787 69.2752 93.3895C68.9218 93.1294 68.6612 92.7869 68.3079 92.5269C66.8106 95.8083 64.7876 98.9121 62.0623 101.591C62.3274 101.938 62.588 102.194 62.7646 102.54" fill="black"/>
<path d="M68.3123 92.5269C66.815 95.8083 64.7964 98.9121 62.0668 101.591C62.3318 101.938 62.5924 102.194 62.7691 102.54C65.057 100.382 66.9917 98.0538 68.4846 95.5482C68.7496 94.859 69.0102 94.0787 69.2752 93.3895C68.9219 93.1294 68.6613 92.7869 68.3079 92.5269" fill="black"/>
<path d="M68.3123 92.5268C68.6657 92.7869 68.9263 93.1293 69.2796 93.3894C70.0703 90.8015 70.5119 88.1226 70.6003 85.448C70.1586 87.8625 69.368 90.2814 68.3123 92.5268ZM79.8317 64.5629C79.1294 61.7149 78.0737 58.8669 76.6647 56.0189C73.6745 49.9762 67.8706 43.3309 59.1648 35.992C50.3707 28.6575 45.1808 23.5641 43.5996 20.8028C41.93 18.0415 41.0466 15.4493 41.0466 13.0348C41.0466 11.3962 41.2233 10.0134 41.5722 8.71733C42.1861 6.2985 43.3301 4.39985 45.0041 2.93468C45.7948 2.15874 46.1481 1.55187 46.1481 1.03602C46.1481 0.346786 45.7948 0 45.1808 0C44.7391 0 44.1252 0.346786 43.3345 0.949326C42.1906 1.89865 40.6976 3.62391 38.763 6.04274C36.5634 8.80403 35.1588 11.8254 34.4521 15.1069C34.0987 16.5764 33.9265 18.1282 33.9265 19.7668C33.9265 24.9469 34.8054 29.0043 36.3911 32.0257C38.0607 34.9603 40.7904 37.8083 43.5156 41.4322C44.4829 42.6417 46.6826 44.9695 49.3195 47.6484C54.5977 52.9152 61.5456 59.4738 62.9502 61.199C63.9175 62.2351 64.7964 63.3578 65.5031 64.5629C66.4705 65.859 67.2611 67.3241 67.9634 68.7069C68.1401 69.0537 68.3167 69.3095 68.489 69.5696C69.2796 71.1214 69.9863 72.591 70.5119 74.1428C71.8326 77.8534 72.3582 81.6507 72.2699 85.448C72.1815 88.5561 71.5676 91.5775 70.6003 94.5121C69.8097 96.8443 68.6657 98.9987 67.345 101.071C66.5544 102.28 65.6754 103.403 64.7081 104.521C63.7408 105.644 62.6851 106.767 61.4528 107.716C60.3972 108.579 59.3415 109.441 58.2859 110.135C57.2302 110.824 55.3839 111.947 55.0306 112.12C52.482 113.759 49.8407 114.968 47.0271 115.831C44.8275 116.52 42.6278 116.954 40.3443 117.209C38.763 117.383 37.1773 117.469 35.5961 117.383C34.9821 117.383 34.3638 117.383 33.7498 117.296L33.8381 117.383C35.5077 118.765 37.354 120.144 39.377 121.353L39.9026 121.7L41.2233 122.563C40.8699 123.252 40.521 123.946 40.2559 124.548C39.2003 126.533 38.7586 127.656 38.7586 128.085C38.7586 128.601 39.0236 128.861 39.6376 128.948C39.8142 129.035 40.4282 129.035 40.6049 128.775C40.7816 128.601 41.9255 126.1 42.3628 125.324C44.3858 121.874 47.8177 118.765 52.7426 115.918C58.1092 112.809 62.7691 109.446 66.55 105.817C69.4519 103.143 71.9165 100.295 73.9395 97.2734C78.2504 90.9706 80.6223 83.9829 81.064 76.3839V73.9694C81.064 70.8614 80.7107 67.6666 79.8317 64.5629ZM68.3123 92.5268C68.6657 92.7869 68.9263 93.1293 69.2796 93.3894C70.0703 90.8015 70.5119 88.1226 70.6003 85.448C70.1586 87.8625 69.368 90.2814 68.3123 92.5268ZM42.0139 60.072C47.3805 60.072 52.3053 61.7105 56.2629 64.5585C62.5968 68.9584 66.815 76.2105 66.815 84.412C66.815 86.4841 66.55 88.4694 66.0243 90.3681C65.057 94.0787 63.2991 97.3601 60.8344 100.208C56.2629 105.388 49.5757 108.665 42.0139 108.665C28.3832 108.665 17.3011 97.7893 17.3011 84.412C17.3011 76.2105 21.4354 68.9627 27.7649 64.5585C31.8108 61.7105 36.7356 60.072 42.0139 60.072ZM66.7266 69.5696C66.55 69.3095 66.3733 69.0537 66.201 68.7069C65.4987 67.3241 64.7037 65.859 63.8247 64.5629C63.0341 63.3534 62.1551 62.2307 61.2761 61.199C58.8159 58.3511 55.9979 56.1056 53.0076 54.207C50.9847 52.9976 48.785 51.9615 46.5854 51.1856C45.8831 50.9255 45.1764 50.7521 44.4741 50.4964C33.657 47.475 21.431 49.547 12.1996 57.315C9.651 59.4738 7.45136 61.8883 5.68901 64.5629C3.0521 68.5336 1.28974 72.9334 0.499109 77.511C-1.17049 87.0909 1.28974 97.3645 8.23758 105.388C14.4831 112.64 23.1006 116.611 32.0714 117.3C32.6853 117.387 33.2153 117.387 33.8293 117.387H35.5872C37.0802 117.387 38.5775 117.214 40.0704 117.04C42.884 116.607 45.6093 115.831 48.3389 114.708C50.1852 113.932 52.0315 112.983 53.7055 111.86C53.9705 111.773 55.7285 110.651 56.9608 109.875C57.9281 109.186 58.8071 108.492 59.7744 107.716C60.565 107.027 61.3556 106.247 62.1507 105.471C62.6763 104.868 63.2947 104.261 63.8203 103.659C65.7549 101.157 67.3406 98.3918 68.4802 95.5438C68.7452 94.8546 69.0058 94.0743 69.2708 93.3851C70.0614 90.7972 70.5031 88.1183 70.5915 85.4437C70.7681 80.0078 69.4475 74.5676 66.7222 69.5609" fill="#EC1C24"/>
<path d="M91.1788 105.475C85.9006 108.925 80.3617 111.691 73.9395 112.033C69.5402 112.294 65.671 110.911 62.6807 107.374C60.1278 104.352 57.4025 101.417 54.0633 99.0897C50.1941 96.2417 45.9715 94.2563 41.1349 93.7362C39.2003 93.5628 37.2657 93.7362 35.3311 93.7362C35.1544 93.7362 34.8894 93.7361 34.6288 93.6495C35.5961 93.216 36.5634 92.7001 37.5307 92.3533C41.93 90.5414 46.5015 89.2453 51.3381 88.9895C56.1746 88.7294 60.5739 89.9388 64.0897 93.4761C67.345 96.6708 70.5959 99.7789 74.2929 102.367C76.7531 104.005 79.3944 105.388 82.2964 105.904C85.1983 106.42 88.0119 106.251 90.8255 105.557C90.9138 105.557 91.0021 105.471 91.1788 105.471" fill="white"/>
<path d="M99.6637 61.5243C96.4614 61.5243 93.8201 60.4709 91.5896 58.3035C89.3634 56.1404 88.2769 53.5396 88.2769 50.3535C88.2769 47.1674 89.359 44.5708 91.5896 42.4034C93.8201 40.236 96.4614 39.1826 99.6637 39.1826C102.866 39.1826 105.507 40.236 107.738 42.4034C109.964 44.5708 111.046 47.1717 111.046 50.3535C111.046 53.002 110.207 55.3645 108.551 57.3759C108.528 57.4019 106.921 59.3829 104.827 60.3409C103.188 61.1298 101.453 61.5243 99.6637 61.5243ZM99.6637 42.7025C97.5038 42.7025 95.6664 43.4221 94.2044 44.8439C92.7424 46.2657 92.0003 48.121 92.0003 50.3535C92.0003 52.5859 92.7424 54.4412 94.2088 55.863C95.6708 57.2848 97.5083 58.0044 99.6725 58.0044C100.207 58.0044 100.803 57.9524 101.448 57.8484C101.567 57.831 104.761 57.3499 106.271 54.4455C106.965 53.2101 107.323 51.823 107.323 50.3535C107.323 48.121 106.581 46.2657 105.119 44.8439C103.657 43.4221 101.819 42.7025 99.6593 42.7025" fill="white"/>
<path d="M123.771 61.5243C121.346 61.5243 119.337 60.8698 117.8 59.578C116.28 58.3035 115.538 56.6173 115.538 54.4325V39.7158C117.649 40.0973 119.257 41.9179 119.257 44.0983V53.9731C119.257 56.5739 120.861 58.0088 123.771 58.0088C126.682 58.0088 128.285 56.5739 128.285 53.9731V44.0983C128.285 41.9179 129.893 40.0973 132.005 39.7158V54.4325C132.005 56.6173 131.267 58.2992 129.743 59.578C128.206 60.8698 126.196 61.5243 123.771 61.5243Z" fill="white"/>
<path d="M155.101 61.0648C153.188 61.0648 151.488 59.8728 150.869 58.0955L150.644 57.4453H140.423L140.242 58.0088C139.65 59.8381 137.936 61.0648 135.98 61.0648H135.132L141.642 42.2777C142.186 40.7042 143.692 39.6465 145.388 39.6465C147.084 39.6465 148.586 40.7042 149.129 42.2734L155.653 61.0648H155.101ZM141.527 54.1248H149.496L145.379 42.2821L141.527 54.1248Z" fill="white"/>
<path d="M159.641 61.0648V48.0517C159.641 43.4178 163.484 39.6465 168.206 39.6465C171.245 39.6465 173.709 40.6478 175.745 42.7069C177.79 44.7746 178.784 47.2758 178.784 50.3535C178.784 53.4312 177.79 55.9368 175.745 58.0001C173.709 60.0592 171.24 61.0605 168.206 61.0605H159.641V61.0648ZM168.206 43.097C165.533 43.097 163.36 45.2297 163.36 47.8523V57.61H168.206C170.286 57.61 172 56.9338 173.307 55.603C174.606 54.2808 175.264 52.5122 175.264 50.3535C175.264 48.1948 174.606 46.4261 173.307 45.104C172 43.7689 170.282 43.097 168.206 43.097Z" fill="white"/>
<path d="M191.832 61.0648V48.0517C191.832 43.4178 195.675 39.6465 200.396 39.6465C203.435 39.6465 205.9 40.6478 207.936 42.7069C209.981 44.7746 210.975 47.2758 210.975 50.3535C210.975 53.4312 209.981 55.9368 207.936 58.0001C205.9 60.0592 203.431 61.0605 200.396 61.0605H191.832V61.0648ZM200.396 43.097C197.724 43.097 195.551 45.2297 195.551 47.8523V57.61H200.396C202.477 57.61 204.19 56.9338 205.498 55.603C206.796 54.2808 207.455 52.5122 207.455 50.3535C207.455 48.1948 206.796 46.4261 205.498 45.104C204.19 43.7689 202.472 43.097 200.396 43.097Z" fill="white"/>
<path d="M231.474 61.0648C229.102 61.0648 226.898 59.812 225.714 57.7963L223.197 53.4962H219.354V61.0648H215.635V39.6421H224.199C226.227 39.6421 227.901 40.3183 229.318 41.7098C230.736 43.1013 231.425 44.7442 231.425 46.7339C231.425 47.991 231.081 49.1223 230.37 50.1931C229.659 51.2638 228.709 52.1047 227.547 52.6986L226.779 53.0887L231.492 61.0648H231.474ZM219.358 50.5052H224.204C225.18 50.5052 226.023 50.128 226.708 49.3824C227.371 48.6629 227.706 47.7699 227.706 46.7339C227.706 45.6978 227.371 44.8092 226.708 44.0853C226.023 43.3397 225.18 42.9626 224.204 42.9626H219.358V50.5008V50.5052Z" fill="white"/>
<path d="M236.262 61.0648V39.6465H249.142C248.806 41.6015 247.066 43.097 244.976 43.097H239.976V48.5285H248.333C248.104 50.4315 246.447 51.914 244.446 51.914H239.976V57.61H249.367V61.0605H236.257L236.262 61.0648Z" fill="white"/>
<path d="M272.331 61.0648C270.599 61.0648 269.058 59.9855 268.501 58.3773L268.179 57.4453H257.958L257.68 58.2992C257.145 59.9551 255.595 61.0648 253.824 61.0648H252.666L259.177 42.2777C259.72 40.7042 261.226 39.6465 262.918 39.6465C264.61 39.6465 266.116 40.7042 266.659 42.2734L273.183 61.0648H272.331ZM259.058 54.1248H267.026L262.909 42.2821L259.058 54.1248Z" fill="white"/>
<path d="M299 60.9911C296.889 60.6096 295.281 58.789 295.281 56.6086V45.6025L288.086 57.1895L280.891 45.6025V56.6086C280.891 58.789 279.283 60.6096 277.172 60.9911V39.6421H278.837C280.325 39.6421 281.734 40.418 282.507 41.6621L288.081 50.6179L293.656 41.6621C294.433 40.4137 295.837 39.6421 297.326 39.6421H298.991V60.9911H299Z" fill="white"/>
<path d="M115.251 59.5256C113.286 60.9951 111.223 62.1742 108.833 62.3216C107.195 62.4299 105.755 61.8447 104.642 60.3362C103.692 59.0488 102.676 57.8003 101.435 56.8077C99.995 55.5939 98.4226 54.7486 96.6205 54.5275C95.9005 54.4539 95.1805 54.5275 94.4606 54.5275C94.3943 54.5275 94.2972 54.5275 94.2 54.4885C94.5578 54.3065 94.9199 54.0854 95.2821 53.938C96.9208 53.1664 98.6213 52.6159 100.423 52.5032C102.226 52.3905 103.86 52.9063 105.172 54.4148C106.382 55.776 107.597 57.0981 108.97 58.2035C109.889 58.9014 110.869 59.4909 111.947 59.712C113.029 59.9331 114.076 59.8594 115.123 59.5646C115.154 59.5646 115.189 59.5299 115.256 59.5299" fill="white"/>
<path d="M108.453 61.5244C107.164 61.5244 106.135 60.9782 105.309 59.8598C104.416 58.6504 103.321 57.2719 101.952 56.1795C100.534 54.9875 99.1028 54.2245 97.601 53.8777C98.5992 53.5526 99.5489 53.3662 100.468 53.3099C100.605 53.3012 100.741 53.2969 100.878 53.2969C102.38 53.2969 103.577 53.8344 104.536 54.9398C105.781 56.3399 107.013 57.6837 108.44 58.8281C109.659 59.7558 110.715 60.2846 111.771 60.5014C111.885 60.523 111.996 60.5447 112.111 60.562C110.949 61.1472 109.88 61.4463 108.776 61.5114C108.661 61.52 108.555 61.5244 108.449 61.5244" fill="white"/>
<path d="M173.842 75.9463V76.9997C173.842 79.1021 173.135 80.823 171.722 82.1581C170.308 83.4932 168.462 84.1651 166.183 84.1651C163.771 84.1651 161.779 83.3979 160.211 81.8634C158.639 80.3288 157.857 78.4432 157.857 76.2107C157.857 73.9783 158.643 72.11 160.211 70.5668C161.783 69.0279 163.727 68.2563 166.05 68.2563C167.508 68.2563 168.842 68.5858 170.048 69.2403C171.253 69.8992 172.19 70.7835 172.861 71.8933L170.653 73.1417C170.237 72.4091 169.619 71.8239 168.798 71.3774C167.98 70.9309 167.062 70.7099 166.05 70.7099C164.412 70.7099 163.064 71.2344 162.009 72.2877C160.953 73.3411 160.423 74.6545 160.423 76.2324C160.423 77.8103 160.953 79.1194 162.018 80.1554C163.082 81.1915 164.478 81.7116 166.205 81.7116C167.592 81.7116 168.718 81.3952 169.588 80.758C170.458 80.1208 171.015 79.2711 171.253 78.2048H166.028V75.9463H173.842Z" fill="white"/>
<path d="M178.44 74.7625C179.049 73.4057 180.198 72.7251 181.876 72.7251V75.287C180.953 75.2306 180.149 75.443 179.464 75.9329C178.78 76.4227 178.44 77.229 178.44 78.3517V83.8743H176.028V72.9202H178.44V74.7625Z" fill="white"/>
<path d="M188.422 84.165C186.783 84.165 185.392 83.6102 184.248 82.5005C183.1 81.3907 182.53 80.0253 182.53 78.404C182.53 76.7828 183.104 75.4174 184.248 74.3076C185.392 73.1979 186.783 72.6431 188.422 72.6431C190.061 72.6431 191.47 73.1979 192.609 74.3076C193.749 75.4174 194.319 76.7828 194.319 78.404C194.319 80.0253 193.749 81.3907 192.609 82.5005C191.47 83.6102 190.074 84.165 188.422 84.165ZM185.944 80.8792C186.616 81.5381 187.441 81.8632 188.422 81.8632C189.403 81.8632 190.229 81.5338 190.9 80.8792C191.571 80.2203 191.903 79.3967 191.903 78.404C191.903 77.4114 191.567 76.5834 190.9 75.9289C190.229 75.27 189.403 74.9449 188.422 74.9449C187.441 74.9449 186.616 75.2743 185.944 75.9289C185.273 76.5878 184.941 77.4114 184.941 78.404C184.941 79.3967 185.277 80.2247 185.944 80.8792Z" fill="white"/>
<path d="M204.027 72.9247H206.439V83.8788H204.027V82.4744C203.298 83.5971 202.145 84.1606 200.564 84.1606C199.283 84.1606 198.25 83.7575 197.459 82.9555C196.668 82.1536 196.275 81.0482 196.275 79.6481V72.9204H198.687V79.4053C198.687 80.2246 198.912 80.8531 199.358 81.291C199.804 81.7288 200.414 81.9498 201.191 81.9498C202.039 81.9498 202.724 81.6898 203.245 81.1739C203.766 80.6537 204.027 79.8648 204.027 78.7984V72.9247Z" fill="white"/>
<path d="M215.573 72.6387C217.106 72.6387 218.417 73.1979 219.504 74.3162C220.591 75.4346 221.134 76.7958 221.134 78.404C221.134 80.0122 220.591 81.3907 219.504 82.5004C218.417 83.6101 217.106 84.165 215.573 84.165C213.877 84.165 212.574 83.5494 211.664 82.3227V88.2614H209.252V72.9248H211.664V74.5026C212.569 73.2629 213.872 72.6387 215.573 72.6387ZM212.667 80.9095C213.338 81.5727 214.177 81.9065 215.189 81.9065C216.2 81.9065 217.044 81.5727 217.711 80.9095C218.382 80.2463 218.713 79.4097 218.713 78.3996C218.713 77.3896 218.378 76.5574 217.711 75.8898C217.039 75.2266 216.2 74.8928 215.189 74.8928C214.177 74.8928 213.338 75.2266 212.667 75.8898C211.995 76.553 211.664 77.3896 211.664 78.3996C211.664 79.4097 212 80.2419 212.667 80.9095Z" fill="white"/>
<path d="M109.103 102.016L107.354 99.0813H105.507V102.016H104.469V94.3477H107.597C108.268 94.3477 108.838 94.5774 109.315 95.0412C109.792 95.5051 110.03 96.0643 110.03 96.7231C110.03 97.2216 109.88 97.6725 109.58 98.0799C109.279 98.4874 108.891 98.7778 108.414 98.9469L110.256 102.016H109.107H109.103ZM105.507 95.3013V98.1623H107.597C107.985 98.1623 108.312 98.0236 108.586 97.7418C108.86 97.4601 108.992 97.1219 108.992 96.7275C108.992 96.333 108.855 95.9992 108.586 95.7218C108.312 95.4444 107.985 95.3057 107.597 95.3057H105.507V95.3013Z" fill="white"/>
<path d="M113.824 99.7141C113.922 100.204 114.151 100.585 114.509 100.854C114.871 101.123 115.313 101.262 115.843 101.262C116.581 101.262 117.115 100.993 117.451 100.46L118.277 100.919C117.733 101.743 116.916 102.159 115.821 102.159C114.933 102.159 114.213 101.886 113.661 101.344C113.104 100.802 112.831 100.113 112.831 99.2806C112.831 98.4483 113.104 97.7678 113.648 97.2216C114.191 96.6754 114.893 96.3979 115.759 96.3979C116.576 96.3979 117.248 96.6797 117.764 97.2476C118.281 97.8154 118.542 98.496 118.542 99.2893C118.542 99.428 118.528 99.571 118.506 99.7184H113.829L113.824 99.7141ZM115.755 97.2953C115.233 97.2953 114.801 97.4383 114.46 97.7287C114.116 98.0192 113.904 98.4006 113.824 98.8861H117.552C117.468 98.3703 117.261 97.9758 116.925 97.7027C116.589 97.434 116.201 97.2953 115.755 97.2953Z" fill="white"/>
<path d="M122.857 94.0181H121.885V102.016H122.857V94.0181Z" fill="white"/>
<path d="M127.062 95.5439C126.876 95.5439 126.717 95.4832 126.594 95.3575C126.466 95.2318 126.404 95.0844 126.404 94.911C126.404 94.7376 126.466 94.5859 126.594 94.4559C126.722 94.3302 126.876 94.2651 127.062 94.2651C127.248 94.2651 127.393 94.3302 127.521 94.4559C127.649 94.5816 127.711 94.7333 127.711 94.911C127.711 95.0887 127.649 95.2361 127.521 95.3575C127.393 95.4832 127.243 95.5439 127.062 95.5439ZM126.572 96.5366H127.543V102.016H126.572V96.5366Z" fill="white"/>
<path d="M135.883 96.5367H136.854V102.016H135.883V101.075C135.397 101.799 134.694 102.159 133.771 102.159C132.99 102.159 132.323 101.882 131.775 101.322C131.223 100.763 130.949 100.083 130.949 99.2763C130.949 98.47 131.223 97.7938 131.775 97.2346C132.327 96.6754 132.99 96.3979 133.771 96.3979C134.694 96.3979 135.397 96.7621 135.883 97.4817V96.541V96.5367ZM133.895 101.24C134.46 101.24 134.933 101.054 135.313 100.676C135.693 100.299 135.883 99.8355 135.883 99.2806C135.883 98.7257 135.693 98.2619 135.313 97.8848C134.933 97.5077 134.46 97.3213 133.895 97.3213C133.33 97.3213 132.866 97.5077 132.49 97.8848C132.111 98.2619 131.921 98.7257 131.921 99.2806C131.921 99.8355 132.111 100.299 132.49 100.676C132.87 101.054 133.338 101.24 133.895 101.24Z" fill="white"/>
<path d="M143.643 96.398C144.425 96.398 145.092 96.6755 145.64 97.2346C146.192 97.7938 146.466 98.4744 146.466 99.2764C146.466 100.078 146.192 100.763 145.64 101.322C145.088 101.882 144.425 102.159 143.643 102.159C142.72 102.159 142.018 101.795 141.532 101.075V102.016H140.56V94.3477H141.532V97.4817C142.018 96.7578 142.72 96.398 143.643 96.398ZM143.519 101.24C144.076 101.24 144.549 101.054 144.924 100.677C145.304 100.299 145.494 99.8355 145.494 99.2807C145.494 98.7258 145.304 98.262 144.924 97.8849C144.544 97.5077 144.076 97.3213 143.519 97.3213C142.963 97.3213 142.482 97.5077 142.102 97.8849C141.722 98.262 141.532 98.7258 141.532 99.2807C141.532 99.8355 141.722 100.299 142.102 100.677C142.482 101.054 142.954 101.24 143.519 101.24Z" fill="white"/>
<path d="M150.83 94.0181H149.858V102.016H150.83V94.0181Z" fill="white"/>
<path d="M155.229 99.7141C155.326 100.204 155.556 100.585 155.913 100.854C156.276 101.123 156.717 101.262 157.247 101.262C157.985 101.262 158.519 100.993 158.855 100.46L159.681 100.919C159.138 101.743 158.321 102.159 157.225 102.159C156.337 102.159 155.617 101.886 155.065 101.344C154.509 100.802 154.235 100.113 154.235 99.2806C154.235 98.4483 154.509 97.7678 155.052 97.2216C155.595 96.6754 156.298 96.3979 157.163 96.3979C157.981 96.3979 158.652 96.6797 159.169 97.2476C159.685 97.8154 159.946 98.496 159.946 99.2893C159.946 99.428 159.933 99.571 159.911 99.7184H155.233L155.229 99.7141ZM157.159 97.2953C156.638 97.2953 156.205 97.4383 155.865 97.7287C155.52 98.0192 155.308 98.4006 155.229 98.8861H158.957C158.873 98.3703 158.665 97.9758 158.329 97.7027C157.994 97.434 157.605 97.2953 157.159 97.2953Z" fill="white"/>
<path d="M173.559 102.016L172.923 100.295H169.412L168.775 102.016H167.671L170.586 94.3477H171.757L174.672 102.016H173.568H173.559ZM169.76 99.3457H172.57L171.165 95.5571L169.76 99.3457Z" fill="white"/>
<path d="M180.211 102.159C179.372 102.159 178.669 101.881 178.113 101.331C177.556 100.78 177.274 100.095 177.274 99.2762C177.274 98.4569 177.552 97.772 178.113 97.2215C178.669 96.671 179.372 96.3936 180.211 96.3936C180.763 96.3936 181.258 96.5236 181.695 96.7837C182.132 97.0438 182.464 97.3906 182.676 97.8284L181.858 98.2879C181.717 97.9974 181.501 97.7634 181.205 97.5856C180.909 97.4122 180.578 97.3212 180.207 97.3212C179.65 97.3212 179.182 97.5076 178.806 97.8804C178.431 98.2532 178.241 98.717 178.241 99.2719C178.241 99.8267 178.431 100.282 178.806 100.65C179.182 101.023 179.65 101.21 180.207 101.21C180.578 101.21 180.913 101.123 181.209 100.954C181.505 100.785 181.735 100.551 181.889 100.26L182.715 100.733C182.477 101.166 182.137 101.509 181.686 101.769C181.24 102.029 180.745 102.159 180.202 102.159" fill="white"/>
<path d="M188.462 102.159C187.623 102.159 186.92 101.881 186.364 101.331C185.807 100.78 185.525 100.095 185.525 99.2762C185.525 98.4569 185.803 97.772 186.364 97.2215C186.92 96.671 187.623 96.3936 188.462 96.3936C189.014 96.3936 189.509 96.5236 189.946 96.7837C190.383 97.0438 190.714 97.3906 190.926 97.8284L190.109 98.2879C189.968 97.9974 189.752 97.7634 189.456 97.5856C189.16 97.4122 188.828 97.3212 188.457 97.3212C187.901 97.3212 187.433 97.5076 187.057 97.8804C186.682 98.2532 186.492 98.717 186.492 99.2719C186.492 99.8267 186.682 100.282 187.057 100.65C187.433 101.023 187.901 101.21 188.457 101.21C188.828 101.21 189.164 101.123 189.46 100.954C189.756 100.785 189.986 100.551 190.14 100.26L190.966 100.733C190.728 101.166 190.388 101.509 189.937 101.769C189.491 102.029 188.996 102.159 188.453 102.159" fill="white"/>
<path d="M194.769 99.7141C194.866 100.204 195.096 100.585 195.454 100.854C195.816 101.123 196.258 101.262 196.788 101.262C197.525 101.262 198.06 100.993 198.395 100.46L199.221 100.919C198.678 101.743 197.861 102.159 196.766 102.159C195.878 102.159 195.158 101.886 194.606 101.344C194.049 100.802 193.775 100.113 193.775 99.2806C193.775 98.4483 194.049 97.7678 194.592 97.2216C195.136 96.6754 195.838 96.3979 196.704 96.3979C197.521 96.3979 198.192 96.6797 198.709 97.2476C199.226 97.8154 199.486 98.496 199.486 99.2893C199.486 99.428 199.473 99.571 199.456 99.7184H194.778L194.769 99.7141ZM196.704 97.2953C196.183 97.2953 195.75 97.4383 195.41 97.7287C195.065 98.0192 194.853 98.4006 194.774 98.8861H198.501C198.422 98.3703 198.21 97.9758 197.879 97.7027C197.543 97.434 197.154 97.2953 196.704 97.2953Z" fill="white"/>
<path d="M203.444 98.002C203.444 98.21 203.554 98.3747 203.771 98.5005C203.992 98.6262 204.252 98.7302 204.553 98.8212C204.857 98.9079 205.162 98.9946 205.467 99.0857C205.776 99.1767 206.032 99.3414 206.244 99.5842C206.456 99.8269 206.562 100.139 206.562 100.52C206.562 101.019 206.368 101.413 205.975 101.713C205.586 102.012 205.083 102.163 204.473 102.163C203.93 102.163 203.466 102.046 203.077 101.812C202.689 101.578 202.415 101.266 202.251 100.88L203.086 100.408C203.175 100.672 203.342 100.88 203.59 101.032C203.833 101.184 204.129 101.262 204.473 101.262C204.791 101.262 205.056 101.201 205.264 101.084C205.471 100.963 205.577 100.776 205.577 100.52C205.577 100.308 205.467 100.139 205.255 100.013C205.039 99.8876 204.778 99.7792 204.473 99.6882C204.168 99.5972 203.864 99.5105 203.559 99.4194C203.254 99.3284 202.989 99.168 202.777 98.9339C202.561 98.6999 202.455 98.4008 202.455 98.0366C202.455 97.5598 202.645 97.1697 203.016 96.8662C203.391 96.5585 203.864 96.4067 204.429 96.4067C204.884 96.4067 205.286 96.5064 205.639 96.7102C205.993 96.9096 206.258 97.1913 206.439 97.5468L205.622 97.9976C205.423 97.5295 205.025 97.2954 204.429 97.2954C204.155 97.2954 203.917 97.3561 203.727 97.4818C203.532 97.6075 203.435 97.7852 203.435 98.0106" fill="white"/>
<path d="M210.445 98.002C210.445 98.21 210.555 98.3747 210.772 98.5005C210.993 98.6262 211.253 98.7302 211.554 98.8212C211.858 98.9079 212.163 98.9946 212.468 99.0857C212.777 99.1767 213.033 99.3414 213.245 99.5842C213.457 99.8269 213.563 100.139 213.563 100.52C213.563 101.019 213.369 101.413 212.976 101.713C212.587 102.012 212.084 102.163 211.474 102.163C210.931 102.163 210.467 102.046 210.078 101.812C209.69 101.578 209.416 101.266 209.252 100.88L210.087 100.408C210.175 100.672 210.343 100.88 210.591 101.032C210.834 101.184 211.13 101.262 211.474 101.262C211.792 101.262 212.057 101.201 212.265 101.084C212.472 100.963 212.578 100.776 212.578 100.52C212.578 100.308 212.468 100.139 212.256 100.013C212.039 99.8876 211.779 99.7792 211.474 99.6882C211.169 99.5972 210.864 99.5105 210.56 99.4194C210.255 99.3284 209.99 99.168 209.778 98.9339C209.562 98.6999 209.455 98.4008 209.455 98.0366C209.455 97.5598 209.645 97.1697 210.016 96.8662C210.392 96.5585 210.864 96.4067 211.43 96.4067C211.885 96.4067 212.287 96.5064 212.64 96.7102C212.993 96.9096 213.258 97.1913 213.44 97.5468L212.622 97.9976C212.424 97.5295 212.026 97.2954 211.43 97.2954C211.156 97.2954 210.918 97.3561 210.728 97.4818C210.533 97.6075 210.436 97.7852 210.436 98.0106" fill="white"/>
<path d="M224.601 102.159C223.872 102.159 223.25 101.99 222.733 101.656C222.216 101.318 221.854 100.859 221.646 100.273L222.538 99.7705C222.843 100.698 223.541 101.162 224.628 101.162C225.162 101.162 225.573 101.054 225.856 100.841C226.138 100.624 226.28 100.338 226.28 99.9786C226.28 99.6188 226.138 99.3414 225.856 99.155C225.573 98.9729 225.1 98.7778 224.438 98.5741C224.115 98.4657 223.864 98.379 223.691 98.3227C223.519 98.2663 223.303 98.1709 223.046 98.0452C222.79 97.9195 222.596 97.7852 222.472 97.6508C222.344 97.5164 222.234 97.3387 222.132 97.1176C222.031 96.8965 221.982 96.6494 221.982 96.372C221.982 95.7088 222.22 95.1799 222.697 94.7898C223.175 94.3997 223.753 94.2046 224.438 94.2046C225.056 94.2046 225.595 94.3563 226.05 94.6641C226.509 94.9719 226.854 95.375 227.083 95.8822L226.213 96.3763C225.878 95.5874 225.286 95.1929 224.438 95.1929C224.014 95.1929 223.669 95.297 223.409 95.5007C223.148 95.7044 223.02 95.9819 223.02 96.333C223.02 96.6841 223.144 96.9225 223.387 97.1002C223.634 97.2736 224.058 97.46 224.659 97.6464C224.871 97.7201 225.021 97.7721 225.114 97.8068C225.206 97.8372 225.348 97.8892 225.538 97.9542C225.727 98.0192 225.869 98.0756 225.957 98.1189C226.046 98.1623 226.169 98.223 226.319 98.3053C226.47 98.3877 226.584 98.4614 226.659 98.5351C226.735 98.6088 226.823 98.6955 226.92 98.8038C227.022 98.9122 227.092 99.0162 227.136 99.1289C227.181 99.2373 227.22 99.363 227.256 99.5061C227.291 99.6491 227.304 99.8008 227.304 99.9612C227.304 100.633 227.057 101.166 226.558 101.565C226.059 101.964 225.409 102.163 224.606 102.163" fill="white"/>
<path d="M235.507 101.327C234.932 101.881 234.239 102.159 233.417 102.159C232.596 102.159 231.907 101.881 231.337 101.327C230.767 100.772 230.484 100.087 230.484 99.2762C230.484 98.4656 230.767 97.7807 231.337 97.2258C231.907 96.671 232.6 96.3936 233.417 96.3936C234.234 96.3936 234.932 96.671 235.507 97.2258C236.081 97.7807 236.368 98.4656 236.368 99.2762C236.368 100.087 236.081 100.772 235.507 101.327ZM233.417 101.227C233.974 101.227 234.446 101.04 234.822 100.668C235.202 100.295 235.392 99.8311 235.392 99.2762C235.392 98.7214 235.202 98.2575 234.822 97.8847C234.442 97.5119 233.974 97.3255 233.417 97.3255C232.861 97.3255 232.401 97.5119 232.022 97.8847C231.642 98.2575 231.452 98.7214 231.452 99.2762C231.452 99.8311 231.642 100.295 232.022 100.668C232.401 101.04 232.865 101.227 233.417 101.227Z" fill="white"/>
<path d="M240.719 94.0181H239.747V102.016H240.719V94.0181Z" fill="white"/>
<path d="M248.289 96.5366H249.261V102.016H248.289V101.227C247.896 101.847 247.291 102.159 246.483 102.159C245.829 102.159 245.303 101.955 244.91 101.552C244.517 101.145 244.318 100.598 244.318 99.9048V96.541H245.29V99.8484C245.29 100.295 245.414 100.637 245.661 100.884C245.904 101.127 246.244 101.253 246.677 101.253C247.163 101.253 247.552 101.106 247.847 100.811C248.148 100.516 248.294 100.061 248.294 99.4453V96.541L248.289 96.5366Z" fill="white"/>
<path d="M256.001 97.4598H254.517V100.429C254.517 100.698 254.57 100.893 254.68 101.006C254.786 101.118 254.954 101.179 255.175 101.179C255.4 101.179 255.674 101.179 256.001 101.162V102.016C255.153 102.124 254.53 102.059 254.137 101.812C253.744 101.569 253.545 101.105 253.545 100.425V97.4555H252.441V96.5365H253.545V95.2881L254.517 95.002V96.5365H256.001V97.4555V97.4598Z" fill="white"/>
<path d="M259.875 95.5439C259.689 95.5439 259.53 95.4832 259.407 95.3575C259.279 95.2318 259.217 95.0844 259.217 94.911C259.217 94.7376 259.279 94.5859 259.407 94.4559C259.535 94.3302 259.689 94.2651 259.875 94.2651C260.06 94.2651 260.206 94.3302 260.33 94.4559C260.458 94.5816 260.52 94.7333 260.52 94.911C260.52 95.0887 260.458 95.2361 260.33 95.3575C260.202 95.4832 260.051 95.5439 259.875 95.5439ZM259.385 96.5366H260.356V102.016H259.385V96.5366Z" fill="white"/>
<path d="M268.784 101.327C268.21 101.881 267.516 102.159 266.695 102.159C265.873 102.159 265.184 101.881 264.614 101.327C264.044 100.772 263.762 100.087 263.762 99.2762C263.762 98.4656 264.044 97.7807 264.614 97.2258C265.184 96.671 265.877 96.3936 266.695 96.3936C267.512 96.3936 268.21 96.671 268.784 97.2258C269.358 97.7807 269.645 98.4656 269.645 99.2762C269.645 100.087 269.358 100.772 268.784 101.327ZM266.699 101.227C267.255 101.227 267.728 101.04 268.104 100.668C268.483 100.295 268.673 99.8311 268.673 99.2762C268.673 98.7214 268.483 98.2575 268.104 97.8847C267.724 97.5119 267.255 97.3255 266.699 97.3255C266.142 97.3255 265.683 97.5119 265.303 97.8847C264.923 98.2575 264.733 98.7214 264.733 99.2762C264.733 99.8311 264.923 100.295 265.303 100.668C265.683 101.04 266.147 101.227 266.699 101.227Z" fill="white"/>
<path d="M275.807 96.3979C276.46 96.3979 276.986 96.6017 277.379 97.0048C277.772 97.4123 277.971 97.9585 277.971 98.6521V102.016H276.999V98.7084C276.999 98.2619 276.876 97.9195 276.633 97.6724C276.39 97.4253 276.05 97.3039 275.617 97.3039C275.131 97.3039 274.742 97.4513 274.446 97.7504C274.15 98.0452 274 98.5003 274 99.1159V102.02H273.028V96.541H274V97.3299C274.393 96.7101 274.998 96.3979 275.807 96.3979Z" fill="white"/>
<path d="M282.392 98.002C282.392 98.21 282.503 98.3747 282.719 98.5005C282.94 98.6262 283.201 98.7302 283.501 98.8212C283.806 98.9079 284.111 98.9946 284.415 99.0857C284.72 99.1767 284.981 99.3414 285.193 99.5842C285.405 99.8269 285.511 100.139 285.511 100.52C285.511 101.019 285.316 101.413 284.923 101.713C284.535 102.012 284.031 102.163 283.421 102.163C282.878 102.163 282.414 102.046 282.026 101.812C281.637 101.578 281.363 101.266 281.2 100.88L282.039 100.408C282.127 100.672 282.295 100.88 282.543 101.032C282.785 101.184 283.081 101.262 283.426 101.262C283.744 101.262 284.009 101.201 284.217 101.084C284.424 100.963 284.53 100.776 284.53 100.52C284.53 100.308 284.42 100.139 284.208 100.013C283.991 99.8876 283.731 99.7792 283.43 99.6882C283.126 99.5972 282.821 99.5105 282.516 99.4194C282.207 99.3284 281.946 99.168 281.734 98.9339C281.518 98.6999 281.412 98.4008 281.412 98.0366C281.412 97.5598 281.602 97.1697 281.977 96.8662C282.353 96.5585 282.825 96.4067 283.391 96.4067C283.845 96.4067 284.247 96.5064 284.601 96.7102C284.954 96.9096 285.219 97.1913 285.4 97.5468L284.583 97.9976C284.384 97.5295 283.982 97.2954 283.391 97.2954C283.117 97.2954 282.883 97.3561 282.688 97.4818C282.494 97.6075 282.397 97.7852 282.397 98.0106" fill="white"/>
</g>
<defs>
<clipPath id="clip0_702_47">
<rect width="299" height="129" fill="white"/>
</clipPath>
</defs>
</svg>
