<svg width="317" height="107" viewBox="0 0 317 107" fill="none" xmlns="http://www.w3.org/2000/svg">
<path d="M99.2977 90.1445L97.2978 86.7891H95.1868V90.1445H94V81.3767H97.5756C98.3432 81.3767 98.9947 81.6394 99.5401 82.1697C100.086 82.7 100.358 83.3394 100.358 84.0928C100.358 84.6628 100.187 85.1782 99.8431 85.6441C99.4997 86.11 99.0553 86.4421 98.5099 86.6354L100.616 90.1445H99.3028H99.2977ZM95.1868 82.4671V85.7383H97.5756C98.02 85.7383 98.3937 85.5797 98.7068 85.2575C99.02 84.9354 99.1715 84.5488 99.1715 84.0977C99.1715 83.6467 99.0149 83.2651 98.7068 82.9479C98.3937 82.6307 98.02 82.472 97.5756 82.472H95.1868V82.4671Z" fill="black"/>
<path d="M104.696 87.5127C104.808 88.0727 105.07 88.5089 105.479 88.8162C105.893 89.1235 106.398 89.2821 107.004 89.2821C107.848 89.2821 108.459 88.9748 108.843 88.3652L109.787 88.8905C109.166 89.8323 108.232 90.3081 106.979 90.3081C105.964 90.3081 105.141 89.9958 104.51 89.3763C103.873 88.7567 103.56 87.9687 103.56 87.017C103.56 86.0654 103.873 85.2873 104.494 84.6628C105.116 84.0383 105.919 83.7211 106.908 83.7211C107.843 83.7211 108.61 84.0432 109.201 84.6925C109.792 85.3418 110.09 86.1199 110.09 87.027C110.09 87.1856 110.075 87.3491 110.05 87.5176H104.701L104.696 87.5127ZM106.903 84.747C106.307 84.747 105.813 84.9106 105.424 85.2427C105.03 85.5747 104.787 86.0109 104.696 86.566H108.959C108.863 85.9762 108.626 85.5252 108.242 85.2129C107.858 84.9056 107.413 84.747 106.903 84.747Z" fill="black"/>
<path d="M115.024 81H113.913V90.1445H115.024V81Z" fill="black"/>
<path d="M119.832 82.7447C119.62 82.7447 119.438 82.6753 119.297 82.5315C119.15 82.3878 119.08 82.2193 119.08 82.021C119.08 81.8228 119.15 81.6493 119.297 81.5006C119.443 81.3569 119.62 81.2825 119.832 81.2825C120.044 81.2825 120.211 81.3569 120.357 81.5006C120.504 81.6443 120.574 81.8178 120.574 82.021C120.574 82.2242 120.504 82.3927 120.357 82.5315C120.211 82.6753 120.039 82.7447 119.832 82.7447ZM119.271 83.8797H120.383V90.1445H119.271V83.8797Z" fill="black"/>
<path d="M129.917 83.8797H131.028V90.1445H129.917V89.069C129.362 89.8967 128.559 90.3081 127.503 90.3081C126.61 90.3081 125.847 89.9909 125.221 89.3515C124.589 88.7121 124.276 87.934 124.276 87.0121C124.276 86.0902 124.589 85.317 125.221 84.6776C125.852 84.0383 126.61 83.7211 127.503 83.7211C128.559 83.7211 129.362 84.1374 129.917 84.9601V83.8846V83.8797ZM127.645 89.2573C128.291 89.2573 128.832 89.0442 129.266 88.613C129.7 88.1818 129.917 87.6515 129.917 87.017C129.917 86.3826 129.7 85.8523 129.266 85.4211C128.832 84.9899 128.291 84.7768 127.645 84.7768C126.998 84.7768 126.468 84.9899 126.039 85.4211C125.605 85.8523 125.387 86.3826 125.387 87.017C125.387 87.6515 125.605 88.1818 126.039 88.613C126.473 89.0442 127.009 89.2573 127.645 89.2573Z" fill="black"/>
<path d="M138.791 83.7211C139.685 83.7211 140.447 84.0383 141.073 84.6776C141.705 85.317 142.018 86.0952 142.018 87.0121C142.018 87.929 141.705 88.7121 141.073 89.3515C140.442 89.9909 139.685 90.3081 138.791 90.3081C137.735 90.3081 136.932 89.8917 136.377 89.069V90.1445H135.266V81.3767H136.377V84.9601C136.932 84.1324 137.735 83.7211 138.791 83.7211ZM138.649 89.2573C139.286 89.2573 139.826 89.0442 140.255 88.613C140.69 88.1818 140.907 87.6515 140.907 87.017C140.907 86.3826 140.69 85.8523 140.255 85.4211C139.821 84.9899 139.286 84.7768 138.649 84.7768C138.013 84.7768 137.462 84.9899 137.028 85.4211C136.594 85.8523 136.377 86.3826 136.377 87.017C136.377 87.6515 136.594 88.1818 137.028 88.613C137.462 89.0442 138.003 89.2573 138.649 89.2573Z" fill="black"/>
<path d="M147.007 81H145.896V90.1445H147.007V81Z" fill="black"/>
<path d="M152.038 87.5127C152.149 88.0727 152.411 88.5089 152.82 88.8162C153.234 89.1235 153.739 89.2821 154.346 89.2821C155.189 89.2821 155.8 88.9748 156.184 88.3652L157.128 88.8905C156.507 89.8323 155.573 90.3081 154.32 90.3081C153.305 90.3081 152.482 89.9958 151.851 89.3763C151.214 88.7567 150.901 87.9687 150.901 87.017C150.901 86.0654 151.214 85.2873 151.836 84.6628C152.457 84.0383 153.26 83.7211 154.25 83.7211C155.184 83.7211 155.951 84.0432 156.542 84.6925C157.133 85.3418 157.431 86.1199 157.431 87.027C157.431 87.1856 157.416 87.3491 157.391 87.5176H152.043L152.038 87.5127ZM154.245 84.747C153.649 84.747 153.154 84.9106 152.765 85.2427C152.371 85.5747 152.128 86.0109 152.038 86.566H156.3C156.204 85.9762 155.967 85.5252 155.583 85.2129C155.199 84.9056 154.755 84.747 154.245 84.747Z" fill="black"/>
<path d="M172.996 90.1445L172.269 88.1768H168.254L167.527 90.1445H166.264L169.597 81.3767H170.936L174.269 90.1445H173.006H172.996ZM168.653 87.0914H171.865L170.259 82.7595L168.653 87.0914Z" fill="black"/>
<path d="M180.602 90.3081C179.642 90.3081 178.839 89.9909 178.203 89.3614C177.567 88.7319 177.243 87.9488 177.243 87.0121C177.243 86.0753 177.562 85.2922 178.203 84.6628C178.839 84.0333 179.642 83.7161 180.602 83.7161C181.233 83.7161 181.799 83.8648 182.299 84.1622C182.799 84.4596 183.177 84.8561 183.42 85.3567L182.486 85.882C182.324 85.55 182.077 85.2823 181.738 85.0791C181.4 84.8808 181.021 84.7768 180.597 84.7768C179.96 84.7768 179.425 84.9899 178.996 85.4161C178.567 85.8424 178.349 86.3727 178.349 87.0071C178.349 87.6415 178.567 88.162 178.996 88.5833C179.425 89.0095 179.96 89.2226 180.597 89.2226C181.021 89.2226 181.405 89.1235 181.743 88.9302C182.082 88.7369 182.344 88.4693 182.521 88.1372L183.465 88.6774C183.193 89.1731 182.804 89.5646 182.289 89.862C181.779 90.1594 181.213 90.3081 180.592 90.3081" fill="black"/>
<path d="M190.036 90.3081C189.076 90.3081 188.273 89.9909 187.637 89.3614C187.001 88.7319 186.677 87.9488 186.677 87.0121C186.677 86.0753 186.995 85.2922 187.637 84.6628C188.273 84.0333 189.076 83.7161 190.036 83.7161C190.667 83.7161 191.233 83.8648 191.733 84.1622C192.233 84.4596 192.611 84.8561 192.854 85.3567L191.919 85.882C191.758 85.55 191.51 85.2823 191.172 85.0791C190.834 84.8808 190.455 84.7768 190.031 84.7768C189.394 84.7768 188.859 84.9899 188.43 85.4161C188 85.8424 187.783 86.3727 187.783 87.0071C187.783 87.6415 188 88.162 188.43 88.5833C188.859 89.0095 189.394 89.2226 190.031 89.2226C190.455 89.2226 190.839 89.1235 191.177 88.9302C191.515 88.7369 191.778 88.4693 191.955 88.1372L192.899 88.6774C192.627 89.1731 192.238 89.5646 191.723 89.862C191.212 90.1594 190.647 90.3081 190.026 90.3081" fill="black"/>
<path d="M197.247 87.5127C197.359 88.0727 197.621 88.5089 198.03 88.8162C198.444 89.1235 198.949 89.2821 199.555 89.2821C200.399 89.2821 201.01 88.9748 201.394 88.3652L202.338 88.8905C201.717 89.8323 200.783 90.3081 199.53 90.3081C198.515 90.3081 197.692 89.9958 197.061 89.3763C196.424 88.7567 196.111 87.9687 196.111 87.017C196.111 86.0654 196.424 85.2873 197.045 84.6628C197.667 84.0383 198.47 83.7211 199.459 83.7211C200.394 83.7211 201.161 84.0432 201.752 84.6925C202.343 85.3418 202.641 86.1199 202.641 87.027C202.641 87.1856 202.626 87.3491 202.606 87.5176H197.258L197.247 87.5127ZM199.459 84.747C198.864 84.747 198.369 84.9106 197.98 85.2427C197.586 85.5747 197.343 86.0109 197.253 86.566H201.515C201.424 85.9762 201.182 85.5252 200.803 85.2129C200.419 84.9056 199.975 84.747 199.459 84.747Z" fill="black"/>
<path d="M207.166 85.5549C207.166 85.7928 207.292 85.9812 207.54 86.1249C207.792 86.2686 208.09 86.3876 208.434 86.4917C208.782 86.5908 209.131 86.6899 209.479 86.794C209.833 86.8981 210.126 87.0864 210.368 87.364C210.61 87.6415 210.732 87.9984 210.732 88.4346C210.732 89.0045 210.509 89.4556 210.06 89.7976C209.616 90.1396 209.04 90.313 208.343 90.313C207.722 90.313 207.191 90.1792 206.747 89.9116C206.303 89.6439 205.989 89.2871 205.803 88.8459L206.757 88.3057C206.858 88.608 207.05 88.8459 207.333 89.0194C207.611 89.1929 207.949 89.2821 208.343 89.2821C208.707 89.2821 209.01 89.2127 209.247 89.0789C209.484 88.9401 209.605 88.727 209.605 88.4346C209.605 88.1917 209.479 87.9984 209.237 87.8547C208.989 87.7109 208.691 87.587 208.343 87.4829C207.994 87.3789 207.646 87.2797 207.297 87.1756C206.949 87.0716 206.646 86.8882 206.404 86.6205C206.156 86.3529 206.035 86.0109 206.035 85.5946C206.035 85.0494 206.252 84.6033 206.676 84.2563C207.106 83.9044 207.646 83.731 208.292 83.731C208.813 83.731 209.272 83.845 209.676 84.0779C210.08 84.3059 210.383 84.6281 210.59 85.0345L209.656 85.55C209.429 85.0147 208.974 84.747 208.292 84.747C207.979 84.747 207.707 84.8164 207.489 84.9601C207.267 85.1039 207.156 85.3071 207.156 85.5648" fill="black"/>
<path d="M215.171 85.5549C215.171 85.7928 215.297 85.9812 215.545 86.1249C215.797 86.2686 216.095 86.3876 216.438 86.4917C216.787 86.5908 217.135 86.6899 217.484 86.794C217.837 86.8981 218.13 87.0864 218.373 87.364C218.615 87.6415 218.736 87.9984 218.736 88.4346C218.736 89.0045 218.514 89.4556 218.065 89.7976C217.62 90.1396 217.044 90.313 216.348 90.313C215.726 90.313 215.196 90.1792 214.752 89.9116C214.307 89.6439 213.994 89.2871 213.807 88.8459L214.762 88.3057C214.863 88.608 215.055 88.8459 215.337 89.0194C215.615 89.1929 215.954 89.2821 216.348 89.2821C216.711 89.2821 217.014 89.2127 217.252 89.0789C217.489 88.9401 217.61 88.727 217.61 88.4346C217.61 88.1917 217.484 87.9984 217.241 87.8547C216.994 87.7109 216.696 87.587 216.348 87.4829C215.999 87.3789 215.651 87.2797 215.302 87.1756C214.954 87.0716 214.651 86.8882 214.408 86.6205C214.161 86.3529 214.04 86.0109 214.04 85.5946C214.04 85.0494 214.257 84.6033 214.681 84.2563C215.11 83.9044 215.651 83.731 216.297 83.731C216.817 83.731 217.277 83.845 217.681 84.0779C218.085 84.3059 218.388 84.6281 218.595 85.0345L217.661 85.55C217.433 85.0147 216.979 84.747 216.297 84.747C215.984 84.747 215.711 84.8164 215.494 84.9601C215.272 85.1039 215.161 85.3071 215.161 85.5648" fill="black"/>
<path d="M231.357 90.3081C230.524 90.3081 229.812 90.1148 229.221 89.7331C228.63 89.3465 228.216 88.8212 227.978 88.1521L228.998 87.5771C229.347 88.6378 230.145 89.1681 231.387 89.1681C231.998 89.1681 232.468 89.0442 232.791 88.8013C233.114 88.5535 233.276 88.2264 233.276 87.815C233.276 87.4036 233.114 87.0864 232.791 86.8733C232.468 86.6651 231.928 86.4421 231.17 86.2092C230.801 86.0852 230.514 85.9861 230.317 85.9217C230.12 85.8573 229.872 85.7482 229.579 85.6045C229.286 85.4607 229.064 85.3071 228.923 85.1534C228.776 84.9998 228.65 84.7966 228.534 84.5438C228.418 84.291 228.362 84.0085 228.362 83.6913C228.362 82.933 228.635 82.3283 229.18 81.8822C229.726 81.4362 230.387 81.2131 231.17 81.2131C231.877 81.2131 232.493 81.3866 233.013 81.7385C233.539 82.0904 233.933 82.5514 234.195 83.1312L233.2 83.6963C232.816 82.7942 232.14 82.3432 231.17 82.3432C230.685 82.3432 230.291 82.4621 229.993 82.6951C229.695 82.928 229.549 83.2452 229.549 83.6467C229.549 84.0482 229.69 84.3208 229.968 84.524C230.251 84.7222 230.736 84.9354 231.423 85.1485C231.665 85.2327 231.837 85.2922 231.943 85.3319C232.049 85.3666 232.21 85.426 232.428 85.5004C232.645 85.5747 232.806 85.6392 232.907 85.6887C233.008 85.7383 233.15 85.8077 233.321 85.9019C233.493 85.996 233.624 86.0803 233.71 86.1645C233.796 86.2488 233.897 86.3479 234.008 86.4718C234.124 86.5957 234.205 86.7147 234.256 86.8436C234.306 86.9675 234.352 87.1112 234.392 87.2748C234.433 87.4383 234.448 87.6118 234.448 87.7952C234.448 88.5634 234.165 89.1731 233.594 89.6291C233.023 90.085 232.281 90.313 231.362 90.313" fill="black"/>
<path d="M243.826 89.3564C243.169 89.9909 242.377 90.3081 241.437 90.3081C240.498 90.3081 239.71 89.9909 239.059 89.3564C238.407 88.722 238.084 87.9389 238.084 87.0121C238.084 86.0852 238.407 85.3021 239.059 84.6677C239.71 84.0333 240.503 83.7161 241.437 83.7161C242.372 83.7161 243.169 84.0333 243.826 84.6677C244.483 85.3021 244.811 86.0852 244.811 87.0121C244.811 87.9389 244.483 88.722 243.826 89.3564ZM241.437 89.2425C242.074 89.2425 242.614 89.0293 243.043 88.6031C243.478 88.1768 243.695 87.6465 243.695 87.0121C243.695 86.3777 243.478 85.8473 243.043 85.4211C242.609 84.9948 242.074 84.7817 241.437 84.7817C240.801 84.7817 240.276 84.9948 239.841 85.4211C239.407 85.8473 239.19 86.3777 239.19 87.0121C239.19 87.6465 239.407 88.1768 239.841 88.6031C240.276 89.0293 240.806 89.2425 241.437 89.2425Z" fill="black"/>
<path d="M249.785 81H248.674V90.1445H249.785V81Z" fill="black"/>
<path d="M258.441 83.8797H259.553V90.1445H258.441V89.2425C257.992 89.9512 257.3 90.3081 256.376 90.3081C255.628 90.3081 255.027 90.0751 254.578 89.6142C254.129 89.1483 253.901 88.5238 253.901 87.7308V83.8846H255.012V87.6663C255.012 88.1768 255.154 88.5684 255.437 88.8509C255.714 89.1285 256.103 89.2722 256.598 89.2722C257.154 89.2722 257.598 89.1037 257.936 88.7666C258.28 88.4296 258.447 87.9092 258.447 87.2054V83.8846L258.441 83.8797Z" fill="black"/>
<path d="M267.259 84.9354H265.562V88.3305C265.562 88.6378 265.623 88.8608 265.749 88.9897C265.87 89.1185 266.062 89.1879 266.315 89.1879C266.572 89.1879 266.886 89.1879 267.259 89.1681V90.1445C266.29 90.2684 265.577 90.1941 265.128 89.9116C264.679 89.634 264.451 89.1037 264.451 88.3255V84.9304H263.189V83.8797H264.451V82.4522L265.562 82.1251V83.8797H267.259V84.9304V84.9354Z" fill="black"/>
<path d="M271.688 82.7447C271.476 82.7447 271.294 82.6753 271.153 82.5315C271.006 82.3878 270.936 82.2193 270.936 82.021C270.936 81.8228 271.006 81.6493 271.153 81.5006C271.299 81.3569 271.476 81.2825 271.688 81.2825C271.9 81.2825 272.067 81.3569 272.208 81.5006C272.355 81.6443 272.426 81.8178 272.426 82.021C272.426 82.2242 272.355 82.3927 272.208 82.5315C272.062 82.6753 271.89 82.7447 271.688 82.7447ZM271.128 83.8797H272.239V90.1445H271.128V83.8797Z" fill="black"/>
<path d="M281.875 89.3564C281.218 89.9909 280.425 90.3081 279.486 90.3081C278.547 90.3081 277.759 89.9909 277.107 89.3564C276.456 88.722 276.133 87.9389 276.133 87.0121C276.133 86.0852 276.456 85.3021 277.107 84.6677C277.759 84.0333 278.552 83.7161 279.486 83.7161C280.42 83.7161 281.218 84.0333 281.875 84.6677C282.531 85.3021 282.859 86.0852 282.859 87.0121C282.859 87.9389 282.531 88.722 281.875 89.3564ZM279.491 89.2425C280.127 89.2425 280.668 89.0293 281.097 88.6031C281.531 88.1768 281.748 87.6465 281.748 87.0121C281.748 86.3777 281.531 85.8473 281.097 85.4211C280.663 84.9948 280.127 84.7817 279.491 84.7817C278.855 84.7817 278.329 84.9948 277.895 85.4211C277.461 85.8473 277.244 86.3777 277.244 87.0121C277.244 87.6465 277.461 88.1768 277.895 88.6031C278.329 89.0293 278.86 89.2425 279.491 89.2425Z" fill="black"/>
<path d="M289.905 83.7211C290.652 83.7211 291.253 83.954 291.702 84.4149C292.152 84.8808 292.379 85.5053 292.379 86.2984V90.1445H291.268V86.3628C291.268 85.8523 291.127 85.4607 290.849 85.1782C290.571 84.8957 290.182 84.7569 289.687 84.7569C289.132 84.7569 288.687 84.9255 288.349 85.2674C288.011 85.6045 287.839 86.1249 287.839 86.8287V90.1495H286.728V83.8846H287.839V84.7867C288.288 84.0779 288.98 83.7211 289.905 83.7211Z" fill="black"/>
<path d="M297.434 85.5549C297.434 85.7928 297.561 85.9812 297.808 86.1249C298.061 86.2686 298.359 86.3876 298.702 86.4917C299.051 86.5908 299.399 86.6899 299.747 86.794C300.096 86.8981 300.394 87.0864 300.636 87.364C300.879 87.6415 301 87.9984 301 88.4346C301 89.0045 300.778 89.4556 300.328 89.7976C299.884 90.1396 299.308 90.313 298.611 90.313C297.99 90.313 297.46 90.1792 297.015 89.9116C296.571 89.6439 296.258 89.2871 296.071 88.8459L297.03 88.3057C297.131 88.608 297.323 88.8459 297.606 89.0194C297.884 89.1929 298.222 89.2821 298.616 89.2821C298.98 89.2821 299.283 89.2127 299.52 89.0789C299.758 88.9401 299.879 88.727 299.879 88.4346C299.879 88.1917 299.753 87.9984 299.51 87.8547C299.263 87.7109 298.965 87.587 298.621 87.4829C298.273 87.3789 297.924 87.2797 297.576 87.1756C297.222 87.0716 296.924 86.8882 296.682 86.6205C296.435 86.3529 296.313 86.0109 296.313 85.5946C296.313 85.0494 296.531 84.6033 296.96 84.2563C297.389 83.9044 297.929 83.731 298.576 83.731C299.096 83.731 299.556 83.845 299.96 84.0779C300.364 84.3059 300.667 84.6281 300.874 85.0345L299.939 85.55C299.712 85.0147 299.253 84.747 298.576 84.747C298.263 84.747 297.995 84.8164 297.773 84.9601C297.551 85.1039 297.44 85.3071 297.44 85.5648" fill="black"/>
<path d="M175.436 67.4568V68.6152C175.436 70.9272 174.658 72.8197 173.104 74.288C171.55 75.7562 169.519 76.4951 167.013 76.4951C164.361 76.4951 162.17 75.6514 160.446 73.9638C158.717 72.2763 157.857 70.2026 157.857 67.7476C157.857 65.2925 158.721 63.2379 160.446 61.5408C162.175 59.8485 164.312 59 166.867 59C168.47 59 169.937 59.3623 171.263 60.0821C172.589 60.8067 173.619 61.7792 174.357 62.9996L171.929 64.3725C171.472 63.5668 170.792 62.9233 169.888 62.4323C168.99 61.9413 167.98 61.6982 166.867 61.6982C165.065 61.6982 163.584 62.275 162.423 63.4334C161.262 64.5918 160.679 66.0362 160.679 67.7714C160.679 69.5066 161.262 70.9463 162.432 72.0856C163.603 73.2249 165.138 73.797 167.037 73.797C168.562 73.797 169.801 73.449 170.758 72.7482C171.715 72.0475 172.327 71.1131 172.589 69.9404H166.843V67.4568H175.436Z" fill="#474747"/>
<path d="M180.492 66.1554C181.162 64.6633 182.425 63.9148 184.271 63.9148V66.7322C183.256 66.6702 182.372 66.9038 181.619 67.4425C180.866 67.9812 180.492 68.8678 180.492 70.1025V76.1757H177.84V64.1294H180.492V66.1554Z" fill="#474747"/>
<path d="M191.47 76.4951C189.668 76.4951 188.138 75.8849 186.88 74.6646C185.617 73.4442 184.99 71.9426 184.99 70.1597C184.99 68.3768 185.622 66.8752 186.88 65.6548C188.138 64.4345 189.668 63.8243 191.47 63.8243C193.272 63.8243 194.821 64.4345 196.075 65.6548C197.328 66.8752 197.954 68.3768 197.954 70.1597C197.954 71.9426 197.328 73.4442 196.075 74.6646C194.821 75.8849 193.286 76.4951 191.47 76.4951ZM188.745 72.8817C189.483 73.6063 190.391 73.9638 191.47 73.9638C192.548 73.9638 193.456 73.6015 194.195 72.8817C194.933 72.1571 195.297 71.2514 195.297 70.1597C195.297 69.068 194.928 68.1575 194.195 67.4377C193.456 66.7131 192.548 66.3556 191.47 66.3556C190.391 66.3556 189.483 66.7179 188.745 67.4377C188.006 68.1623 187.642 69.068 187.642 70.1597C187.642 71.2514 188.011 72.1619 188.745 72.8817Z" fill="#474747"/>
<path d="M208.631 64.1341H211.283V76.1805H208.631V74.636C207.829 75.8706 206.562 76.4904 204.823 76.4904C203.414 76.4904 202.277 76.047 201.408 75.1651C200.538 74.2832 200.106 73.0676 200.106 71.5279V64.1294H202.758V71.2609C202.758 72.1619 203.006 72.8531 203.497 73.3346C203.987 73.816 204.657 74.0592 205.512 74.0592C206.445 74.0592 207.198 73.7731 207.771 73.2059C208.344 72.6338 208.631 71.7662 208.631 70.5935V64.1341Z" fill="#474747"/>
<path d="M221.328 63.8195C223.013 63.8195 224.456 64.4345 225.651 65.6644C226.846 66.8943 227.443 68.3911 227.443 70.1597C227.443 71.9283 226.846 73.4442 225.651 74.6646C224.456 75.8849 223.013 76.4951 221.328 76.4951C219.463 76.4951 218.03 75.8182 217.029 74.4691V81H214.377V64.1341H217.029V65.8693C218.025 64.506 219.458 63.8195 221.328 63.8195ZM218.132 72.9151C218.87 73.6444 219.793 74.0115 220.905 74.0115C222.018 74.0115 222.945 73.6444 223.679 72.9151C224.417 72.1857 224.782 71.2657 224.782 70.1549C224.782 69.0442 224.412 68.1289 223.679 67.3948C222.941 66.6654 222.018 66.2984 220.905 66.2984C219.793 66.2984 218.87 66.6654 218.132 67.3948C217.394 68.1242 217.029 69.0442 217.029 70.1549C217.029 71.2657 217.398 72.1809 218.132 72.9151Z" fill="#474747"/>
<path d="M89.0229 51.5517C85.3605 51.5517 82.3397 50.347 79.7887 47.8682C77.2427 45.3943 76 42.4198 76 38.7759C76 35.132 77.2376 32.1624 79.7887 29.6835C82.3397 27.2047 85.3605 26 89.0229 26C92.6853 26 95.7061 27.2047 98.2572 29.6835C100.803 32.1624 102.041 35.137 102.041 38.7759C102.041 41.805 101.081 44.5069 99.1867 46.8073C99.1614 46.837 97.3226 49.1027 94.9282 50.1983C93.0541 51.1006 91.0688 51.5517 89.0229 51.5517ZM89.0229 30.0256C86.5527 30.0256 84.4513 30.8486 82.7792 32.4747C81.1071 34.1008 80.2585 36.2227 80.2585 38.7759C80.2585 41.3291 81.1071 43.4509 82.7842 45.0771C84.4563 46.7032 86.5578 47.5261 89.033 47.5261C89.6443 47.5261 90.3262 47.4666 91.0638 47.3477C91.2002 47.3278 94.8524 46.7775 96.5801 43.4559C97.3732 42.043 97.7823 40.4565 97.7823 38.7759C97.7823 36.2227 96.9337 34.1008 95.2616 32.4747C93.5895 30.8486 91.4881 30.0256 89.0179 30.0256" fill="#231F20"/>
<path d="M116.594 51.5517C113.821 51.5517 111.523 50.8031 109.765 49.3257C108.027 47.8682 107.178 45.9397 107.178 43.441V26.6098C109.593 27.046 111.432 29.1283 111.432 31.622V42.9155C111.432 45.8901 113.265 47.5311 116.594 47.5311C119.923 47.5311 121.757 45.8901 121.757 42.9155V31.622C121.757 29.1283 123.596 27.046 126.01 26.6098V43.441C126.01 45.9397 125.167 47.8632 123.424 49.3257C121.666 50.8031 119.368 51.5517 116.594 51.5517Z" fill="#231F20"/>
<path d="M152.425 51.0263C150.238 51.0263 148.293 49.6629 147.586 47.6303L147.328 46.8866H135.639L135.432 47.5311C134.755 49.6232 132.795 51.0263 130.557 51.0263H129.587L137.033 29.5398C137.654 27.7402 139.377 26.5305 141.317 26.5305C143.257 26.5305 144.974 27.7402 145.595 29.5348L153.057 51.0263H152.425ZM136.902 43.0891H146.015L141.307 29.5447L136.902 43.0891Z" fill="#231F20"/>
<path d="M157.618 51.0263V36.1434C157.618 30.8436 162.013 26.5305 167.413 26.5305C170.889 26.5305 173.707 27.6757 176.036 30.0306C178.375 32.3954 179.512 35.256 179.512 38.7759C179.512 42.2958 178.375 45.1614 176.036 47.5212C173.707 49.8761 170.884 51.0213 167.413 51.0213H157.618V51.0263ZM167.413 30.4768C164.357 30.4768 161.872 32.9159 161.872 35.9153V47.075H167.413C169.792 47.075 171.752 46.3016 173.248 44.7796C174.733 43.2675 175.485 41.2448 175.485 38.7759C175.485 36.307 174.733 34.2843 173.248 32.7722C171.752 31.2452 169.787 30.4768 167.413 30.4768Z" fill="#231F20"/>
<path d="M194.434 51.0263V36.1434C194.434 30.8436 198.829 26.5305 204.229 26.5305C207.704 26.5305 210.523 27.6757 212.852 30.0306C215.191 32.3954 216.327 35.256 216.327 38.7759C216.327 42.2958 215.191 45.1614 212.852 47.5212C210.523 49.8761 207.699 51.0213 204.229 51.0213H194.434V51.0263ZM204.229 30.4768C201.173 30.4768 198.687 32.9159 198.687 35.9153V47.075H204.229C206.608 47.075 208.568 46.3016 210.063 44.7796C211.549 43.2675 212.301 41.2448 212.301 38.7759C212.301 36.307 211.549 34.2843 210.063 32.7722C208.568 31.2452 206.603 30.4768 204.229 30.4768Z" fill="#231F20"/>
<path d="M239.772 51.0263C237.059 51.0263 234.538 49.5935 233.184 47.2882L230.305 42.3702H225.91V51.0263H221.657V26.5255H231.452C233.77 26.5255 235.685 27.2989 237.307 28.8903C238.928 30.4817 239.716 32.3607 239.716 34.6362C239.716 36.074 239.322 37.3679 238.509 38.5925C237.696 39.817 236.609 40.7788 235.281 41.458L234.402 41.9042L239.792 51.0263H239.772ZM225.915 38.9494H231.457C232.573 38.9494 233.538 38.5181 234.321 37.6654C235.079 36.8424 235.463 35.8211 235.463 34.6362C235.463 33.4514 235.079 32.4351 234.321 31.6071C233.538 30.7544 232.573 30.3231 231.457 30.3231H225.915V38.9445V38.9494Z" fill="#231F20"/>
<path d="M245.248 51.0263V26.5305H259.978C259.594 28.7664 257.604 30.4768 255.214 30.4768H249.496V36.6887H259.054C258.791 38.8651 256.896 40.5606 254.608 40.5606H249.496V47.075H260.236V51.0213H245.243L245.248 51.0263Z" fill="#231F20"/>
<path d="M286.499 51.0263C284.518 51.0263 282.755 49.7918 282.119 47.9525L281.75 46.8866H270.061L269.743 47.8633C269.131 49.7571 267.358 51.0263 265.333 51.0263H264.009L271.455 29.5398C272.076 27.7402 273.799 26.5305 275.734 26.5305C277.669 26.5305 279.391 27.7402 280.012 29.5348L287.474 51.0263H286.499ZM271.319 43.0891H280.432L275.724 29.5447L271.319 43.0891Z" fill="#231F20"/>
<path d="M317 50.942C314.585 50.5057 312.747 48.4235 312.747 45.9298V33.3423L304.518 46.5941L296.289 33.3423V45.9298C296.289 48.4235 294.45 50.5057 292.035 50.942V26.5255H293.94C295.642 26.5255 297.253 27.4129 298.137 28.8358L304.512 39.0783L310.888 28.8358C311.777 27.408 313.383 26.5255 315.085 26.5255H316.99V50.942H317Z" fill="#231F20"/>
<path d="M106.85 49.2663C104.602 50.9469 102.243 52.2954 99.51 52.464C97.6359 52.5879 95.9891 51.9186 94.7161 50.1933C93.63 48.7209 92.4681 47.2931 91.0486 46.1578C89.4018 44.7697 87.6035 43.8029 85.5424 43.5501C84.719 43.4658 83.8956 43.5501 83.0722 43.5501C82.9964 43.5501 82.8853 43.5501 82.7742 43.5055C83.1833 43.2972 83.5976 43.0444 84.0118 42.8758C85.8859 41.9934 87.8308 41.3638 89.8918 41.2349C91.9529 41.106 93.8219 41.6959 95.3223 43.4212C96.7064 44.9779 98.0956 46.49 99.6666 47.7542C100.717 48.5524 101.839 49.2266 103.071 49.4794C104.309 49.7323 105.506 49.648 106.703 49.3109C106.739 49.3109 106.779 49.2712 106.855 49.2712" fill="#231F20"/>
<path d="M99.0755 51.5518C97.6005 51.5518 96.4235 50.9271 95.4788 49.648C94.4584 48.2648 93.2056 46.6883 91.6396 45.439C90.0181 44.0756 88.3814 43.2031 86.6638 42.8065C87.8055 42.4346 88.8916 42.2215 89.9423 42.157C90.0989 42.1471 90.2555 42.1421 90.4121 42.1421C92.1296 42.1421 93.4986 42.7569 94.5948 44.0211C96.0193 45.6224 97.4287 47.1593 99.0604 48.4681C100.455 49.529 101.662 50.1339 102.869 50.3818C103.001 50.4065 103.127 50.4313 103.258 50.4512C101.93 51.1205 100.707 51.4625 99.4443 51.5369C99.313 51.5468 99.1917 51.5518 99.0705 51.5518" fill="#231F20"/>
<path d="M52.5879 85C54.4911 83.2753 56.1004 81.4156 57.3423 79.4139C57.5628 78.8632 57.7795 78.2398 58 77.6892C57.7061 77.4814 57.4893 77.2078 57.1953 77C55.9498 79.6216 54.267 82.1013 52 84.2416C52.2205 84.5186 52.4372 84.7229 52.5842 85" fill="black"/>
<path d="M57.1985 77C55.9522 79.6216 54.2721 82.1013 52 84.2416C52.2206 84.5186 52.4375 84.7229 52.5846 85C54.489 83.2753 56.0993 81.4156 57.3419 79.4139C57.5625 78.8632 57.7794 78.2398 58 77.6892C57.7059 77.4814 57.489 77.2078 57.1949 77" fill="black"/>
<path d="M56.4612 76.7471C56.7532 76.9629 56.9686 77.2469 57.2606 77.4626C57.9141 75.3161 58.2791 73.094 58.3521 70.8756C57.9871 72.8783 57.3336 74.8846 56.4612 76.7471ZM65.9815 53.5522C65.4011 51.1899 64.5287 48.8276 63.3642 46.4654C60.8928 41.4532 56.0961 35.9412 48.9011 29.8539C41.6331 23.7702 37.3438 19.5454 36.037 17.2551C34.6571 14.9647 33.927 12.8146 33.927 10.8118C33.927 9.45271 34.073 8.30573 34.3614 7.23066C34.8688 5.22434 35.8143 3.64949 37.1978 2.43419C37.8512 1.79059 38.1433 1.28721 38.1433 0.859338C38.1433 0.287644 37.8512 0 37.3438 0C36.9788 0 36.4714 0.287644 35.8179 0.787427C34.8725 1.57485 33.6386 3.00588 32.0397 5.0122C30.2218 7.30257 29.061 9.80867 28.4769 12.5305C28.1849 13.7494 28.0425 15.0366 28.0425 16.3957C28.0425 20.6924 28.7689 24.0579 30.0795 26.564C31.4593 28.9982 33.7153 31.3604 35.9676 34.3663C36.7671 35.3695 38.585 37.3003 40.7643 39.5223C45.1266 43.8909 50.8687 49.331 52.0295 50.7621C52.829 51.6214 53.5554 52.5526 54.1395 53.5522C54.9389 54.6273 55.5924 55.8426 56.1728 56.9896C56.3188 57.2772 56.4648 57.4893 56.6072 57.7051C57.2606 58.9923 57.8447 60.2112 58.2791 61.4984C59.3706 64.5762 59.805 67.7259 59.732 70.8756C59.659 73.4536 59.1516 75.9597 58.3521 78.3939C57.6987 80.3283 56.7532 82.1153 55.6617 83.834C55.0083 84.8371 54.2819 85.7684 53.4824 86.696C52.683 87.6273 51.8105 88.5585 50.792 89.346C49.9196 90.0615 49.0471 90.777 48.1747 91.3523C47.3022 91.924 45.7763 92.8552 45.4843 92.999C43.378 94.3582 41.195 95.3613 38.8697 96.0768C37.0518 96.6485 35.2339 97.0081 33.3466 97.2202C32.0397 97.3641 30.7292 97.436 29.4224 97.3641C28.915 97.3641 28.4039 97.364 27.8965 97.2921L27.9695 97.3641C29.3494 98.511 30.8752 99.6544 32.5471 100.658L32.9815 100.945L34.073 101.661C33.781 102.232 33.4926 102.808 33.2736 103.308C32.4011 104.954 32.0361 105.886 32.0361 106.241C32.0361 106.669 32.2551 106.885 32.7625 106.957C32.9085 107.029 33.416 107.029 33.562 106.813C33.708 106.669 34.6535 104.595 35.0148 103.951C36.6867 101.089 39.5231 98.511 43.5934 96.1488C48.0287 93.5707 51.8799 90.7806 55.0047 87.7711C57.403 85.5526 59.4399 83.1904 61.1118 80.6843C64.6747 75.4563 66.635 69.6603 67 63.3573V61.3546C67 58.7765 66.708 56.1266 65.9815 53.5522ZM56.4612 76.7471C56.7532 76.9629 56.9686 77.2469 57.2606 77.4626C57.9141 75.3161 58.2791 73.094 58.3521 70.8756C57.9871 72.8783 57.3336 74.8846 56.4612 76.7471ZM34.7265 49.8272C39.1617 49.8272 43.232 51.1863 46.5028 53.5486C51.7375 57.1981 55.2237 63.2135 55.2237 70.0163C55.2237 71.7349 55.0047 73.3817 54.5703 74.9565C53.7708 78.0343 52.3179 80.7562 50.281 83.1185C46.5028 87.4151 40.976 90.1334 34.7265 90.1334C23.4612 90.1334 14.3022 81.1121 14.3022 70.0163C14.3022 63.2135 17.7191 57.2017 22.9501 53.5486C26.2939 51.1863 30.3642 49.8272 34.7265 49.8272ZM55.1507 57.7051C55.0047 57.4893 54.8586 57.2772 54.7163 56.9896C54.1359 55.8426 53.4788 54.6273 52.7523 53.5522C52.0989 52.549 51.3725 51.6178 50.646 50.7621C48.6127 48.3998 46.2838 46.5373 43.8124 44.9624C42.1405 43.9593 40.3226 43.0999 38.5047 42.4563C37.9242 42.2406 37.3402 42.0968 36.7598 41.8846C27.8198 39.3785 17.7154 41.0972 10.086 47.5404C7.97969 49.331 6.16177 51.3337 4.70524 53.5522C2.52593 56.8457 1.06941 60.4952 0.415977 64.2921C-0.96389 72.2383 1.06941 80.7598 6.81155 87.4151C11.9733 93.4305 19.0953 96.724 26.5093 97.2957C27.0167 97.3676 27.4548 97.3676 27.9622 97.3676H29.4151C30.6489 97.3676 31.8864 97.2238 33.1203 97.08C35.4456 96.7204 37.6979 96.0768 39.9539 95.1456C41.4798 94.502 43.0057 93.7146 44.3892 92.7833C44.6082 92.7114 46.0611 91.7802 47.0796 91.1365C47.879 90.5648 48.6054 89.9896 49.4049 89.346C50.0583 88.7743 50.7117 88.1271 51.3688 87.4835C51.8032 86.9837 52.3143 86.4803 52.7487 85.9805C54.3476 83.9059 55.6581 81.6119 56.5999 79.2496C56.8189 78.6779 57.0343 78.0307 57.2533 77.459C57.9068 75.3125 58.2718 73.0905 58.3448 70.872C58.4908 66.3632 57.3993 61.8507 55.147 57.6979" fill="#EC1C24"/>
<path d="M76 87.2971C71.6131 90.2835 67.0097 92.6771 61.672 92.9735C58.0157 93.1986 54.7999 92.0018 52.3146 88.9404C50.1928 86.3254 47.9278 83.7855 45.1525 81.7709C41.9367 79.306 38.4272 77.5877 34.4074 77.1375C32.7995 76.9874 31.1916 77.1375 29.5837 77.1375C29.4368 77.1375 29.2166 77.1375 29 77.0625C29.804 76.6873 30.6079 76.2409 31.4119 75.9407C35.0682 74.3725 38.8677 73.2507 42.8874 73.0294C46.9072 72.8043 50.5635 73.851 53.4857 76.9124C56.1912 79.6774 58.8931 82.3674 61.9657 84.6072C64.0105 86.0253 66.2057 87.2221 68.6176 87.6686C71.0294 88.115 73.3679 87.9687 75.7063 87.3684C75.7797 87.3684 75.8532 87.2934 76 87.2934" fill="#231F20"/>
</svg>
