<?xml version="1.0" encoding="UTF-8"?>
<svg id="Layer_1" xmlns="http://www.w3.org/2000/svg" version="1.1" viewBox="0 0 120.3 120">
  <!-- Generator: Adobe Illustrator 29.5.1, SVG Export Plug-In . SVG Version: 2.1.0 Build 141)  -->
  <defs>
    <style>
      .st0 {
        fill: #231f20;
      }

      .st1 {
        fill: #474747;
      }

      .st2 {
        fill: #ec1c24;
      }
    </style>
  </defs>
  <path d="M69.1,59.6c1.3-1.3,2.4-2.6,3.3-4.1.2-.4.3-.9.5-1.3-.2-.2-.4-.4-.6-.5-.9,1.9-2,3.7-3.6,5.3.2.2.3.4.4.6"/>
  <path d="M72.3,53.8c-.9,1.9-2,3.7-3.6,5.3.2.2.3.4.4.6,1.3-1.3,2.4-2.6,3.3-4.1.2-.4.3-.9.5-1.3-.2-.2-.4-.4-.6-.5"/>
  <path class="st2" d="M72.3,53.8c.2.2.4.4.6.5.5-1.5.7-3.1.8-4.6-.3,1.4-.7,2.8-1.3,4.1M78.9,37.6c-.4-1.7-1-3.3-1.8-5-1.7-3.5-5-7.4-10-11.6-5-4.3-8-7.2-8.9-8.8-1-1.6-1.5-3.1-1.5-4.5s.1-1.8.3-2.5c.4-1.4,1-2.5,2-3.4.5-.5.7-.8.7-1.1s-.2-.6-.6-.6-.6.2-1.1.6c-.7.6-1.5,1.6-2.6,3-1.3,1.6-2.1,3.4-2.5,5.3-.2.9-.3,1.8-.3,2.7,0,3,.5,5.4,1.4,7.1,1,1.7,2.5,3.4,4.1,5.5.6.7,1.8,2.1,3.3,3.6,3,3.1,7,6.9,7.8,7.9.6.6,1.1,1.3,1.5,2,.6.8,1,1.6,1.4,2.4.1.2.2.4.3.5.5.9.9,1.8,1.2,2.7.8,2.2,1.1,4.4,1,6.6,0,1.8-.4,3.6-1,5.3-.5,1.4-1.1,2.6-1.9,3.8-.5.7-1,1.4-1.5,2-.6.7-1.2,1.3-1.9,1.9-.6.5-1.2,1-1.8,1.4-.6.4-1.7,1.1-1.9,1.2-1.5,1-3,1.7-4.6,2.2-1.3.4-2.5.7-3.8.8-.9.1-1.8.2-2.7.1-.4,0-.7,0-1.1,0h0c1,.9,2,1.7,3.2,2.4l.3.2.8.5c-.2.4-.4.8-.6,1.2-.6,1.2-.9,1.8-.9,2.1s.2.5.5.5c.1,0,.5,0,.6-.1.1-.1.8-1.6,1-2,1.2-2,3.1-3.8,5.9-5.5,3.1-1.8,5.7-3.8,7.9-5.9,1.7-1.6,3.1-3.2,4.2-5,2.5-3.7,3.8-7.7,4.1-12.2v-1.4c0-1.8-.2-3.7-.7-5.5M72.3,53.8c.2.2.4.4.6.5.5-1.5.7-3.1.8-4.6-.3,1.4-.7,2.8-1.3,4.1M57.3,34.9c3.1,0,5.9,1,8.1,2.6,3.6,2.6,6,6.8,6,11.5s-.2,2.4-.5,3.5c-.6,2.2-1.6,4.1-3,5.7-2.6,3-6.4,4.9-10.7,4.9-7.8,0-14.1-6.3-14.1-14.1s2.4-9,6-11.5c2.3-1.7,5.1-2.6,8.1-2.6M71.4,40.5c-.1-.2-.2-.3-.3-.5-.4-.8-.9-1.7-1.4-2.4-.5-.7-1-1.4-1.5-2-1.4-1.7-3-3-4.7-4.1-1.2-.7-2.4-1.3-3.7-1.8-.4-.2-.8-.3-1.2-.4-6.2-1.8-13.2-.6-18.4,4-1.5,1.3-2.7,2.7-3.7,4.2-1.5,2.3-2.5,4.9-3,7.5-1,5.6.5,11.5,4.4,16.2,3.6,4.2,8.5,6.5,13.6,6.9.4,0,.7,0,1,0h1c.9,0,1.7-.1,2.6-.2,1.6-.3,3.2-.7,4.7-1.4,1.1-.5,2.1-1,3.1-1.7.2,0,1.2-.7,1.9-1.2.6-.4,1.1-.8,1.6-1.3.5-.4.9-.9,1.4-1.3.3-.4.7-.7,1-1.1,1.1-1.5,2-3.1,2.7-4.7.2-.4.3-.9.5-1.3.5-1.5.7-3.1.8-4.6.1-3.2-.7-6.3-2.2-9.2"/>
  <path class="st0" d="M85.3,61.4c-3,2-6.2,3.6-9.8,3.8-2.5.2-4.7-.7-6.4-2.7-1.5-1.8-3-3.5-4.9-4.8-2.2-1.7-4.6-2.8-7.4-3.1-1.1-.1-2.2,0-3.3,0s-.3,0-.4,0c.6-.3,1.1-.6,1.7-.8,2.5-1.1,5.1-1.8,7.9-2,2.8-.2,5.3.6,7.3,2.6,1.9,1.9,3.7,3.7,5.8,5.2,1.4,1,2.9,1.8,4.6,2.1,1.7.3,3.3.2,4.9-.2,0,0,.1,0,.2,0"/>
  <path class="st0" d="M6.5,93c-1.8,0-3.3-.6-4.6-1.9-1.3-1.3-1.9-2.8-1.9-4.6s.6-3.4,1.9-4.6c1.3-1.3,2.8-1.9,4.6-1.9s3.3.6,4.6,1.9c1.3,1.3,1.9,2.8,1.9,4.6s-.5,2.9-1.4,4.1c0,0-.9,1.2-2.1,1.7-.9.5-1.9.7-2.9.7M6.5,82c-1.2,0-2.3.4-3.1,1.2-.8.8-1.3,1.9-1.3,3.2s.4,2.4,1.3,3.2c.8.8,1.9,1.2,3.1,1.2s.6,0,1,0c0,0,1.9-.3,2.8-2,.4-.7.6-1.5.6-2.4,0-1.3-.4-2.4-1.3-3.2-.8-.8-1.9-1.2-3.1-1.2"/>
  <path class="st0" d="M20.3,93c-1.4,0-2.5-.4-3.4-1.1-.9-.7-1.3-1.7-1.3-3v-8.6c1.2.2,2.1,1.3,2.1,2.5v5.7c0,1.5.9,2.3,2.6,2.3s2.6-.8,2.6-2.3v-5.7c0-1.3.9-2.3,2.1-2.5v8.6c0,1.3-.4,2.3-1.3,3-.9.8-2,1.1-3.4,1.1"/>
  <path class="st0" d="M38.1,92.7c-1.1,0-2.1-.7-2.4-1.7v-.4h-6v.3c-.4,1.1-1.4,1.8-2.5,1.8h-.5l3.7-10.9c.3-.9,1.2-1.5,2.1-1.5s1.8.6,2.1,1.5l3.7,10.9h-.3ZM30.4,88.7h4.5l-2.3-6.9-2.2,6.9Z"/>
  <path class="st0" d="M40.7,92.7v-7.6c0-2.7,2.2-4.9,4.9-4.9s3.1.6,4.3,1.8c1.2,1.2,1.7,2.7,1.7,4.4s-.6,3.2-1.7,4.4c-1.2,1.2-2.6,1.8-4.3,1.8h-4.9ZM45.6,82.2c-1.5,0-2.8,1.2-2.8,2.8v5.7h2.8c1.2,0,2.2-.4,2.9-1.2.7-.8,1.1-1.8,1.1-3.1s-.4-2.3-1.1-3.1c-.7-.8-1.7-1.2-2.9-1.2"/>
  <path class="st0" d="M59.1,92.7v-7.6c0-2.7,2.2-4.9,4.9-4.9s3.1.6,4.3,1.8c1.2,1.2,1.7,2.7,1.7,4.4s-.6,3.2-1.7,4.4c-1.2,1.2-2.6,1.8-4.3,1.8h-4.9ZM64,82.2c-1.5,0-2.8,1.2-2.8,2.8v5.7h2.8c1.2,0,2.2-.4,2.9-1.2.7-.8,1.1-1.8,1.1-3.1s-.4-2.3-1.1-3.1c-.7-.8-1.7-1.2-2.9-1.2"/>
  <path class="st0" d="M81.7,92.7c-1.4,0-2.6-.7-3.3-1.9l-1.4-2.5h-2.2v4.4h-2.1v-12.5h4.9c1.2,0,2.1.4,2.9,1.2.8.8,1.2,1.8,1.2,2.9s-.2,1.4-.6,2c-.4.6-.9,1.1-1.6,1.5l-.4.2,2.7,4.6h0ZM74.8,86.5h2.8c.6,0,1-.2,1.4-.7.4-.4.6-.9.6-1.5s-.2-1.1-.6-1.5c-.4-.4-.9-.7-1.4-.7h-2.8v4.4Z"/>
  <path class="st0" d="M84.5,92.7v-12.5h7.4c-.2,1.1-1.2,2-2.4,2h-2.9v3.2h4.8c-.1,1.1-1.1,2-2.2,2h-2.6v3.3h5.4v2h-7.5Z"/>
  <path class="st0" d="M105.1,92.7c-1,0-1.9-.6-2.2-1.6l-.2-.5h-5.8l-.2.5c-.3,1-1.2,1.6-2.2,1.6h-.7l3.7-10.9c.3-.9,1.2-1.5,2.1-1.5s1.8.6,2.1,1.5l3.7,10.9h-.5ZM97.5,88.7h4.5l-2.3-6.9-2.2,6.9Z"/>
  <path class="st0" d="M120.3,92.6c-1.2-.2-2.1-1.3-2.1-2.5v-6.4l-4.1,6.7-4.1-6.7v6.4c0,1.3-.9,2.3-2.1,2.5v-12.4h1c.8,0,1.7.5,2.1,1.2l3.2,5.2,3.2-5.2c.4-.7,1.2-1.2,2.1-1.2h1v12.4Z"/>
  <path class="st0" d="M15.4,91.8c-1.1.9-2.3,1.5-3.7,1.6-.9,0-1.8-.3-2.4-1.2-.5-.7-1.1-1.5-1.8-2.1-.8-.7-1.7-1.2-2.7-1.3-.4,0-.8,0-1.2,0s0,0-.1,0c.2-.1.4-.2.6-.3.9-.4,1.9-.8,2.9-.8,1,0,2,.2,2.7,1.1.7.8,1.4,1.6,2.2,2.2.5.4,1.1.7,1.7.9.6.1,1.2,0,1.8,0,0,0,0,0,0,0"/>
  <path class="st0" d="M11.5,93c-.7,0-1.3-.3-1.8-1-.5-.7-1.1-1.5-1.9-2.1-.8-.7-1.6-1.1-2.5-1.3.6-.2,1.1-.3,1.6-.3,0,0,.2,0,.2,0,.9,0,1.5.3,2.1,1,.7.8,1.4,1.6,2.2,2.3.7.5,1.3.8,1.9,1,0,0,.1,0,.2,0-.7.3-1.3.5-1.9.6,0,0-.1,0-.2,0"/>
  <path class="st1" d="M48.8,101.3v.6c0,1.2-.4,2.2-1.2,3-.8.8-1.9,1.2-3.2,1.2s-2.5-.4-3.4-1.3c-.9-.9-1.3-2-1.3-3.3s.4-2.4,1.3-3.3c.9-.9,2-1.3,3.3-1.3s1.6.2,2.3.6,1.2.9,1.6,1.5l-1.3.7c-.2-.4-.6-.8-1.1-1-.5-.3-1-.4-1.6-.4-.9,0-1.7.3-2.3.9s-.9,1.4-.9,2.3.3,1.7.9,2.3c.6.6,1.4.9,2.4.9s1.4-.2,1.9-.6c.5-.4.8-.9.9-1.5h-3v-1.3h4.5Z"/>
  <path class="st1" d="M51.5,100.7c.3-.8,1-1.2,2-1.2v1.5c-.5,0-1,0-1.4.4-.4.3-.6.8-.6,1.4v3.2h-1.4v-6.4h1.4v1.1Z"/>
  <path class="st1" d="M57.2,106.1c-.9,0-1.7-.3-2.4-1-.7-.6-1-1.4-1-2.4s.3-1.7,1-2.4c.7-.6,1.4-1,2.4-1s1.7.3,2.4,1c.7.6,1,1.4,1,2.4s-.3,1.7-1,2.4c-.7.6-1.4,1-2.4,1M55.8,104.2c.4.4.9.6,1.4.6s1-.2,1.4-.6c.4-.4.6-.9.6-1.4s-.2-1.1-.6-1.4c-.4-.4-.9-.6-1.4-.6s-1,.2-1.4.6c-.4.4-.6.9-.6,1.4s.2,1.1.6,1.4"/>
  <path class="st1" d="M66.1,99.6h1.4v6.4h-1.4v-.8c-.4.7-1.1,1-2,1s-1.3-.2-1.8-.7c-.5-.5-.7-1.1-.7-1.9v-3.9h1.4v3.8c0,.5.1.8.4,1.1.3.3.6.4,1,.4s.9-.2,1.2-.5c.3-.3.4-.8.4-1.4v-3.4Z"/>
  <path class="st1" d="M72.7,99.4c.9,0,1.6.3,2.2,1,.6.7.9,1.4.9,2.4s-.3,1.7-.9,2.4c-.6.6-1.4,1-2.2,1s-1.7-.4-2.2-1.1v3.5h-1.4v-8.9h1.4v.9c.5-.7,1.3-1.1,2.2-1.1M71,104.2c.4.4.9.6,1.4.6s1.1-.2,1.4-.6c.4-.4.6-.9.6-1.5s-.2-1.1-.6-1.5c-.4-.4-.9-.6-1.4-.6s-1.1.2-1.4.6c-.4.4-.6.9-.6,1.5s.2,1.1.6,1.5"/>
  <path d="M11.1,119.9l-1-1.7h-1.1v1.7h-.6v-4.5h1.8c.4,0,.7.1,1,.4.3.3.4.6.4,1s0,.6-.3.8c-.2.2-.4.4-.7.5l1.1,1.8h-.7ZM9.1,116v1.7h1.2c.2,0,.4,0,.6-.2s.2-.4.2-.6,0-.4-.2-.6-.3-.2-.6-.2h-1.2Z"/>
  <path d="M13.8,118.6c0,.3.2.5.4.7s.5.2.8.2.7-.2.9-.5l.5.3c-.3.5-.8.7-1.4.7s-.9-.2-1.2-.5c-.3-.3-.5-.7-.5-1.2s.2-.9.5-1.2c.3-.3.7-.5,1.2-.5s.8.2,1.1.5c.3.3.4.7.4,1.2s0,.2,0,.2h-2.7ZM14.9,117.2c-.3,0-.5,0-.7.3s-.3.4-.4.7h2.1c0-.3-.2-.5-.4-.7s-.4-.2-.7-.2"/>
  <rect x="18.4" y="115.3" width=".6" height="4.7"/>
  <path d="M21.4,116.2c-.1,0-.2,0-.3-.1,0,0-.1-.2-.1-.3s0-.2.1-.3.2-.1.3-.1.2,0,.3.1c0,0,.1.2.1.3s0,.2-.1.3c0,0-.2.1-.3.1M21.1,116.7h.6v3.2h-.6v-3.2Z"/>
  <path d="M26.4,116.7h.6v3.2h-.6v-.5c-.3.4-.7.6-1.2.6s-.8-.2-1.1-.5-.5-.7-.5-1.2.2-.9.5-1.2.7-.5,1.1-.5.9.2,1.2.6v-.5ZM25.3,119.5c.3,0,.6-.1.8-.3.2-.2.3-.5.3-.8s-.1-.6-.3-.8c-.2-.2-.5-.3-.8-.3s-.6.1-.8.3c-.2.2-.3.5-.3.8s.1.6.3.8c.2.2.5.3.8.3"/>
  <path d="M30.8,116.6c.4,0,.8.2,1.1.5s.5.7.5,1.2-.2.9-.5,1.2-.7.5-1.1.5-.9-.2-1.2-.6v.5h-.6v-4.5h.6v1.8c.3-.4.7-.6,1.2-.6M30.8,119.5c.3,0,.6-.1.8-.3.2-.2.3-.5.3-.8s-.1-.6-.3-.8c-.2-.2-.5-.3-.8-.3s-.6.1-.8.3c-.2.2-.3.5-.3.8s.1.6.3.8c.2.2.5.3.8.3"/>
  <rect x="34.4" y="115.3" width=".6" height="4.7"/>
  <path d="M37.4,118.6c0,.3.2.5.4.7s.5.2.8.2.7-.2.9-.5l.5.3c-.3.5-.8.7-1.4.7s-.9-.2-1.2-.5c-.3-.3-.5-.7-.5-1.2s.2-.9.5-1.2c.3-.3.7-.5,1.2-.5s.8.2,1.1.5c.3.3.4.7.4,1.2s0,.2,0,.2h-2.7ZM38.5,117.2c-.3,0-.5,0-.7.3s-.3.4-.4.7h2.1c0-.3-.2-.5-.4-.7s-.4-.2-.7-.2"/>
  <path d="M47.9,119.9l-.4-1h-2l-.4,1h-.6l1.7-4.5h.7l1.7,4.5h-.6ZM45.7,118.4h1.6l-.8-2.2-.8,2.2Z"/>
  <path d="M51.7,120c-.5,0-.9-.2-1.2-.5-.3-.3-.5-.7-.5-1.2s.2-.9.5-1.2c.3-.3.7-.5,1.2-.5s.6,0,.8.2c.3.2.4.4.6.6l-.5.3c0-.2-.2-.3-.4-.4-.2-.1-.4-.2-.6-.2-.3,0-.6.1-.8.3-.2.2-.3.5-.3.8s.1.6.3.8c.2.2.5.3.8.3s.4,0,.6-.1c.2,0,.3-.2.4-.4l.5.3c-.1.3-.3.5-.6.6-.3.2-.5.2-.8.2"/>
  <path d="M56.4,120c-.5,0-.9-.2-1.2-.5-.3-.3-.5-.7-.5-1.2s.2-.9.5-1.2c.3-.3.7-.5,1.2-.5s.6,0,.8.2c.3.2.4.4.6.6l-.5.3c0-.2-.2-.3-.4-.4-.2-.1-.4-.2-.6-.2-.3,0-.6.1-.8.3-.2.2-.3.5-.3.8s.1.6.3.8c.2.2.5.3.8.3s.4,0,.6-.1c.2,0,.3-.2.4-.4l.5.3c-.1.3-.3.5-.6.6-.3.2-.5.2-.8.2"/>
  <path d="M60,118.6c0,.3.2.5.4.7s.5.2.8.2.7-.2.9-.5l.5.3c-.3.5-.8.7-1.4.7s-.9-.2-1.2-.5c-.3-.3-.5-.7-.5-1.2s.2-.9.5-1.2c.3-.3.7-.5,1.2-.5s.8.2,1.1.5c.3.3.4.7.4,1.2s0,.2,0,.2h-2.7ZM61.1,117.2c-.3,0-.5,0-.7.3s-.3.4-.4.7h2.1c0-.3-.2-.5-.4-.7s-.4-.2-.7-.2"/>
  <path d="M65,117.6c0,.1,0,.2.2.3.1,0,.3.1.4.2.2,0,.3.1.5.2.2,0,.3.1.4.3.1.1.2.3.2.5s-.1.5-.3.7c-.2.2-.5.3-.9.3s-.6,0-.8-.2c-.2-.1-.4-.3-.5-.5l.5-.3c0,.2.1.3.3.4.1,0,.3.1.5.1s.3,0,.5-.1c.1,0,.2-.2.2-.3s0-.2-.2-.3c-.1,0-.3-.1-.4-.2-.2,0-.3-.1-.5-.2-.2,0-.3-.1-.4-.3-.1-.1-.2-.3-.2-.5s.1-.5.3-.7c.2-.2.5-.3.8-.3s.5,0,.7.2c.2.1.4.3.5.5l-.5.3c-.1-.3-.3-.4-.7-.4s-.3,0-.4.1c-.1,0-.2.2-.2.3"/>
  <path d="M69,117.6c0,.1,0,.2.2.3.1,0,.3.1.4.2.2,0,.3.1.5.2.2,0,.3.1.4.3.1.1.2.3.2.5s-.1.5-.3.7c-.2.2-.5.3-.9.3s-.6,0-.8-.2c-.2-.1-.4-.3-.5-.5l.5-.3c0,.2.1.3.3.4.1,0,.3.1.5.1s.3,0,.5-.1c.1,0,.2-.2.2-.3s0-.2-.2-.3c-.1,0-.3-.1-.4-.2-.2,0-.3-.1-.5-.2-.2,0-.3-.1-.4-.3-.1-.1-.2-.3-.2-.5s.1-.5.3-.7c.2-.2.5-.3.8-.3s.5,0,.7.2c.2.1.4.3.5.5l-.5.3c-.1-.3-.3-.4-.7-.4s-.3,0-.4.1c-.1,0-.2.2-.2.3"/>
  <path d="M77,120c-.4,0-.8,0-1.1-.3-.3-.2-.5-.5-.6-.8l.5-.3c.2.5.6.8,1.2.8s.5,0,.7-.2c.2-.1.2-.3.2-.5s0-.4-.2-.5c-.2-.1-.4-.2-.8-.3-.2,0-.3-.1-.4-.1,0,0-.2,0-.4-.2-.1,0-.3-.2-.3-.2,0,0-.1-.2-.2-.3,0-.1,0-.3,0-.4,0-.4.1-.7.4-.9.3-.2.6-.3,1-.3s.7,0,.9.3c.3.2.5.4.6.7l-.5.3c-.2-.5-.5-.7-1-.7s-.4,0-.6.2c-.1.1-.2.3-.2.5s0,.3.2.4c.1.1.4.2.7.3.1,0,.2,0,.3,0,0,0,.1,0,.2,0,.1,0,.2,0,.2,0,0,0,.1,0,.2.1,0,0,.2,0,.2.1,0,0,0,0,.1.2,0,0,0,.1.1.2,0,0,0,.1,0,.2,0,0,0,.2,0,.3,0,.4-.1.7-.4.9-.3.2-.7.3-1.1.3"/>
  <path d="M83.3,119.5c-.3.3-.7.5-1.2.5s-.9-.2-1.2-.5-.5-.7-.5-1.2.2-.9.5-1.2c.3-.3.7-.5,1.2-.5s.9.2,1.2.5c.3.3.5.7.5,1.2s-.2.9-.5,1.2M82.1,119.5c.3,0,.6-.1.8-.3s.3-.5.3-.8-.1-.6-.3-.8c-.2-.2-.5-.3-.8-.3s-.6.1-.8.3c-.2.2-.3.5-.3.8s.1.6.3.8c.2.2.5.3.8.3"/>
  <rect x="85.7" y="115.3" width=".6" height="4.7"/>
  <path d="M90.6,116.7h.6v3.2h-.6v-.5c-.2.4-.6.5-1,.5s-.7-.1-.9-.4c-.2-.2-.3-.6-.3-1v-2h.6v1.9c0,.3,0,.5.2.6.1.1.3.2.6.2s.5,0,.7-.3c.2-.2.3-.4.3-.8v-1.7Z"/>
  <path d="M95,117.3h-.8v1.7c0,.2,0,.3,0,.3,0,0,.2,0,.3.1.1,0,.3,0,.5,0v.5c-.5,0-.8,0-1.1-.1-.2-.1-.3-.4-.3-.8v-1.7h-.6v-.5h.6v-.7l.6-.2v.9h.8v.5Z"/>
  <path d="M97.2,116.2c-.1,0-.2,0-.3-.1,0,0-.1-.2-.1-.3s0-.2.1-.3c0,0,.2-.1.3-.1s.2,0,.3.1c0,0,.1.2.1.3s0,.2-.1.3c0,0-.2.1-.3.1M96.9,116.7h.6v3.2h-.6v-3.2Z"/>
  <path d="M102.3,119.5c-.3.3-.7.5-1.2.5s-.9-.2-1.2-.5c-.3-.3-.5-.7-.5-1.2s.2-.9.5-1.2c.3-.3.7-.5,1.2-.5s.9.2,1.2.5c.3.3.5.7.5,1.2s-.2.9-.5,1.2M101.1,119.5c.3,0,.6-.1.8-.3s.3-.5.3-.8-.1-.6-.3-.8c-.2-.2-.5-.3-.8-.3s-.6.1-.8.3c-.2.2-.3.5-.3.8s.1.6.3.8c.2.2.5.3.8.3"/>
  <path d="M106.3,116.6c.4,0,.7.1.9.4s.3.6.3,1v2h-.6v-1.9c0-.3,0-.5-.2-.6-.1-.1-.3-.2-.6-.2s-.5,0-.7.3c-.2.2-.3.4-.3.8v1.7h-.6v-3.2h.6v.5c.2-.4.6-.5,1-.5"/>
  <path d="M110,117.6c0,.1,0,.2.2.3.1,0,.3.1.4.2.2,0,.3.1.5.2.2,0,.3.1.4.3.1.1.2.3.2.5s-.1.5-.3.7c-.2.2-.5.3-.9.3s-.6,0-.8-.2c-.2-.1-.4-.3-.5-.5l.5-.3c0,.2.1.3.3.4.1,0,.3.1.5.1s.3,0,.5-.1c.1,0,.2-.2.2-.3s0-.2-.2-.3c-.1,0-.3-.1-.4-.2-.2,0-.3-.1-.5-.2-.2,0-.3-.1-.4-.3-.1-.1-.2-.3-.2-.5s.1-.5.3-.7c.2-.2.5-.3.8-.3s.5,0,.7.2c.2.1.4.3.5.5l-.5.3c-.1-.3-.3-.4-.7-.4s-.3,0-.4.1c-.1,0-.2.2-.2.3"/>
</svg>