<svg width="59" height="59" viewBox="0 0 59 59" fill="none" xmlns="http://www.w3.org/2000/svg">
<path d="M29.1428 58.2855C45.2379 58.2855 58.2855 45.2379 58.2855 29.1428C58.2855 13.0477 45.2379 0 29.1428 0C13.0477 0 0 13.0477 0 29.1428C0 45.2379 13.0477 58.2855 29.1428 58.2855Z" fill="#2AB540"/>
<path d="M10.4503 28.9731C10.449 32.2798 11.313 35.5082 12.956 38.3538L10.293 48.0765L20.2436 45.4672C22.985 46.9626 26.0715 47.7501 29.2131 47.7514H29.2209C39.5653 47.7514 47.9862 39.333 47.9908 28.9873C47.9927 23.9735 46.0414 19.2588 42.4983 15.7125C38.9546 12.1661 34.2419 10.2116 29.2209 10.2097C18.8745 10.2097 10.4549 18.6267 10.4503 28.9731ZM16.376 37.8636L16.0043 37.2736C14.4423 34.7906 13.6178 31.9204 13.6191 28.9737C13.6224 20.3747 20.6205 13.3784 29.2261 13.3784C33.3935 13.3804 37.3096 15.0046 40.2556 17.9519C43.201 20.8999 44.822 24.8186 44.8213 28.9854C44.8174 37.5851 37.8193 44.5819 29.2202 44.5819H29.2144C26.4147 44.58 23.6689 43.8288 21.274 42.4079L20.7041 42.0698L14.7991 43.6183L16.376 37.8636Z" fill="white"/>
<path d="M24.5304 21.1278C24.1787 20.3468 23.8096 20.3313 23.4747 20.3177C23.2015 20.306 22.8887 20.3066 22.5759 20.3066C22.2631 20.3066 21.7547 20.4239 21.3253 20.8934C20.8953 21.3629 19.6836 22.4975 19.6836 24.8043C19.6836 27.1118 21.3642 29.3416 21.5986 29.655C21.833 29.9678 24.8432 34.8541 29.6096 36.7341C33.5717 38.2962 34.3774 37.9859 35.2374 37.9076C36.0975 37.8292 38.0125 36.7736 38.403 35.6785C38.7941 34.5834 38.7941 33.645 38.6769 33.4487C38.5597 33.2532 38.2469 33.1359 37.778 32.9015C37.3091 32.6671 35.003 31.5324 34.5736 31.3757C34.1436 31.2196 33.8308 31.1413 33.518 31.6108C33.2052 32.0797 32.3069 33.1359 32.0337 33.4487C31.7604 33.7622 31.4864 33.801 31.0175 33.5666C30.5487 33.3315 29.0378 32.8367 27.2458 31.2391C25.8515 29.9956 24.9105 28.4608 24.6366 27.9913C24.3633 27.5224 24.6074 27.2685 24.8425 27.0347C25.053 26.8249 25.3114 26.4869 25.5465 26.2136C25.7803 25.9396 25.8586 25.744 26.0147 25.4312C26.1714 25.1184 26.0931 24.8445 25.9758 24.6094C25.8586 24.3743 24.9474 22.0552 24.5304 21.1278Z" fill="white"/>
</svg>
