<svg id="er915QK0PAv1" xmlns="http://www.w3.org/2000/svg" xmlns:xlink="http://www.w3.org/1999/xlink" viewBox="0 0 41 42" shape-rendering="geometricPrecision" text-rendering="geometricPrecision" project-id="d74c756ffbd04f36bf693640e3643dd2" export-id="eabbaa289be94042b922acf592aa7be3" cached="false">
<style><![CDATA[
#er915QK0PAv2_tr {animation: er915QK0PAv2_tr__tr 3000ms linear infinite normal forwards}@keyframes er915QK0PAv2_tr__tr { 0% {transform: translate(20.499512px,21.00355px) rotate(0deg)} 16.666667% {transform: translate(20.499512px,21.00355px) rotate(1deg)} 33.333333% {transform: translate(20.499512px,21.00355px) rotate(0deg)} 100% {transform: translate(20.499512px,21.00355px) rotate(0deg)}} #er915QK0PAv2 {animation: er915QK0PAv2_s_do 3000ms linear infinite normal forwards}@keyframes er915QK0PAv2_s_do { 0% {stroke-dashoffset: 129.5} 16.666667% {stroke-dashoffset: 259} 100% {stroke-dashoffset: 259}} #er915QK0PAv3 {animation: er915QK0PAv3_s_do 3000ms linear infinite normal forwards}@keyframes er915QK0PAv3_s_do { 0% {stroke-dashoffset: 75.14} 16.666667% {stroke-dashoffset: 75.14} 33.333333% {stroke-dashoffset: 150.28} 100% {stroke-dashoffset: 150.28}} #er915QK0PAv4 {animation: er915QK0PAv4_s_do 3000ms linear infinite normal forwards}@keyframes er915QK0PAv4_s_do { 0% {stroke-dashoffset: 19.21} 33.333333% {stroke-dashoffset: 19.21} 50% {stroke-dashoffset: 0} 100% {stroke-dashoffset: 0}}
]]></style>
<g id="er915QK0PAv2_tr" transform="translate(20.499512,21.00355) rotate(0)"><path id="er915QK0PAv2" d="M19.1897,40.5894c.3824.269.8371.4106,1.3062.4106v.0071c.4691,0,.9238-.1416,1.3135-.4177l3.7961-2.6124c.267-.1912.5845-.2974.9165-.2974h.0144l4.6405-.0708c.9598-.007,1.8114-.6159,2.1145-1.515l1.5011-4.3044c.1011-.3115.3031-.5876.5774-.7788l3.7167-2.7327c.7722-.5593,1.0969-1.5363.8083-2.4425l-1.364-4.3469c-.1083-.3115-.1083-.6513,0-.9628l1.364-4.354c.2886-.8991-.0361-1.8761-.8155-2.4425l-3.7095-2.7327c-.2743-.1912-.4763-.4673-.5774-.7788L33.2914,5.90619c-.3031-.89203-1.1547-1.50088-2.1217-1.50796l-4.6333-.0708h-.0144c-.332,0-.6495-.10619-.9165-.29734L21.8094,1.41062C21.4269,1.14159,20.9722,1,20.5031,1s-.9237.14159-1.3134.4177L15.3936,4.03009c-.267.19115-.5846.29734-.9166.29734h-.0144l-4.64045.0708c-.95985.00708-1.81144.61593-2.11455,1.51504L6.20649,10.2177c-.10104.3115-.30311.5876-.57735.7788L1.91245,13.7292c-.77221.5593-1.096967,1.5363-.80829,2.4425l1.36399,4.3398c.10825.3115.10825.6513,0,.9628l-1.36399,4.354c-.288677.8991.03608,1.8761.81551,2.4425l3.70947,2.7327c.27424.1912.47631.4673.57735.7788L7.7076,36.0938c.30311.892,1.1547,1.5009,2.12176,1.508l4.63324.0708h.0144c.332,0,.6496.1062.9166.2973l3.7961,2.6195Z" transform="translate(-20.499512,-21.00355)" fill="none" stroke="#ec1c24" stroke-width="2" stroke-dashoffset="129.5" stroke-dasharray="129.5"/></g><path id="er915QK0PAv3" d="M9,20.8442c0,6.5346,5.4199,11.8443,12.0738,11.8443c6.6612,0,12.0739-5.3097,12.0739-11.8443s-5.4127-11.8442-12.0739-11.8442C14.4127,9,9,14.3097,9,20.8442Z" fill="none" stroke="#ec1c24" stroke-width="2" stroke-dashoffset="75.14" stroke-dasharray="75.14"/><path id="er915QK0PAv4" d="M14,19.4892l4.2606,5.362c.0607.0669.1442.119.2428.119h-.0076c.0076,0,.0228,0,.0228,0c.0834,0,.1669-.0297.2351-.0892L27.5241,17" fill="none" stroke="#ec1c24" stroke-width="2" stroke-linecap="round" stroke-dashoffset="19.21" stroke-dasharray="19.21"/></svg>
