<svg width="29" height="44" viewBox="0 0 29 44" fill="none" xmlns="http://www.w3.org/2000/svg">
<path d="M10.9727 43.3974C10.7955 43.3974 10.6601 43.2152 10.6184 43.033L10.2015 39.5821L9.79514 39.4964C8.75307 39.2713 8.02362 38.3711 8.02362 37.3101C8.02362 36.5278 8.41961 35.7883 9.02401 35.4454L9.39915 35.231L9.31578 34.8023C9.08653 33.6342 8.40918 32.5732 7.49216 31.9409C4.07418 29.5295 2.18803 25.5857 2.44855 21.3846V21.3524C2.49023 18.223 3.73029 15.2115 5.92906 12.8752C8.13825 10.5389 11.0248 9.17785 14.0676 9.03852C14.276 9.02781 14.4949 9.01709 14.7033 9.01709C17.9441 9.01709 20.9974 10.3246 23.2899 12.6823C25.5825 15.0508 26.8434 18.1909 26.8434 21.5239C26.8434 25.5642 24.853 29.4224 21.5184 31.8337C20.4763 32.5839 19.8094 33.6878 19.6948 34.8452L19.6635 35.2203L19.9657 35.4132C20.6118 35.8312 20.9974 36.5278 20.9974 37.2994C20.9974 38.2104 20.32 39.0784 19.3509 39.4107L18.9966 39.5286L18.5798 43.033C18.5381 43.2152 18.4026 43.3974 18.2255 43.3974H10.9727ZM11.1915 42.7865H17.9129L18.2151 39.6786H10.8893L11.1915 42.7865ZM10.139 35.8526C9.30536 35.8526 8.62802 36.5492 8.62802 37.4066C8.62802 38.2639 9.30536 38.9605 10.139 38.9605H18.6006C19.4343 38.9605 20.1116 38.2639 20.1116 37.4066C20.1116 36.5492 19.4343 35.8526 18.6006 35.8526H10.139ZM7.95067 31.3943C9.12821 32.2624 9.86808 33.4413 10.0348 34.7059L10.0973 35.2203H18.7361L18.7986 34.6952C18.9653 33.3341 19.6948 32.1659 20.8619 31.3943H20.8723C23.9985 29.1759 25.8638 25.5214 25.8638 21.6203C25.8638 15.1151 20.6952 9.83159 14.349 9.83159C14.1718 9.83159 14.0051 9.83159 13.8279 9.8423C7.92983 10.1424 3.05295 15.383 2.95916 21.5132C2.95916 25.4892 4.82447 29.1652 7.95067 31.3836V31.3943Z" stroke="#EC1C24" stroke-width="0.9"/>
<path d="M21.5705 21.9957C21.3308 21.9957 21.2266 21.8778 21.2266 21.6421C21.2266 17.7732 18.1942 14.6331 14.4636 14.6331C14.349 14.6331 14.2448 14.6331 14.1301 14.6331C13.9634 14.6331 13.7029 14.5474 13.7029 14.2794C13.7029 14.1401 13.8175 13.9258 14.0468 13.9258H14.0676C14.1718 13.9258 14.276 13.9258 14.3802 13.9258C18.5381 13.9258 21.9248 17.3874 21.9248 21.6528C21.9248 21.8993 21.8102 22.0064 21.5809 22.0064L21.5705 21.9957Z" stroke="#EC1C24" stroke-width="0.9"/>
<path d="M14.4114 5.83432C14.1718 5.83432 14.0676 5.71643 14.0676 5.48066V1.75112C14.0676 1.50463 14.1822 1.39746 14.4114 1.39746C14.6407 1.39746 14.7553 1.51535 14.7553 1.75112V5.48066C14.7553 5.72715 14.6407 5.83432 14.4114 5.83432Z" stroke="#EC1C24" stroke-width="0.9"/>
<path d="M8.64883 6.89547C8.54462 6.89547 8.45084 6.87404 8.33621 6.67041L6.92942 3.20881L6.90857 3.17665C6.90857 3.17665 6.86689 3.09092 6.88773 3.00518C6.91899 2.91944 6.99194 2.83371 7.08573 2.79084L7.12741 2.76941L7.16909 2.74797C7.16909 2.74797 7.23162 2.71582 7.26288 2.71582C7.36708 2.71582 7.49213 2.81227 7.53382 2.93016L8.95103 6.42392L8.97187 6.45607C8.97187 6.45607 9.01355 6.54181 8.99271 6.62755C8.96145 6.71328 8.8885 6.79902 8.79472 6.84189L8.68009 6.88476C8.68009 6.88476 8.64883 6.88476 8.63841 6.88476L8.64883 6.89547Z" stroke="#EC1C24" stroke-width="0.9"/>
<path d="M3.82405 10.2386C3.74069 10.2386 3.65732 10.1958 3.58438 10.1315L0.979206 7.45221C0.906261 7.37719 0.875 7.29145 0.875 7.20571C0.875 7.11998 0.916682 7.03424 0.979206 6.95922C1.04173 6.8842 1.13552 6.85205 1.21888 6.85205C1.30225 6.85205 1.38561 6.89492 1.45856 6.95922L4.06373 9.63849C4.13668 9.7135 4.16794 9.79924 4.16794 9.88498C4.16794 9.97071 4.12626 10.0565 4.06373 10.1315C4.00121 10.2065 3.90742 10.2386 3.82405 10.2386Z" stroke="#EC1C24" stroke-width="0.9"/>
<path d="M24.9364 10.4429C24.8218 10.4429 24.7488 10.4108 24.7384 10.3786L24.7176 10.3465L24.6863 10.3143C24.5404 10.1643 24.5404 9.97137 24.6863 9.82133L27.2915 7.23852C27.3644 7.1635 27.4478 7.13135 27.5311 7.13135C27.6145 7.13135 27.6979 7.17422 27.7708 7.23852C27.8438 7.30282 27.875 7.39927 27.875 7.48501C27.875 7.57075 27.8333 7.65648 27.7708 7.7315L25.2073 10.3679C25.1344 10.4108 25.0406 10.4322 24.9468 10.4322L24.9364 10.4429Z" stroke="#EC1C24" stroke-width="0.9"/>
<path d="M20.0803 7.07724C20.0803 7.07724 20.0595 7.07724 20.0387 7.07724L19.924 7.02365C19.8407 6.9915 19.799 6.91648 19.7781 6.8629C19.7469 6.76644 19.7469 6.65927 19.7781 6.56282L21.1745 3.12264C21.2266 2.99404 21.3621 2.95117 21.4767 2.95117C21.5288 2.95117 21.5809 2.95117 21.633 2.98332C21.7164 3.01547 21.7581 3.09049 21.7789 3.14408C21.8102 3.24053 21.8102 3.3477 21.7789 3.44416L20.3721 6.91648V6.95935C20.3409 7.03437 20.2054 7.07724 20.0908 7.07724H20.0803Z" stroke="#EC1C24" stroke-width="0.9"/>
</svg>
