<svg width="44" height="44" viewBox="0 0 44 44" fill="none" xmlns="http://www.w3.org/2000/svg">
<path d="M21.875 43.3979C21.3698 43.3979 20.8802 43.2493 20.4683 42.9668L16.3802 40.2164C16.0926 40.0156 15.7506 39.9041 15.3931 39.9041C15.3931 39.9041 15.3854 39.9041 15.3776 39.9041L10.388 39.8298C9.3465 39.8224 8.4294 39.1831 8.10298 38.2464L6.4864 33.7194C6.37759 33.3923 6.15997 33.1024 5.86464 32.9017L1.86982 30.0323C1.03044 29.4376 0.680699 28.4118 0.99158 27.4677L2.46049 22.896C2.57707 22.5689 2.57707 22.2121 2.46049 21.885L0.99158 17.3282C0.680699 16.3767 1.03044 15.3509 1.86205 14.7636L5.86464 11.8942C6.15997 11.6935 6.37759 11.4036 6.4864 11.0765L8.10298 6.55689C8.4294 5.61282 9.3465 4.97352 10.3802 4.96609L15.3776 4.89175C15.3776 4.89175 15.3854 4.89175 15.3931 4.89175C15.7506 4.89175 16.0926 4.78025 16.3802 4.57954L20.4683 1.83653C20.888 1.54662 21.3776 1.39795 21.8828 1.39795C22.388 1.39795 22.8776 1.54662 23.2895 1.8291L27.3776 4.57954C27.6652 4.78025 28.0071 4.89175 28.3646 4.89175C28.3646 4.89175 28.3724 4.89175 28.3802 4.89175L33.3698 4.96609C34.4113 4.97352 35.3284 5.61282 35.6548 6.54945L37.2714 11.0765C37.3802 11.4036 37.5978 11.6935 37.8931 11.8942L41.888 14.7636C42.7273 15.3583 43.0771 16.3841 42.7662 17.3282L41.2973 21.8999C41.1807 22.227 41.1807 22.5838 41.2973 22.9109L42.7662 27.4751C43.0771 28.4266 42.7273 29.4525 41.8957 30.0397L37.8931 32.9091C37.5978 33.1098 37.3802 33.3997 37.2714 33.7268L35.6548 38.2464C35.3284 39.1905 34.4113 39.8298 33.3776 39.8372L28.3802 39.9116C28.3802 39.9116 28.3724 39.9116 28.3646 39.9116C28.0071 39.9116 27.6652 40.0231 27.3776 40.2238L23.2895 42.9668C22.8698 43.2567 22.3802 43.4054 21.875 43.4054V43.3979ZM20.8646 42.387C21.1522 42.5877 21.5175 42.7066 21.875 42.7066C22.2325 42.7066 22.5978 42.5951 22.8854 42.387L26.9812 39.6291C27.3776 39.3541 27.8439 39.2128 28.3335 39.2054L33.3465 39.131C34.0926 39.131 34.7455 38.6776 34.9709 37.9937L36.5952 33.4592C36.7506 33.0132 37.0382 32.6341 37.4346 32.359L41.4372 29.4822C42.0434 29.0659 42.2921 28.3151 42.0589 27.6461L40.5823 23.067C40.4346 22.621 40.4346 22.1526 40.5823 21.7066L42.0589 17.1275C42.2921 16.451 42.0356 15.7002 41.4372 15.2914L37.4346 12.4146C37.0382 12.1395 36.7506 11.753 36.5952 11.3144L34.9709 6.78733C34.7455 6.10344 34.0926 5.64998 33.3465 5.64998L28.3335 5.57565C27.8439 5.57565 27.3776 5.42698 26.9812 5.15193L22.8854 2.39406C22.5978 2.19335 22.2325 2.07441 21.875 2.07441C21.5175 2.07441 21.1522 2.18591 20.8646 2.39406L16.7688 5.1445C16.3724 5.41954 15.8983 5.56078 15.4087 5.56821L10.3957 5.64255C9.64961 5.64255 8.99676 6.096 8.77137 6.7799L7.14702 11.307C6.99158 11.753 6.70402 12.1321 6.30764 12.4072L2.30505 15.284C1.69883 15.7002 1.45013 16.451 1.68329 17.1201L3.15997 21.6992C3.30764 22.1452 3.30764 22.6135 3.15997 23.0595L1.68329 27.6387C1.45013 28.3151 1.70661 29.0659 2.30505 29.4748L6.30764 32.3516C6.70402 32.6266 6.99158 33.0132 7.14702 33.4518L8.77137 37.9788C8.99676 38.6627 9.64961 39.1162 10.3957 39.1162L15.4087 39.1905C15.8983 39.1905 16.3646 39.3392 16.761 39.6142L20.8569 42.3721L20.8646 42.387ZM21.875 34.8344C14.7092 34.8344 8.87241 29.2592 8.87241 22.3979C8.87241 15.5367 14.7014 9.96149 21.875 9.96149C29.0486 9.96149 34.8776 15.5367 34.8776 22.3979C34.8776 29.2592 29.0486 34.8344 21.875 34.8344ZM21.875 10.6528C15.1056 10.6528 9.59521 15.9233 9.59521 22.3979C9.59521 28.8726 15.1056 34.1431 21.875 34.1431C28.6367 34.1431 34.147 28.8652 34.1548 22.3979C34.1548 15.9233 28.6444 10.6528 21.875 10.6528Z" stroke="#EC1C24"/>
<path d="M19.6133 26.6797C19.5123 26.6797 19.4268 26.6277 19.3646 26.5608L14.8569 21.5951C14.7247 21.4465 14.7403 21.2309 14.8879 21.1045C14.9734 21.0376 15.0589 21.0228 15.1211 21.0228C15.1833 21.0228 15.2999 21.0376 15.3931 21.1417L19.66 25.8472L28.3724 18.2054C28.4579 18.1311 28.5512 18.1162 28.6133 18.1162C28.6755 18.1162 28.7843 18.1311 28.8776 18.2277C29.0097 18.369 29.0019 18.5845 28.8543 18.7109L19.8698 26.5905C19.7999 26.65 19.7144 26.6797 19.6289 26.6797C19.6289 26.6797 19.6133 26.6797 19.6056 26.6797H19.6133Z" stroke="#EC1C24"/>
</svg>
