<svg id="e1qC2Guj0VU1" xmlns="http://www.w3.org/2000/svg" xmlns:xlink="http://www.w3.org/1999/xlink" viewBox="0 0 44 42" shape-rendering="geometricPrecision" text-rendering="geometricPrecision" project-id="9ee671c810614e6d8484e5c44fdf3deb" export-id="f4cad4579b9d4feaaec939b80b184162" cached="false">
<style><![CDATA[
#e1qC2Guj0VU2_tr {animation: e1qC2Guj0VU2_tr__tr 3000ms linear infinite normal forwards}@keyframes e1qC2Guj0VU2_tr__tr { 0% {transform: translate(22px,21px) rotate(0deg)} 16.666667% {transform: translate(22px,21px) rotate(0deg)} 53.333333% {transform: translate(22px,21px) rotate(-5deg)} 83.333333% {transform: translate(22px,21px) rotate(-15deg)} 100% {transform: translate(22px,21px) rotate(-15deg)}} #e1qC2Guj0VU2 {animation: e1qC2Guj0VU2_s_do 3000ms linear infinite normal forwards}@keyframes e1qC2Guj0VU2_s_do { 0% {stroke-dashoffset: 106.35} 16.666667% {stroke-dashoffset: 0} 100% {stroke-dashoffset: 0}} #e1qC2Guj0VU3 {animation: e1qC2Guj0VU3__m 3000ms linear infinite normal forwards}@keyframes e1qC2Guj0VU3__m { 0% {d: path('M23.3027,15.5898L23.3027,24.6135C23.3027,24.7986,23.4516,24.9529,23.6302,24.9529L28.8555,24.9529')} 33.333333% {d: path('M23.3027,15.5898L23.3027,24.6135C23.3027,24.7986,23.4516,24.9529,23.6302,24.9529L28.8555,24.9529')} 66.666667% {d: path('M24.793656,15.682436L23.3027,24.6135C23.3027,24.7986,23.4516,24.9529,23.6302,24.9529L28.8555,24.9529')} 100% {d: path('M24.793656,15.682436L23.3027,24.6135C23.3027,24.7986,23.4516,24.9529,23.6302,24.9529L28.8555,24.9529')}}
]]></style>
<g id="e1qC2Guj0VU2_tr" transform="translate(22,21) rotate(0)"><path id="e1qC2Guj0VU2" d="M23.098,40.5029h.4857c10.6902,0,19.3893-8.7502,19.3893-19.5034s-8.6991-19.50341-19.3758-19.50341c-5.0902.04102-9.8883,2.044-13.5038,5.65347s-5.65441,8.41524-5.73596,13.53554l.05437,4.2178m3.88738-3.6368L4.83317,24.9098c-.06796.0683-.14952.082-.20388.082-.06117,0-.14272-.0137-.21748-.0889m0,0L1.02734,21.2524" transform="translate(-22.00017,-20.999495)" fill="none" stroke="#ec1c24" stroke-width="2" stroke-linecap="round" stroke-dashoffset="106.35" stroke-dasharray="106.35"/></g><path id="e1qC2Guj0VU3" d="M23.3027,15.5898v9.0237c0,.1851.1489.3394.3275.3394h5.2253" fill="none" stroke="#ec1c24" stroke-width="2" stroke-linecap="round"/></svg>
