<svg width="44" height="41" viewBox="0 0 44 41" fill="none" xmlns="http://www.w3.org/2000/svg">
<path d="M23.4857 40.3975C23.3226 40.3975 23.1867 40.2607 23.1867 40.0967C23.1867 39.9326 23.3226 39.7959 23.4857 39.7959H23.4925C33.6731 39.7959 41.8624 31.7771 42.1342 21.5366C42.2633 16.5258 40.4556 11.7678 37.0235 8.13103C33.5983 4.49422 28.9701 2.42288 23.9886 2.28616C23.8187 2.28616 23.6488 2.28616 23.4857 2.28616C13.3119 2.28616 5.12937 10.3049 4.85753 20.5454L4.76918 23.9156L7.76626 20.7573C7.84102 20.6753 7.92937 20.6616 7.98374 20.6616C8.03811 20.6616 8.11966 20.6753 8.18762 20.7436C8.26238 20.812 8.27597 20.9009 8.28277 20.9556C8.28277 21.0103 8.26918 21.0991 8.20121 21.1675L4.7352 24.8111C4.66723 24.8795 4.58568 24.8932 4.53131 24.8932C4.47015 24.8932 4.38859 24.8795 4.31384 24.8043L0.929371 21.1538C0.854614 21.0444 0.86141 20.8872 0.949759 20.7847C1.02452 20.6958 1.11966 20.6821 1.17403 20.6821C1.2216 20.6821 1.28957 20.6958 1.35073 20.7436L4.2119 23.7447L4.25947 20.5864C4.34102 15.4662 6.37986 10.6604 9.99539 7.05092C13.6109 3.44146 18.409 1.43848 23.4993 1.39746C34.176 1.39746 42.875 10.1477 42.875 20.9009C42.875 31.6541 34.176 40.4043 23.4857 40.4043V40.3975Z" stroke="#EC1C24"/>
<path d="M23.3634 24.4011C23.2003 24.4011 23.0643 24.2644 23.0643 24.1003V16.1021C23.0643 15.938 23.2003 15.8013 23.3634 15.8013C23.5265 15.8013 23.6624 15.938 23.6624 16.1021V23.7995H28.1342C28.2973 23.7995 28.4333 23.9362 28.4333 24.1003C28.4333 24.2644 28.2973 24.4011 28.1342 24.4011H23.3634Z" stroke="#EC1C24"/>
</svg>
