<svg id="eLopXx24Qmk1" xmlns="http://www.w3.org/2000/svg" xmlns:xlink="http://www.w3.org/1999/xlink" viewBox="0 0 44 49" shape-rendering="geometricPrecision" text-rendering="geometricPrecision" project-id="c164eba69fb4454da42559536196cabf" export-id="28e60c373d814368945c781ef2d8b3e2" cached="false">
<style><![CDATA[
#eLopXx24Qmk2 {animation: eLopXx24Qmk2_s_do 3000ms linear infinite normal forwards}@keyframes eLopXx24Qmk2_s_do { 0% {stroke-dashoffset: 140.37} 33.333333% {stroke-dashoffset: 280.74} 100% {stroke-dashoffset: 280.74}} #eLopXx24Qmk3 {animation: eLopXx24Qmk3_s_do 3000ms linear infinite normal forwards}@keyframes eLopXx24Qmk3_s_do { 0% {stroke-dashoffset: 19.22} 33.333333% {stroke-dashoffset: 19.22} 53.333333% {stroke-dashoffset: 0} 100% {stroke-dashoffset: 0}}
]]></style>
<path id="eLopXx24Qmk2" d="M40.0506,7.97409c1.2582.50887,2.163,1.59336,2.4129,2.89471.0603.2837,1.3185,7.0492-.2413,14.8575-.9393,4.7217-2.7145,8.8761-5.2653,12.3465-3.2401,4.413-7.704,7.6665-13.2537,9.6769-.4567.1669-.9307.2503-1.4132.2503h-.586c-.4826,0-.9566-.0834-1.4133-.2503-5.5497-2.0104-10.0135-5.2639-13.25372-9.6769-2.55079-3.4704-4.32599-7.6248-5.2653-12.3465-1.539597-7.7584-.31158-14.4731-.24264-14.8501l.00135-.0074c.24991-1.30135,1.14613-2.38584,2.4129-2.89471L20.4372,1.30032C20.937,1.10011,21.4541,1,21.997,1s1.0599.10011,1.5597.30032L40.0506,7.97409Z" fill="none" stroke="#ec1c24" stroke-width="2" stroke-dashoffset="140.37" stroke-dasharray="140.37"/><path id="eLopXx24Qmk3" d="M15.0248,24.9672c1.2237,1.1929,2.4818,2.3942,3.6882,3.5621l.4998.4755c.1723.1669.3274.2586.4308.2586s.2499-.0917.4223-.2502l5.2823-5.1055c.3533-.342.7066-.684,1.0685-1.0261.8359-.8091,1.7062-1.6434,2.5593-2.4692" fill="none" stroke="#ec1c24" stroke-width="2" stroke-linecap="round" stroke-dashoffset="19.22" stroke-dasharray="19.22"/></svg>
