<svg width="44" height="58" viewBox="0 0 44 58" fill="none" xmlns="http://www.w3.org/2000/svg">
<path d="M12.9704 57.3976C12.843 57.3976 12.7254 57.3209 12.6764 57.2058L9.54968 51.0283L2.52191 51.4696C2.52191 51.4696 2.5023 51.4696 2.4925 51.4696C2.37488 51.4696 2.26706 51.412 2.19845 51.3065C2.12984 51.201 2.12984 51.0571 2.19845 50.9516L8.98118 39.46L8.14804 39.3161C5.83486 38.9228 3.18842 37.1195 2.00242 35.1051C0.679199 32.8605 0.512571 29.4456 1.61035 27.3257C2.60032 25.4168 2.60032 22.3185 1.61035 20.4096C0.512571 18.2897 0.679199 14.8749 2.00242 12.6398C3.32564 10.4048 6.25633 8.51514 8.67733 8.34248C10.8631 8.189 13.6174 6.63504 14.8034 4.87965C16.1266 2.93241 19.2337 1.40723 21.8801 1.40723C24.5266 1.40723 27.6533 2.96118 28.9569 4.87965C30.1527 6.63504 32.8972 8.189 35.0829 8.34248C37.5137 8.51514 40.4444 10.4048 41.7578 12.6398C43.0811 14.8844 43.2477 18.2993 42.1499 20.4096C41.1599 22.3185 41.1599 25.4168 42.1499 27.3257C43.2477 29.4456 43.0811 32.8605 41.7578 35.1051C40.5718 37.1195 37.9254 38.9324 35.6122 39.3257L34.7791 39.4696L41.552 50.9612C41.6206 51.0763 41.6108 51.2106 41.552 51.3161C41.4834 51.4216 41.3756 51.4792 41.2678 51.4792C41.2678 51.4792 41.2482 51.4792 41.2384 51.4792L34.2008 51.0379L31.0741 57.2058C31.0153 57.3209 30.9074 57.388 30.78 57.3976H30.7604C30.633 57.3976 30.5154 57.3305 30.4566 57.225L23.8699 46.0691L23.4484 46.1554C22.8407 46.2801 22.331 46.3377 21.8703 46.3377C21.4097 46.3377 20.9 46.2801 20.2923 46.1554L19.8806 46.0691L13.3037 57.225C13.2449 57.3305 13.1273 57.3976 12.9999 57.3976H12.9803H12.9704ZM33.5735 39.6998C31.7014 40.2753 29.8391 41.5415 28.9471 42.8557C28.2022 43.9492 26.83 44.9564 25.1931 45.6183L24.5756 45.8677L30.7408 56.3137L33.6813 50.5103C33.7401 50.3952 33.8577 50.3185 33.9851 50.3185H34.0048L40.6111 50.731L34.0244 39.5655L33.5735 39.6998ZM9.76531 50.3185C9.89273 50.3185 10.0104 50.3952 10.0692 50.5103L13.0097 56.3137L19.1749 45.8773L18.5574 45.6279C16.9107 44.966 15.5483 43.9588 14.8034 42.8653C13.9114 41.5511 12.0491 40.2849 10.177 39.7094L9.72611 39.5751L3.13941 50.7406L9.74571 50.3281C9.74571 50.3281 9.76531 50.3281 9.77512 50.3281L9.76531 50.3185ZM21.8703 2.08828C19.4787 2.08828 16.5676 3.50795 15.3816 5.25375C14.0584 7.1914 11.1277 8.85087 8.71654 9.02353C6.54058 9.17701 3.79612 10.9516 2.60032 12.9756C1.40452 14.9996 1.23789 18.1938 2.22786 20.0931C3.32564 22.2034 3.32564 25.5223 2.22786 27.6326C1.23789 29.5319 1.40452 32.7262 2.60032 34.7502C3.79612 36.7741 6.54058 38.5487 8.71654 38.7022C11.0983 38.8749 14.0878 40.5631 15.3816 42.472C16.5676 44.2178 19.4787 45.6374 21.8703 45.6374C24.2619 45.6374 27.173 44.2178 28.359 42.472C29.6528 40.5631 32.6423 38.8749 35.0241 38.7022C37.2001 38.5487 39.9445 36.7741 41.1403 34.7502C42.3361 32.7262 42.5028 29.5319 41.5128 27.6326C40.415 25.5223 40.415 22.2034 41.5128 20.0931C42.5028 18.1938 42.3361 14.9996 41.1403 12.9756C39.9445 10.9516 37.2001 9.17701 35.0241 9.02353C32.6423 8.85087 29.6528 7.16262 28.359 5.25375C27.173 3.50795 24.2619 2.08828 21.8703 2.08828ZM21.8703 38.0403C13.882 38.0403 7.39332 31.6806 7.39332 23.8725C7.39332 16.0643 13.8918 9.70459 21.8703 9.70459C29.8489 9.70459 36.3473 16.0643 36.3473 23.8725C36.3473 31.6806 29.8489 38.0403 21.8703 38.0403ZM21.8703 10.3856C14.2741 10.3856 8.09904 16.4288 8.09904 23.8629C8.09904 31.2969 14.2741 37.3401 21.8703 37.3401C29.4666 37.3401 35.6416 31.2969 35.6416 23.8629C35.6416 16.4288 29.4666 10.3856 21.8703 10.3856ZM19.5179 28.8221C19.4199 28.8221 19.3317 28.7837 19.2729 28.7166L14.5681 24.1123C14.4995 24.0451 14.4603 23.9588 14.4603 23.8725C14.4603 23.7861 14.4995 23.6902 14.5681 23.6326C14.6367 23.5655 14.7249 23.5271 14.8132 23.5271C14.9014 23.5271 14.9994 23.5655 15.0582 23.6326L19.5179 27.9972L28.6825 19.0283C28.7511 18.9612 28.8393 18.9228 28.9275 18.9228C29.0157 18.9228 29.1137 18.9612 29.1726 19.0283C29.3098 19.1626 29.3098 19.3832 29.1726 19.5175L19.7532 28.7358C19.6846 28.8029 19.5964 28.8413 19.5081 28.8413L19.5179 28.8221Z" stroke="#EC1C24"/>
</svg>
