<svg id="eujLBCSO2fQ1" xmlns="http://www.w3.org/2000/svg" xmlns:xlink="http://www.w3.org/1999/xlink" viewBox="0 0 32 51" shape-rendering="geometricPrecision" text-rendering="geometricPrecision" project-id="68b0484230494fd383a35c83748c6c2b" export-id="a1c63b62b9514bdeb99c794a46a53695" cached="false">
<style><![CDATA[
#eujLBCSO2fQ2 {animation: eujLBCSO2fQ2_s_do 3000ms linear infinite normal forwards}@keyframes eujLBCSO2fQ2_s_do { 0% {stroke-dashoffset: 4.19} 16.666667% {stroke-dashoffset: 4.19} 26.666667% {stroke-dashoffset: 0} 100% {stroke-dashoffset: 0}} #eujLBCSO2fQ3 {animation: eujLBCSO2fQ3_s_do 3000ms linear infinite normal forwards}@keyframes eujLBCSO2fQ3_s_do { 0% {stroke-dashoffset: 4.24} 16.666667% {stroke-dashoffset: 4.24} 26.666667% {stroke-dashoffset: 8.48} 100% {stroke-dashoffset: 8.48}} #eujLBCSO2fQ4 {animation: eujLBCSO2fQ4_s_do 3000ms linear infinite normal forwards}@keyframes eujLBCSO2fQ4_s_do { 0% {stroke-dashoffset: 4.2} 16.666667% {stroke-dashoffset: 4.2} 26.666667% {stroke-dashoffset: 8.4} 100% {stroke-dashoffset: 8.4}} #eujLBCSO2fQ5 {animation-name: eujLBCSO2fQ5_s_do, eujLBCSO2fQ5_s_da;animation-duration: 3000ms;animation-fill-mode: forwards;animation-timing-function: linear;animation-direction: normal;animation-iteration-count: infinite;}@keyframes eujLBCSO2fQ5_s_do { 0% {stroke-dashoffset: 4.13} 16.666667% {stroke-dashoffset: 4.13} 26.666667% {stroke-dashoffset: 8.26} 100% {stroke-dashoffset: 8.26}}@keyframes eujLBCSO2fQ5_s_da { 0% {stroke-dasharray: 4.13} 16.666667% {stroke-dasharray: 4.13} 26.666667% {stroke-dasharray: 4.13} 100% {stroke-dasharray: 4.13}} #eujLBCSO2fQ6 {animation-name: eujLBCSO2fQ6_s_do, eujLBCSO2fQ6_s_da;animation-duration: 3000ms;animation-fill-mode: forwards;animation-timing-function: linear;animation-direction: normal;animation-iteration-count: infinite;}@keyframes eujLBCSO2fQ6_s_do { 0% {stroke-dashoffset: 4.21} 16.666667% {stroke-dashoffset: 4.21} 26.666667% {stroke-dashoffset: 8.42} 100% {stroke-dashoffset: 8.42}}@keyframes eujLBCSO2fQ6_s_da { 0% {stroke-dasharray: 4.21} 16.666667% {stroke-dasharray: 4.21} 26.666667% {stroke-dasharray: 4.21} 100% {stroke-dasharray: 4.21}} #eujLBCSO2fQ8 {animation: eujLBCSO2fQ8_s_do 3000ms linear infinite normal forwards}@keyframes eujLBCSO2fQ8_s_do { 0% {stroke-dashoffset: 13.85} 16.666667% {stroke-dashoffset: 0} 100% {stroke-dashoffset: 0}}
]]></style>
<path id="eujLBCSO2fQ2" d="M15.3857,5.18725v-4.18725" fill="none" stroke="#ec1c24" stroke-width="2" stroke-linecap="round" stroke-dashoffset="4.19" stroke-dasharray="4.19"/><path id="eujLBCSO2fQ3" d="M8.05029,2.32422L9.64143,6.24676" fill="none" stroke="#ec1c24" stroke-width="2" stroke-linecap="round" stroke-dashoffset="4.24" stroke-dasharray="4.24"/><path id="eujLBCSO2fQ4" d="M1.22949,6.84766l2.9249,3.00808" fill="none" stroke="#ec1c24" stroke-width="2" stroke-linecap="round" stroke-dashoffset="4.2" stroke-dasharray="4.2"/><path id="eujLBCSO2fQ5" d="M30.7707,7.71484L27.8926,10.6748" fill="none" stroke="#ec1c24" stroke-width="2" stroke-linecap="round" stroke-dashoffset="4.13" stroke-dasharray="4.13"/><path id="eujLBCSO2fQ6" d="M24.0438,2.90234L22.4644,6.80082" fill="none" stroke="#ec1c24" stroke-width="2" stroke-linecap="round" stroke-dashoffset="4.21" stroke-dasharray="4.21"/><path d="M9.15882,40.8028h13.39128M11.8895,49.2735c-.1989,0-.351-.2045-.3978-.4091l-.468-3.8744-.4562-.0962c-1.16999-.2527-1.98896-1.2634-1.98896-2.4546c0-.8784.44458-1.7086,1.12316-2.0937l.4212-.2406-.0936-.4813c-.25741-1.3115-1.01788-2.5027-2.04744-3.2126-3.83747-2.7073-5.95509-7.1352-5.6626-11.8519v-.0361c.0468-3.5134,1.43905-6.8945,3.90766-9.5175c2.48031-2.6231,5.72108-4.1512,9.13738-4.3076.234-.012.4797-.0241.7137-.0241c3.6385,0,7.0665,1.468,9.6404,4.1151c2.5739,2.6591,3.9896,6.1846,3.9896,9.9266c0,4.5362-2.2346,8.8679-5.9785,11.5751-1.17.8423-1.9187,2.0816-2.0474,3.3811l-.0351.4212.3393.2165c.7253.4693,1.1582,1.2514,1.1582,2.1177c0,1.0228-.7605,1.9974-1.8485,2.3704l-.3978.1324-.468,3.9345c-.0468.2046-.1989.4091-.3978.4091h-8.1429Z" fill="none" stroke="#ec1c24" stroke-width="2"/><path id="eujLBCSO2fQ8" d="M15.3408,16.1836h.0234c.117,0,.234,0,.351,0c4.6681,0,8.4705,3.8864,8.4705,8.6753" fill="none" stroke="#ec1c24" stroke-width="2" stroke-linecap="round" stroke-dashoffset="13.85" stroke-dasharray="13.85"/></svg>
