<svg id="eUr9jMzytZB1" xmlns="http://www.w3.org/2000/svg" xmlns:xlink="http://www.w3.org/1999/xlink" viewBox="0 0 46 60" shape-rendering="geometricPrecision" text-rendering="geometricPrecision" project-id="ce1740f40ad04c4894b45edf4039dd80" export-id="ed169e9e338b4096a80bef4218a92c65" cached="false">
<style><![CDATA[
#eUr9jMzytZB3 {animation: eUr9jMzytZB3_s_do 3000ms linear infinite normal forwards}@keyframes eUr9jMzytZB3_s_do { 0% {stroke-dashoffset: 200.12} 33.333333% {stroke-dashoffset: 0} 100% {stroke-dashoffset: 0}} #eUr9jMzytZB6 {animation: eUr9jMzytZB6_s_do 3000ms linear infinite normal forwards}@keyframes eUr9jMzytZB6_s_do { 0% {stroke-dashoffset: 20.38} 33.333333% {stroke-dashoffset: 20.38} 53.333333% {stroke-dashoffset: 0} 100% {stroke-dashoffset: 0}}
]]></style>
<path d="M22.9897,11.3022c7.4468,0,13.4776,5.9324,13.4776,13.168-.0001,7.2356-6.0309,13.168-13.4776,13.168-7.4558-.0003-13.47646-5.9321-13.47652-13.168c0-7.2355,6.03002-13.1677,13.47652-13.168Z" fill="none" stroke="#ec1c24" stroke-width="2"/><path id="eUr9jMzytZB3" d="M36.6199,39.1936l6.052,12.3652c.0686.1151.0588.2494,0,.355-.0686.1055-.1764.163-.2842.163c0,0-.0196,0-.0294,0l-7.0376-.4412-3.1267,6.1679c-.0588.1151-.1667.1822-.2941.1918h-.0196c-.1274,0-.245-.0671-.3038-.1727L24.9898,46.6668l-.4215.0863c-.6077.1247-1.1174.1822-1.5781.1822s-.9703-.0575-1.578-.1822l-.7923.9405-6.1963,10.129c-.0588.1056-.1764.1727-.3038.1727h-.0196-.0099c-.1274,0-.245-.0767-.294-.1918L10.6696,51.626l-7.02779.4412c0,0-.0196,0-.02941,0-.11762,0-.22543-.0575-.29404-.163s-.06862-.2494,0-.3549L10.1011,40.0576l-.6705,1.136c-2.31318-.3933-4.95962-2.1966-6.14562-4.211-1.32322-2.2446-1.65251-6.9393-.55472-9.0592.98996-1.9089.98996-5.0072,0-6.9161-1.09779-2.1199-.93116-5.5348.39206-7.7698s4.25391-4.1247,6.67491-4.29737C11.983,8.78666,14.7373,7.2327,15.9233,5.47731C17.2465,3.53006,20.3536,2.00488,23,2.00488s5.7732,1.55396,7.0768,3.47243c1.1958,1.75539,3.9403,3.30935,6.126,3.46282c2.4308.17267,5.3615,2.06237,6.6749,4.29737c1.3233,2.2446,1.4899,5.6595.3921,7.7698-.99,1.9089-.99,5.0072,0,6.9161c1.0978,2.1199.9312,5.5347-.3921,7.7793-1.186,2.0144-3.8324,3.8274-6.1456,4.2207l-.1122-.7298Z" transform="matrix(.999848 0.017452-.017452 0.999848 0.527077-.396837)" fill="none" stroke="#ec1c24" stroke-width="2" stroke-dashoffset="200.12" stroke-dasharray="200.12"/><path d="M38.5,39.5L32.62,41c-1.6199.3064-6.5938,5.4543-7.62,6.3064" fill="none" stroke="#ec1c24" stroke-width="2"/><path d="M6.5,40l4.8083,1c2.7032,0,8.78,5.2301,9.7032,5.693" fill="none" stroke="#ec1c24" stroke-width="2"/><path id="eUr9jMzytZB6" d="M15.688,24.71l4.7048,4.6043c.0562.1055.0344.1247.2352.1247.0882,0,.4233-.0749.4919-.1421l9.1725-9.1817" fill="none" stroke="#ec1c24" stroke-width="2" stroke-dashoffset="20.38" stroke-dasharray="20.38"/></svg>
