<svg width="43" height="48" viewBox="0 0 43 48" fill="none" xmlns="http://www.w3.org/2000/svg">
<g clip-path="url(#clip0_148_2222)">
<path d="M42.3407 10.2668C42.0908 8.9654 41.186 7.88091 39.9279 7.37204L23.4347 0.698269C22.9349 0.498056 22.4179 0.397949 21.875 0.397949C21.3321 0.397949 20.8151 0.498056 20.3153 0.698269L3.82206 7.37204C2.55534 7.88091 1.65916 8.9654 1.40926 10.2668C1.35756 10.5504 0.0994546 17.3076 1.65054 25.1243C2.58981 29.8459 4.36494 34.0004 6.91562 37.4707C10.1557 41.8837 14.6194 45.1372 20.1688 47.1477C20.6255 47.3145 21.0995 47.398 21.582 47.398H22.168C22.6505 47.398 23.1245 47.3145 23.5812 47.1477C29.1306 45.1372 33.5943 41.8837 36.8344 37.4707C39.3851 34.0004 41.1602 29.8459 42.0995 25.1243C43.6592 17.3159 42.4011 10.5504 42.3407 10.2668ZM41.4704 25.0075C40.5484 29.6374 38.8163 33.7167 36.3173 37.112C33.1462 41.4249 28.7946 44.6033 23.3571 46.5721C22.978 46.7139 22.573 46.7806 22.168 46.7806H21.582C21.177 46.7806 20.772 46.7139 20.3928 46.5721C14.964 44.6033 10.6038 41.4249 7.43265 37.112C4.93368 33.7167 3.20163 29.6374 2.27959 25.0075C0.745741 17.3076 1.98661 10.6589 2.03831 10.3752C2.24513 9.2824 3.01205 8.36476 4.07196 7.93931L20.5652 1.27388C20.9788 1.10704 21.4269 1.02361 21.875 1.02361C22.3231 1.02361 22.7712 1.10704 23.1848 1.27388L39.678 7.94765C40.7379 8.38144 41.5049 9.29074 41.7117 10.3836C41.7634 10.6589 43.0043 17.3159 41.4704 25.0158V25.0075Z" stroke="#EC1C24"/>
<path d="M28.6222 19.1263C28.5102 19.1263 28.3896 19.1847 28.2862 19.2764L27.7605 19.7853C26.468 21.0283 25.1323 22.313 23.8311 23.581C22.9866 24.4069 22.1594 25.2328 21.2804 26.1087C20.8927 26.5008 20.4963 26.8929 20.0913 27.2933L19.5828 27.7938C19.5828 27.7938 18.6436 26.9095 18.6263 26.8929C18.4195 26.6926 18.2127 26.4924 18.0145 26.3006C17.1787 25.4997 16.3256 24.6655 15.4638 23.8646C15.3863 23.7896 15.2226 23.7228 15.0933 23.6978C15.0847 23.6978 15.0761 23.6978 15.0675 23.6978C14.9641 23.6978 14.8434 23.7896 14.7917 23.9147C14.7142 24.0732 14.7572 24.2234 14.9037 24.3652C16.1274 25.5581 17.3855 26.7594 18.5919 27.9273L19.0917 28.4028C19.264 28.5696 19.4191 28.6614 19.5225 28.6614C19.6259 28.6614 19.7724 28.5696 19.9448 28.4111L25.2271 23.3057C25.5804 22.9637 25.9337 22.6216 26.2956 22.2796C27.1315 21.4704 28.0018 20.6362 28.8549 19.8103C29.1393 19.535 29.0014 19.3515 28.9583 19.2931C28.8721 19.1763 28.7687 19.1179 28.6481 19.1179L28.6222 19.1263Z" stroke="#EC1C24"/>
</g>
<defs>
<clipPath id="clip0_148_2222">
<rect width="42" height="47" fill="white" transform="translate(0.875 0.397949)"/>
</clipPath>
</defs>
</svg>
