<svg width="34" height="42" viewBox="0 0 34 42" fill="none" xmlns="http://www.w3.org/2000/svg">
<path d="M14.3664 33.8466L19.9021 35.8423C20.1402 35.9306 20.3784 35.9781 20.6166 35.9781C21.1795 35.9781 21.6992 35.7269 22.0456 35.2993C22.3632 34.8852 22.3126 33.3409 22.1611 32.8522M1.88773 40.8723C1.39695 40.8723 1 40.499 1 40.0374V30.9549C1 30.4933 1.39695 30.1199 1.88773 30.1199H4.97672C5.4675 30.1199 5.86445 30.4933 5.86445 30.9549V31.8102L10.4041 29.2307C10.6351 29.1424 10.8949 29.1017 11.1619 29.1017C11.4578 29.1017 11.7538 29.156 12.0497 29.251L21.4033 32.4075H21.4249C21.6053 32.4551 21.8291 32.618 22.0528 32.7741L22.2693 32.9302L28.6855 29.285C29.2557 28.9524 29.8764 28.7759 30.4898 28.7759C30.8507 28.7759 31.2116 28.837 31.5508 28.9592C32.3735 29.251 32.9004 29.8145 32.987 30.5069C33.0664 31.111 32.7777 31.7016 32.2364 32.0478H32.222L21.7353 39.8609C21.2517 40.1596 20.7321 40.3225 20.2196 40.3225C20.0031 40.3225 19.7866 40.2953 19.5773 40.2343H19.5629L9.23492 38.1028H9.22049C9.12666 38.0892 9.03284 38.0824 8.94623 38.0824C8.26781 38.0824 7.74816 38.4015 7.09139 38.802C6.78826 38.992 6.44183 39.2025 6.01601 39.4129L5.80671 39.5215V40.051C5.80671 40.5126 5.40976 40.8859 4.91899 40.8859L2 40.8859L1.88773 40.8723Z" stroke="white" stroke-width="2" stroke-linecap="round"/>
<path d="M18.3077 27.1478C18.3366 27.2632 18.4304 27.3786 18.5531 27.3786H23.5763C23.699 27.3786 23.7928 27.2632 23.8217 27.1478L24.1104 24.9281L24.3558 24.8535C25.027 24.643 25.4961 24.0932 25.4961 23.5162C25.4961 23.0274 25.2291 22.5862 24.7816 22.3215L24.5723 22.1993L24.5939 21.9617C24.6733 21.2286 25.1352 20.5294 25.857 20.0542C28.1665 18.5269 29.545 16.0832 29.545 13.5241C29.545 11.4129 28.6717 9.42402 27.0839 7.92384C25.4961 6.43045 23.3814 5.60229 21.1369 5.60229C20.9925 5.60229 20.841 5.60908 20.6966 5.61587C18.5892 5.70412 16.59 6.56621 15.0599 8.04602C13.5371 9.52584 12.6782 11.4333 12.6493 13.4154V13.4358C12.4689 16.0968 13.7752 18.5948 16.1425 20.1221C16.7776 20.5226 17.2467 21.1946 17.4055 21.9346L17.4633 22.2061L17.2034 22.3418C16.7848 22.5591 16.5106 23.0274 16.5106 23.523C16.5106 24.195 17.0158 24.7652 17.7375 24.9078L18.019 24.9621L18.3077 27.1478Z" stroke="white" stroke-width="2" stroke-linecap="round"/>
<path d="M20.6973 8.71118C20.6973 8.71118 20.8416 8.71118 20.9138 8.71118C23.7935 8.71118 26.1391 10.9037 26.1391 13.6054" stroke="white" stroke-width="2" stroke-linecap="round"/>
<path d="M20.6953 3.36227V1" stroke="white" stroke-width="2" stroke-linecap="round"/>
<path d="M16.1719 1.74658L17.1534 3.95951" stroke="white" stroke-width="2" stroke-linecap="round"/>
<path d="M11.9648 4.29883L13.7692 5.99586" stroke="white" stroke-width="2" stroke-linecap="round"/>
<path d="M28.0508 6.11128L29.8551 4.47534" stroke="white" stroke-width="2" stroke-linecap="round"/>
<path d="M24.6523 4.04764L25.6195 1.86865" stroke="white" stroke-width="2" stroke-linecap="round"/>
</svg>
