<svg width="33" height="39" viewBox="0 0 33 39" fill="none" xmlns="http://www.w3.org/2000/svg">
<path d="M1 38C1.45908 30.4789 8.04813 25.7494 15.9994 25.7494C24 26 30.5 30.5 31.5 38M4.28868 10.5004L5.5 10.5M5.5 10.5L5.97476 9.72295C5.96975 7.39377 6.92297 5.20393 8.65746 3.55561C10.3919 1.90729 12.699 1 15.1564 1H16.8257C21.8806 1 25.999 4.89991 26.0074 9.69445V10.5004H27.6634M5.5 10.5L25.5 10.5004M26.0157 11.2921V13.6656C26.0157 18.9067 21.5234 23.1676 15.9994 23.1676C10.4754 23.1676 5.98311 18.9067 5.98311 13.6672L5.97476 11.2921M17.5 7.32257V1.02327M14 7.44455V1.44143" stroke="white" stroke-width="2" stroke-linecap="round"/>
</svg>
