<svg width="32" height="32" viewBox="0 0 32 32" fill="none" xmlns="http://www.w3.org/2000/svg">
<path d="M22.127 5.69818H26.4348V5.7038C26.5666 5.7038 26.6697 5.60264 26.6697 5.47339V1.24731" stroke="white" stroke-width="2" stroke-linecap="round"/>
<path d="M5.32422 30.1723V25.9462C5.32422 25.817 5.42733 25.7158 5.55909 25.7158H9.86693" stroke="white" stroke-width="2" stroke-linecap="round"/>
<path d="M3.01071 23.0689C1.69315 20.8378 1 18.2977 1 15.7126C1 7.59762 7.72528 1 15.9973 1C20.0015 1 23.7651 2.5342 26.595 5.31037" stroke="white" stroke-width="2" stroke-linecap="round"/>
<path d="M5.39882 25.7831C5.30716 25.873 5.30716 26.0192 5.39882 26.1091C8.22871 28.8852 11.9923 30.4194 15.9966 30.4194H16.0023C24.2743 30.4194 30.9996 23.8162 30.9996 15.7069C30.9996 13.1218 30.3064 10.5816 28.9889 8.35059" stroke="white" stroke-width="2" stroke-linecap="round"/>
<path d="M14.152 23.1534H17.8297C17.9614 23.1534 18.0645 23.0522 18.0645 22.923V21.2876C18.7233 21.0516 19.3305 20.7088 19.8748 20.2592L21.3183 21.0797C21.3699 21.1078 21.4386 21.119 21.4959 21.1022C21.5589 21.0853 21.6105 21.046 21.6391 20.9954L23.478 17.8708C23.541 17.7584 23.5066 17.6179 23.3921 17.5561L21.9542 16.7412C22.0172 16.404 22.0459 16.0556 22.0459 15.7128C22.0459 15.37 22.0172 15.0216 21.9542 14.6844L23.3921 13.8695C23.5066 13.8021 23.541 13.6672 23.478 13.5548L21.6391 10.4302C21.6048 10.3796 21.5532 10.3403 21.4959 10.3234C21.4386 10.3066 21.3699 10.3178 21.3183 10.3459L19.8748 11.1664C19.3363 10.7168 18.7233 10.374 18.0645 10.138V8.50263C18.0645 8.37337 17.9614 8.27222 17.8297 8.27222H14.152C14.0202 8.27222 13.9171 8.37337 13.9171 8.50263V10.138C13.2583 10.374 12.6511 10.7168 12.1069 11.1664L10.6633 10.3459C10.6117 10.3178 10.543 10.3066 10.4857 10.3234C10.4227 10.3403 10.3711 10.3796 10.3425 10.4302L8.50364 13.5548C8.475 13.6054 8.46355 13.6672 8.48073 13.729C8.49792 13.7908 8.53802 13.8414 8.58957 13.8695L10.0274 14.6844C9.96442 15.0216 9.93577 15.37 9.93577 15.7128C9.93577 16.0556 9.96442 16.404 10.0274 16.7412L8.58957 17.5561C8.53802 17.5898 8.49792 17.6404 8.48073 17.6966C8.46355 17.7528 8.475 17.8202 8.50364 17.8708L10.3425 20.9954C10.3769 21.046 10.4284 21.0853 10.4857 21.1022C10.543 21.119 10.6117 21.1078 10.6633 21.0797L12.1069 20.2592C12.6511 20.7088 13.2583 21.0516 13.9171 21.2876V22.923C13.9171 23.0522 14.0202 23.1534 14.152 23.1534Z" stroke="white" stroke-width="2" stroke-linecap="round"/>
<path d="M15.9974 18.3426C14.5194 18.3426 13.3164 17.1625 13.3164 15.7126C13.3164 14.2627 14.5194 13.0769 15.9974 13.0769C17.4753 13.0769 18.684 14.2571 18.684 15.7126C18.684 17.1681 17.481 18.3426 15.9974 18.3426Z" stroke="white" stroke-width="2" stroke-linecap="round"/>
</svg>
