<svg width="32" height="34" viewBox="0 0 32 34" fill="none" xmlns="http://www.w3.org/2000/svg">
<path d="M1 24.8003L15.5186 32.7745C15.8184 32.9391 16.1816 32.9391 16.4814 32.7745L31 24.8003" stroke="#EC1C24" stroke-width="2" stroke-linecap="round" stroke-linejoin="round"/>
<path d="M1 17.4771L15.5186 25.4513C15.8184 25.616 16.1816 25.616 16.4814 25.4513L31 17.4771" stroke="#EC1C24" stroke-width="2" stroke-linecap="round" stroke-linejoin="round"/>
<path d="M1.63273 8.7456C0.932123 9.12331 0.932123 10.1284 1.63273 10.5061L15.5255 17.9959C15.8217 18.1556 16.1783 18.1556 16.4745 17.9959L30.3673 10.5061C31.0679 10.1284 31.0679 9.12331 30.3673 8.7456L16.4745 1.25581C16.1783 1.09611 15.8217 1.09611 15.5255 1.25581L1.63273 8.7456Z" stroke="#EC1C24" stroke-width="2" stroke-linecap="round" stroke-linejoin="round"/>
</svg>
