<svg width="32" height="32" viewBox="0 0 32 32" fill="none" xmlns="http://www.w3.org/2000/svg">
<path d="M10.6667 29.3333H21.3333C26.6933 29.3333 27.6533 27.1867 27.9333 24.5733L28.9333 13.9067C29.2933 10.6533 28.36 8 22.6667 8H9.33334C3.64 8 2.70667 10.6533 3.06667 13.9067L4.06667 24.5733C4.34667 27.1867 5.30667 29.3333 10.6667 29.3333Z" stroke="#EC1C24" stroke-width="2" stroke-miterlimit="10" stroke-linecap="round" stroke-linejoin="round"/>
<path d="M10.6667 8.00008V6.93341C10.6667 4.57341 10.6667 2.66675 14.9333 2.66675H17.0667C21.3333 2.66675 21.3333 4.57341 21.3333 6.93341V8.00008" stroke="#EC1C24" stroke-width="2" stroke-miterlimit="10" stroke-linecap="round" stroke-linejoin="round"/>
<path d="M18.6667 17.3333V18.6667C18.6667 18.68 18.6667 18.68 18.6667 18.6933C18.6667 20.1467 18.6533 21.3333 16 21.3333C13.36 21.3333 13.3333 20.16 13.3333 18.7067V17.3333C13.3333 16 13.3333 16 14.6667 16H17.3333C18.6667 16 18.6667 16 18.6667 17.3333Z" stroke="#EC1C24" stroke-width="2" stroke-miterlimit="10" stroke-linecap="round" stroke-linejoin="round"/>
<path d="M28.8667 14.6667C25.7867 16.9067 22.2667 18.2401 18.6667 18.6934" stroke="#EC1C24" stroke-width="2" stroke-miterlimit="10" stroke-linecap="round" stroke-linejoin="round"/>
<path d="M3.49335 15.0266C6.49335 17.0799 9.88001 18.3199 13.3333 18.7066" stroke="#EC1C24" stroke-width="2" stroke-miterlimit="10" stroke-linecap="round" stroke-linejoin="round"/>
</svg>
