<svg width="32" height="32" viewBox="0 0 32 32" fill="none" xmlns="http://www.w3.org/2000/svg">
<path fill-rule="evenodd" clip-rule="evenodd" d="M16.7888 3.73865C16.3028 2.75378 14.8986 2.75378 14.4126 3.73865L11.2362 10.1746C11.0431 10.5658 10.67 10.8367 10.2385 10.8995L3.13587 11.9316C2.04912 12.0895 1.61519 13.4251 2.40157 14.1916L7.54105 19.2014C7.85335 19.5057 7.99578 19.9443 7.92212 20.3741L6.70883 27.4481C6.5232 28.5304 7.65924 29.3559 8.63138 28.8449L14.9842 25.505C15.3701 25.3021 15.8312 25.3021 16.2172 25.505L22.5701 28.8449C23.5421 29.3559 24.6781 28.5304 24.4925 27.4481L23.2792 20.3741C23.2055 19.9443 23.348 19.5057 23.6603 19.2014L28.7998 14.1916C29.5863 13.4251 29.1522 12.0895 28.0655 11.9316L20.9629 10.8995C20.5313 10.8367 20.1582 10.5658 19.9652 10.1746L16.7888 3.73865Z" stroke="#EC1C24" stroke-width="2"/>
</svg>
