<svg width="32" height="32" viewBox="0 0 32 32" fill="none" xmlns="http://www.w3.org/2000/svg">
<path d="M16.5 3L5 9.49822V22.5018L16.5 29L28 22.5018V9.49822L16.5 3Z" stroke="#EC1C24" stroke-width="2"/>
<path d="M15.0193 16.7402C15.0509 16.9346 15.1204 17.1209 15.224 17.2885C15.3275 17.4561 15.463 17.6016 15.6228 17.7168C15.7826 17.832 15.9635 17.9146 16.1553 17.9598C16.347 18.0051 16.5457 18.0122 16.7402 17.9807C16.9346 17.9491 17.1209 17.8796 17.2885 17.776C17.4561 17.6725 17.6016 17.537 17.7168 17.3772C17.832 17.2174 17.9146 17.0365 17.9598 16.8447C18.0051 16.653 18.0122 16.4543 17.9807 16.2598C17.9491 16.0654 17.8796 15.8791 17.776 15.7115C17.6725 15.5439 17.537 15.3984 17.3772 15.2832C17.2174 15.168 17.0365 15.0854 16.8447 15.0402C16.653 14.9949 16.4543 14.9878 16.2598 15.0193C16.0654 15.0509 15.8791 15.1204 15.7115 15.224C15.5439 15.3275 15.3984 15.463 15.2832 15.6228C15.168 15.7826 15.0854 15.9635 15.0402 16.1553C14.9949 16.347 14.9878 16.5457 15.0193 16.7402Z" fill="#EC1C24"/>
</svg>
