<svg width="32" height="32" viewBox="0 0 32 32" fill="none" xmlns="http://www.w3.org/2000/svg">
<path d="M21 8H28C28.5304 8 29.0391 8.21071 29.4142 8.58579C29.7893 8.96086 30 9.46957 30 10V26C30 26.5304 29.7893 27.0391 29.4142 27.4142C29.0391 27.7893 28.5304 28 28 28H4C3.46957 28 2.96086 27.7893 2.58579 27.4142C2.21071 27.0391 2 26.5304 2 26V10C2 9.46957 2.21071 8.96086 2.58579 8.58579C2.96086 8.21071 3.46957 8 4 8H11V6C11 5.46957 11.2107 4.96086 11.5858 4.58579C11.9609 4.21071 12.4696 4 13 4H19C19.5304 4 20.0391 4.21071 20.4142 4.58579C20.7893 4.96086 21 5.46957 21 6V8ZM21 8H10.5M30 21H2" stroke="#EC1C24" stroke-width="2" stroke-linecap="round"/>
<path d="M15 17H17" stroke="#EC1C24" stroke-width="2" stroke-linecap="round"/>
</svg>
