<svg width="42" height="42" viewBox="0 0 42 42" fill="none" xmlns="http://www.w3.org/2000/svg">
<path d="M14.2733 27.7872C11.6388 26.2661 9.57976 23.9183 8.4156 21.1077C7.25144 18.2972 7.0472 15.1811 7.83455 12.2426C8.6219 9.30416 10.3569 6.70763 12.7703 4.85571C15.1838 3.0038 18.1409 2 21.183 2C24.2251 2 27.1822 3.0038 29.5956 4.85571C32.0091 6.70763 33.7441 9.30416 34.5314 12.2426C35.3188 15.1811 35.1145 18.2972 33.9504 21.1077C32.7862 23.9183 30.7272 26.2661 28.0926 27.7872V34.8178C28.0926 36.1922 27.5466 37.5103 26.5748 38.4822C25.6029 39.454 24.2848 40 22.9104 40H19.4556C18.775 40 18.1011 39.866 17.4724 39.6055C16.8437 39.3451 16.2724 38.9634 15.7912 38.4822C14.8193 37.5103 14.2733 36.1922 14.2733 34.8178V27.7872Z" stroke="#EC1C24" stroke-width="2" stroke-linecap="round"/>
<path d="M21.1832 8.90649C22.0906 8.90649 22.9891 9.08522 23.8275 9.43246C24.6658 9.7797 25.4275 10.2887 26.0691 10.9303C26.7107 11.5719 27.2197 12.3336 27.5669 13.1719M10.9998 33.0903H30.9998" stroke="#EC1C24" stroke-width="2" stroke-linecap="round"/>
</svg>
