<svg width="42" height="42" viewBox="0 0 42 42" fill="none" xmlns="http://www.w3.org/2000/svg">
<path d="M39.0625 39.9375H7.92308C6.35218 39.9375 4.84562 39.3134 3.73483 38.2026C2.62404 37.0918 2 35.5853 2 34.0144V2" stroke="#EC1C24" stroke-width="2" stroke-linecap="round"/>
<path d="M35.4594 15.5107L25.7391 25.231C25.6891 25.2811 25.6297 25.3209 25.5643 25.3481C25.4988 25.3752 25.4287 25.3892 25.3579 25.3892C25.2871 25.3892 25.2169 25.3752 25.1515 25.3481C25.0861 25.3209 25.0267 25.2811 24.9767 25.231L19.4068 19.6611C18.7 18.9549 17.7417 18.5581 16.7425 18.5581C15.7433 18.5581 14.785 18.9549 14.0782 19.6611L8.0625 25.6768M36.0356 25.2307V16.6154C36.0356 16.1869 35.8655 15.7761 35.5625 15.4731C35.2596 15.1702 34.8487 15 34.4203 15H25.8049" stroke="#EC1C24" stroke-width="2" stroke-linecap="round"/>
</svg>
