<svg width="32" height="32" viewBox="0 0 32 32" fill="none" xmlns="http://www.w3.org/2000/svg">
<path d="M16 17.9067C16.5463 17.9067 17.0872 17.7991 17.592 17.59C18.0967 17.3809 18.5553 17.0745 18.9416 16.6882C19.3279 16.3019 19.6343 15.8433 19.8433 15.3386C20.0524 14.8339 20.16 14.293 20.16 13.7467C20.16 13.2004 20.0524 12.6594 19.8433 12.1547C19.6343 11.65 19.3279 11.1914 18.9416 10.8051C18.5553 10.4188 18.0967 10.1124 17.592 9.90333C17.0872 9.69427 16.5463 9.58667 16 9.58667C14.8967 9.58667 13.8386 10.025 13.0584 10.8051C12.2783 11.5853 11.84 12.6434 11.84 13.7467C11.84 14.85 12.2783 15.9081 13.0584 16.6882C13.8386 17.4684 14.8967 17.9067 16 17.9067Z" stroke="#EC1C24" stroke-width="2"/>
<path d="M4.82667 11.3201C7.45333 -0.226582 24.56 -0.213249 27.1733 11.3334C28.7067 18.1068 24.4933 23.8401 20.8 27.3868C19.5094 28.6315 17.7863 29.327 15.9933 29.327C14.2003 29.327 12.4772 28.6315 11.1867 27.3868C7.50667 23.8401 3.29333 18.0934 4.82667 11.3201Z" stroke="#EC1C24" stroke-width="2"/>
</svg>
