<svg width="44" height="51" viewBox="0 0 44 51" fill="none" xmlns="http://www.w3.org/2000/svg">
<path d="M11.5882 49.2363H32.4141M21.9433 49.0318L22.0012 27.5853M22.0012 27.5853C27.5385 29.4824 36.4034 31.5444 40.4691 32.4836C41.4016 32.6965 42.3526 32.302 42.783 31.5194L42.7807 31.5215C43.2134 30.7388 42.9913 29.8143 42.2416 29.2737C39.2103 27.0886 33.3883 22.9938 28.4803 20.1262C27.6103 19.619 27.0433 18.7926 26.9276 17.8638C26.2728 12.6233 24.8057 6.09915 23.9889 2.6743C23.7876 1.82696 22.9707 1.23633 22.0012 1.23633C21.0316 1.23633 20.2148 1.82696 20.0134 2.6743C19.1966 6.09915 17.7295 12.6233 17.0747 17.8638C16.959 18.7926 16.3897 19.617 15.5197 20.1262C10.6117 22.9938 4.79206 27.0886 1.75843 29.2737C1.0087 29.8143 0.786557 30.7367 1.21927 31.5194C1.65199 32.302 2.60303 32.6944 3.53326 32.4836C7.59892 31.5444 15.249 29.687 20.7886 27.7898C21.1843 27.6542 21.5939 27.5853 22.0012 27.5853ZM22.0012 27.5853C21.6032 27.4496 22.4084 27.5853 22.0012 27.5853ZM24.3175 22.1047C24.3175 23.2568 23.2808 24.1918 22.0035 24.1918C20.7262 24.1918 19.6895 23.2568 19.6895 22.1047C19.6895 20.9527 20.7262 20.0177 22.0035 20.0177C23.2808 20.0177 24.3175 20.9527 24.3175 22.1047Z" stroke="#EC1C24" stroke-width="2"/>
</svg>
