<svg width="51" height="45" viewBox="0 0 51 45" fill="none" xmlns="http://www.w3.org/2000/svg">
<path d="M11.8073 17.3163V12.4978H0V17.3163H2.70888V27.6232H0V32.4416H11.8073V27.6232H9.09846V17.3163H11.8073Z" fill="#EC1C24"/>
<path d="M24.837 20.1504C24.1072 19.9243 20.3521 18.7795 19.7019 18.5534C19.0517 18.3273 18.521 18.0022 18.521 17.5924C18.521 17.1825 19.1181 16.7444 20.3255 16.7444C24.1337 16.7444 25.9631 19.2459 25.9631 19.2459C25.9631 19.2459 26.1693 19.5384 26.2384 19.6433H29.9125V12.8185H25.9682V14.0601C25.667 13.8385 23.4429 12.2925 19.9938 12.2925C15.4426 12.2925 12.9082 14.8082 12.9082 18.5675C12.9082 22.3269 16.106 23.8816 16.995 24.2773C17.8841 24.673 21.3605 25.7189 22.8466 26.2135C24.3328 26.7082 24.8768 27.0615 24.8768 27.3159C24.8768 27.5703 24.2266 28.2345 22.369 28.2345C19.1331 28.2345 17.4668 26.2021 17.1743 25.8085V25.8055C17.0813 25.6727 16.9722 25.5157 16.9352 25.4565C16.8923 25.3881 16.7928 25.2363 16.7238 25.1314H13.0497V32.4196H17.1743V30.8976C17.6542 31.2379 20.1109 32.8702 23.0589 32.8702C26.3496 32.8702 30.5426 31.3438 30.5426 26.581C30.5426 21.8181 25.5668 20.3766 24.837 20.1504Z" fill="#EC1C24"/>
<path d="M41.0161 12.2256C35.5304 12.2256 31.0312 15.1469 31.0312 22.6043C31.0312 30.0617 35.9154 32.8549 41.0401 32.8549C46.1647 32.8549 51.0008 30.0872 51.0008 22.6813C51.0008 15.2754 46.165 12.2256 41.0161 12.2256ZM41.0643 27.8834C39.1875 27.8834 37.9845 27.4221 37.9845 22.5788C37.9845 17.7353 38.8748 17.2228 41.1363 17.2228C42.5077 17.2228 44.1679 17.3252 44.1679 22.425C44.1679 27.5248 42.941 27.8834 41.0643 27.8834Z" fill="#EC1C24"/>
<path d="M7.86787 10.2987C9.10103 8.35917 10.6175 6.63992 12.356 5.21215C13.0589 5.76571 13.8061 6.26783 14.5916 6.71533C13.2755 8.27788 12.0964 10.009 11.9011 10.2987H12.6908C13.1647 9.61826 14.1451 8.2495 15.179 7.03599C16.3089 7.62765 17.5098 8.11156 18.7628 8.48015C18.4293 9.23384 18.1772 9.89289 18.0292 10.2987H18.7153C18.8729 9.88079 19.1039 9.29795 19.3921 8.65393C20.9905 9.0699 22.6654 9.30303 24.3788 9.33854V10.2988H25.0157V9.34182C26.7166 9.32859 28.3822 9.12213 29.975 8.73421C30.2465 9.346 30.4651 9.89832 30.6161 10.2987H31.3022C31.16 9.90895 30.922 9.28596 30.6077 8.56925C31.8831 8.21581 33.1069 7.74456 34.2595 7.16216C35.2537 8.34346 36.1832 9.64189 36.6408 10.2987H37.4303C37.2411 10.0179 36.123 8.37591 34.8524 6.84965C35.726 6.36879 36.5542 5.82168 37.3283 5.21215C39.0668 6.63992 40.5834 8.35917 41.8164 10.2987H42.5825C38.8154 4.10604 32.2707 0 24.842 0C17.4133 0 10.8687 4.10604 7.10156 10.2987H7.86787ZM19.047 7.85977C17.8551 7.51685 16.7116 7.0673 15.6335 6.51736C15.78 6.35522 15.9264 6.19818 16.071 6.0495C17.5473 4.5332 19.9754 2.86821 20.5077 2.5098C20.9396 2.7625 21.4109 2.97619 21.9123 3.14578C21.5229 3.68962 20.7584 4.79358 19.9258 6.19388C19.6018 6.73885 19.3065 7.31164 19.047 7.85977ZM24.3788 8.65993C22.7657 8.62555 21.1885 8.41164 19.6809 8.03084C19.9167 7.53991 20.1798 7.03474 20.4639 6.55693C21.4231 4.94384 22.2885 3.7327 22.5768 3.33867C23.152 3.4826 23.7565 3.57362 24.3788 3.60336V8.65993ZM25.0157 8.66332V3.61104C25.6296 3.59996 26.2302 3.53077 26.805 3.40764C27.1345 3.86159 27.9591 5.02887 28.8676 6.55693C29.1665 7.05973 29.4422 7.59271 29.6873 8.10772C28.1851 8.46161 26.617 8.65065 25.0157 8.66332ZM30.3258 7.94706C30.0565 7.37269 29.7469 6.7678 29.4056 6.19388C28.616 4.86583 27.8874 3.80416 27.4822 3.23409C28.0154 3.07455 28.5188 2.86719 28.981 2.61631C29.7282 3.12645 31.8984 4.65056 33.2604 6.0495C33.4412 6.23526 33.6244 6.43369 33.8074 6.63947C32.7068 7.18071 31.5402 7.61883 30.3258 7.94706ZM36.795 4.78804C36.0478 5.36252 35.2494 5.87719 34.4088 6.32967C34.1739 6.06126 33.937 5.802 33.7025 5.56118C32.4286 4.25268 30.5318 2.87997 29.6024 2.23539C29.9181 2.0174 30.2068 1.77635 30.4642 1.51393C32.7647 2.21402 34.9003 3.33347 36.795 4.78804ZM24.8422 0.678385C26.5241 0.678385 28.1587 0.896938 29.7239 1.306C28.5361 2.33364 26.7563 2.9365 24.8422 2.9365C22.9195 2.9365 21.1446 2.33557 19.9583 1.30657C21.5241 0.897164 23.1594 0.678385 24.8422 0.678385ZM19.2199 1.51393C19.4295 1.72785 19.6589 1.92797 19.9074 2.11249C19.0654 2.68957 16.9915 4.16178 15.629 5.56106C15.4329 5.76254 15.2351 5.97714 15.0381 6.19897C14.2845 5.77871 13.5659 5.30802 12.8896 4.78804C14.784 3.33347 16.9195 2.21414 19.2199 1.51393Z" fill="#EC1C24"/>
<path d="M41.8169 34.7015C40.61 36.6002 39.1313 38.2876 37.4389 39.6973C36.6329 39.0517 35.7678 38.4746 34.8529 37.9706C35.955 36.6463 36.9426 35.2351 37.3082 34.7016H36.515C36.0261 35.397 35.1702 36.5766 34.2598 37.6583C33.1072 37.0756 31.8835 36.6041 30.6079 36.2507C30.8776 35.6355 31.0906 35.0904 31.2357 34.7016H30.5476C30.4017 35.0806 30.2078 35.5615 29.9748 36.0865C28.3829 35.6991 26.7175 35.4928 25.0153 35.4796V34.7016H24.3784V35.4827C22.6636 35.5181 20.9888 35.751 19.3914 36.1664C19.1425 35.6105 18.9363 35.0997 18.7831 34.7016H18.0949C18.2468 35.1091 18.4736 35.6885 18.7619 36.3399C17.5086 36.7086 16.3072 37.1919 15.1774 37.7839C14.2279 36.6692 13.3238 35.424 12.8157 34.7015H12.0225C12.4002 35.2527 13.4434 36.7431 14.5911 38.1055C13.7645 38.577 12.9796 39.1083 12.2445 39.6972C10.552 38.2875 9.07333 36.6001 7.86649 34.7014H7.10156C10.8688 40.8941 17.4132 45.0001 24.8418 45.0001C32.2703 45.0001 38.8149 40.8942 42.5821 34.7014L41.8169 34.7015ZM30.3256 36.8733C31.5404 37.2014 32.707 37.6394 33.8077 38.1809C33.6244 38.3869 33.4411 38.5856 33.26 38.7717C31.9022 40.1661 29.7389 41.6867 28.9861 42.201C28.5239 41.9491 28.0199 41.7417 27.485 41.5822C27.8909 41.0111 28.6176 39.9514 29.4051 38.6271C29.7466 38.0531 30.0562 37.4479 30.3256 36.8733ZM25.0152 36.1579C26.6177 36.1706 28.1858 36.359 29.6871 36.7125C29.4419 37.2278 29.1662 37.7609 28.867 38.2642C27.9597 39.7901 27.1364 40.9561 26.8059 41.4114C26.2327 41.2898 25.6321 41.2211 25.0151 41.2103V36.1579H25.0152ZM24.3783 36.1613V41.2173C23.7537 41.2468 23.1485 41.3367 22.574 41.4796C22.2837 41.0826 21.4211 39.8749 20.4634 38.2642C20.179 37.786 19.9158 37.2805 19.6799 36.7891C21.1866 36.4088 22.7638 36.1956 24.3783 36.1613ZM19.0462 36.9608C19.3058 37.5092 19.6012 38.082 19.9253 38.6272C20.7572 40.0264 21.5212 41.1297 21.9109 41.674C21.4088 41.8435 20.938 42.0574 20.5063 42.3107C19.972 41.9508 17.546 40.287 16.0706 38.7717C15.9257 38.6229 15.7793 38.4657 15.6326 38.3034C16.7105 37.7532 17.854 37.3036 19.0462 36.9608ZM12.7737 40.1225C13.4835 39.5667 14.2404 39.0656 15.0366 38.6213C15.2338 38.8434 15.432 39.0583 15.6284 39.2601C16.9905 40.659 19.0638 42.1309 19.9061 42.7082C19.606 42.9319 19.3325 43.1779 19.0894 43.445C16.792 42.728 14.661 41.5928 12.7737 40.1225ZM24.8417 44.3218C23.1048 44.3218 21.4178 44.0895 19.8062 43.6541C20.983 42.5526 22.8517 41.8847 24.8417 41.8847C26.8293 41.8847 28.6998 42.553 29.8767 43.6542C28.2652 44.0896 26.5785 44.3218 24.8417 44.3218ZM30.5936 43.445C30.3047 43.1279 29.9745 42.8386 29.606 42.5828C30.537 41.9371 32.43 40.5665 33.702 39.2599C33.9366 39.019 34.1735 38.7596 34.4086 38.491C35.2921 38.967 36.1295 39.5115 36.9097 40.1224C35.0222 41.5929 32.8911 42.7281 30.5936 43.445Z" fill="#EC1C24"/>
</svg>
