<svg width="44" height="44" viewBox="0 0 44 44" fill="none" xmlns="http://www.w3.org/2000/svg">
<path d="M35.121 43H39.2978C40.6626 43 41.87 42.2878 42.5297 41.0925L42.5314 41.0942C43.1911 39.9007 43.1526 38.4973 42.4264 37.344L40.4194 34.1485M37.6267 29.7L35.5585 26.4065C34.8761 25.3198 33.7247 24.6775 32.4176 24.6775C31.1332 24.6828 29.9626 25.339 29.2872 26.4328L27.2959 29.6668M24.5418 34.1345L22.5487 37.3703C21.8366 38.5253 21.8068 39.9235 22.47 41.1083C23.1332 42.293 24.337 43 25.6931 43H29.8699M19.5338 42.9983H11.2101C8.96857 42.9983 7.09804 41.3183 6.86007 39.0905L3.71393 9.75H1V8H11.4988V5.375C11.4988 2.96175 13.462 1 15.8733 1H24.6222C27.0335 1 28.9967 2.96175 28.9967 5.375V8H39.4955V9.75H36.7798L35.457 21.8583" stroke="#EC1C24" stroke-width="1.55537" stroke-linecap="round"/>
</svg>
