<svg width="46" height="45" viewBox="0 0 46 45" fill="none" xmlns="http://www.w3.org/2000/svg">
<path d="M34.5513 29.9799L33.851 29.0889C32.125 27.1905 29.9883 25.779 27.4914 24.9041H27.4747C27.4747 24.9041 27.4579 24.8876 27.4495 24.8876H27.4328C27.24 24.8133 27.0389 24.7472 26.8379 24.6895L25.0615 24.2694M14.1689 24.1191L12.5937 24.6812C12.3926 24.739 12.1999 24.805 12.0155 24.871H11.9988L11.982 24.8793C11.9652 24.8793 11.9569 24.8876 11.9401 24.8958H11.9234L11.9066 24.9123C9.11641 25.9028 6.77031 27.5537 4.95208 29.8236C3.18412 32.0192 1.92728 34.7348 1.21507 37.9044C0.980463 38.9527 0.796127 40.2486 1.45806 41.0575C2.10324 41.8416 3.34332 41.9489 4.36555 41.9489H35.4515M29.251 11.0371V9.74942C28.7399 6.24965 26.31 3.34418 22.9249 2.16384L22.2127 1.91621V2.66734C22.2462 5.6471 22.4305 7.60333 23.369 10.0135L24.0478 11.0371M17.7636 1H19.9295H22.0954M15.6689 11.0371L16.272 10.0053C17.2105 7.58682 17.3948 5.61408 17.4367 2.59305V1.85843L16.7245 2.08955C13.2807 3.21212 10.7168 6.21663 10.1805 9.74116V11.0371M10.1805 14.7596C10.1805 16.4682 10.8006 20.3395 12.2166 22.1307L12.2082 22.1389C13.5991 23.8805 15.4593 25.2755 17.311 25.9606C18.2076 26.2825 18.97 26.4393 19.7074 26.4393C20.4447 26.4393 21.2072 26.2908 22.0954 25.9606C23.9555 25.2755 25.8156 23.8888 27.2065 22.1389C28.6226 20.3478 29.4102 18.4163 29.4102 16.6994V14.7596M11.5128 25.4901V26.6457C11.362 29.3778 12.8702 31.169 13.8673 32.3493C13.9259 32.4236 14.0181 32.4649 14.1186 32.4731C14.1186 32.4731 14.127 32.4731 14.1354 32.4731C14.2276 32.4731 14.3113 32.4401 14.3784 32.3741L19.7158 27.2565L25.0615 32.3741C25.1285 32.4401 25.2123 32.4731 25.3045 32.4731C25.3045 32.4731 25.3129 32.4731 25.3213 32.4731C25.4218 32.4731 25.5056 32.4236 25.5726 32.3493C26.5697 31.1607 28.0779 29.3696 27.9187 26.6457V25.0604M8.25338 12.6962C8.25338 11.7799 9.00748 11.0371 9.93754 11.0371H29.4772C30.4073 11.0371 31.1614 11.7799 31.1614 12.6962C31.1614 13.6124 30.4073 14.3552 29.4772 14.3552H9.94592C9.01586 14.3552 8.26176 13.6124 8.26176 12.6962H8.25338ZM44.5425 31.6725C44.5174 34.1735 44.0314 36.0224 42.8081 38.2511C42.0121 39.7203 39.3308 43.4017 37.7472 43.4017C36.1636 43.4017 33.4823 39.712 32.6863 38.2511C31.463 36.0142 30.977 34.1735 30.9519 31.6725V31.235L31.3876 31.1525C32.2758 30.9874 33.2142 30.6572 34.161 30.1867H34.1778L34.1946 30.1702C34.2029 30.1702 34.2197 30.162 34.2365 30.1455H34.2532L34.27 30.129C35.376 29.5594 36.4569 28.8083 37.3953 27.9416L37.7556 27.6114L38.1159 27.9416C39.9257 29.6007 42.1126 30.7728 44.1152 31.1442L44.5509 31.2268V31.6642L44.5425 31.6725Z" stroke="#EC1C24" stroke-width="2" stroke-linecap="round"/>
</svg>
