<svg width="44" height="46" viewBox="0 0 44 46" fill="none" xmlns="http://www.w3.org/2000/svg">
<path d="M2.08203 28.7777L3.45512 33.0641L5.55221 32.3695C5.61046 32.361 5.64375 32.361 5.67704 32.361C6.05152 32.361 6.40935 32.5728 6.60076 32.9116C7.30811 34.2416 8.19021 35.4784 9.22211 36.5881C9.57995 36.9693 9.61324 37.5453 9.31365 37.952L8.13196 39.6208L12.0016 42.4756L13.1916 40.8068C13.3913 40.5357 13.6992 40.3747 14.0321 40.3747C14.1819 40.3747 14.34 40.4086 14.4815 40.4764C15.8379 41.1371 17.2609 41.6115 18.7256 41.8911C19.2249 41.9758 19.591 42.4163 19.591 42.933V45H24.3761V42.933C24.3761 42.4247 24.7422 41.9842 25.2415 41.8911C26.6978 41.6115 28.1209 41.1371 29.469 40.4848C29.6105 40.4171 29.7686 40.3832 29.9267 40.3832C30.2596 40.3832 30.5675 40.5357 30.7672 40.8152L31.9655 42.4925L35.8352 39.6377L34.6451 37.9689C34.3456 37.5623 34.3872 36.9862 34.7367 36.605C35.7686 35.4869 36.6424 34.2585 37.3497 32.937C37.5494 32.5812 37.9073 32.3695 38.2817 32.3695C38.3899 32.3695 38.4981 32.3864 38.598 32.4203L40.5286 33.0641L41.91 28.7607" stroke="white" stroke-width="1.5" stroke-linecap="round"/>
<path d="M35.3692 27.0063L35.3359 27.108C33.372 32.8769 28.0211 36.7482 22.0045 36.7482H21.9878C15.9712 36.7482 10.6203 32.8769 8.65633 27.108L8.62305 27.0063" stroke="white" stroke-width="1.5" stroke-linecap="round"/>
<path d="M43 24.8467H22H1" stroke="white" stroke-width="1.5" stroke-linecap="round"/>
<path d="M9.93698 11.4958V22.0424M9.93698 11.4958V5.55749C9.93698 5.44737 9.98692 5.34571 10.0701 5.27794L14.1977 1.77935C14.2643 1.72852 14.3475 1.69464 14.4307 1.69464C14.514 1.69464 14.5972 1.72852 14.6638 1.77935L18.7997 5.28641C18.8829 5.35418 18.9328 5.45584 18.9328 5.56596V8.7003H25.0909V1.36426C25.0909 1.16942 25.2574 1 25.4488 1H33.704C33.8954 1 34.0618 1.16942 34.0618 1.36426V12.2074H39.8954C40.0868 12.2074 40.2532 12.3768 40.2532 12.5716V22.0424M9.93698 11.4958H4.11174C3.92034 11.4958 3.75391 11.6652 3.75391 11.86V22.0339M18.9328 5.74386V22.0424M25.0826 8.7003V22.0424M34.0618 22.0424V12.5716" stroke="white" stroke-width="1.5" stroke-linecap="round"/>
<path d="M27.8301 4.38867L27.8301 5.23579" stroke="white" stroke-width="1.5"/>
<path d="M27.8301 6.08252L27.8301 6.92964" stroke="white" stroke-width="1.5"/>
<path d="M27.8301 7.77686L27.8301 8.62397" stroke="white" stroke-width="1.5"/>
<path d="M30.957 4.38867L30.957 5.23579" stroke="white" stroke-width="1.5"/>
<path d="M30.957 6.08252L30.957 6.92964" stroke="white" stroke-width="1.5"/>
<path d="M30.957 7.77686L30.957 8.62397" stroke="white" stroke-width="1.5"/>
<path d="M16.1616 8.03955H12.6914" stroke="white" stroke-width="1.5"/>
<path d="M16.1616 11.5381H12.6914" stroke="white" stroke-width="1.5"/>
</svg>
