<svg width="36" height="44" viewBox="0 0 36 44" fill="none" xmlns="http://www.w3.org/2000/svg">
<path d="M35 37C35 40.3137 32.3137 43 29 43H7C3.68629 43 1 40.3137 1 37V8.51212C1 5.19842 3.68629 2.51213 7 2.51213H14.9079C15.6914 2.51213 16.3402 1.8986 16.9628 1.42292V1.42292C17.3214 1.14888 17.7636 1 18.2189 1C18.6743 1 19.1165 1.14888 19.4751 1.42292V1.42292C20.0977 1.8986 20.7465 2.51213 21.53 2.51213H29C32.3137 2.51213 35 5.19842 35 8.51213V37Z" stroke="white" stroke-width="2"/>
<path d="M10.9219 25L15.9843 30.4578L27.4995 19.5M10.9219 2.51904L12.961 6.16435C13.0554 6.33276 13.1944 6.47324 13.3635 6.57103C13.5326 6.66882 13.7256 6.72031 13.9221 6.72008H22.3325C22.5222 6.71992 22.7086 6.6715 22.8734 6.57957C23.0381 6.48764 23.1756 6.35538 23.2721 6.1958L25.5168 2.51904" stroke="white" stroke-width="2" stroke-linecap="round"/>
</svg>
