<svg width="31" height="39" viewBox="0 0 31 39" fill="none" xmlns="http://www.w3.org/2000/svg">
<path d="M15.478 37.7968C15.3913 37.7968 15.2806 37.7968 15.1731 37.7497C6.09702 33.7694 1.82866 25.7537 1.06254 24.1835C1.01564 24.0814 1 24.0186 1 24.0029V8.44259C1 8.21491 1.16417 8.0579 1.21107 8.03434C5.56543 6.94308 11.6631 3.28459 14.9152 1.19627L15.0715 1.09421H15.0872C15.1341 1.07851 15.2044 1.0471 15.2904 1H15.4624C15.5093 1.0157 15.5562 1.0314 15.6031 1.03925C15.6109 1.03925 15.6266 1.0471 15.6344 1.05496C16.7836 1.85574 24.5542 6.78606 29.5886 8.05005C29.7841 8.09715 29.9092 8.24632 29.9092 8.44259V24.0108C29.9092 24.0108 29.8857 24.0814 29.8701 24.1207L29.8232 24.2463C29.7137 24.4975 25.6095 33.4161 15.7438 37.7419L15.5892 37.7968H15.4702H15.478Z" stroke="#EC1C24" stroke-width="2"/>
<path d="M9.66211 19.4176L13.821 23.5943C13.9148 23.6885 14.0086 23.7356 14.1181 23.7356C14.2197 23.7356 14.3213 23.6885 14.4152 23.5943L21.3884 16.5913" stroke="#EC1C24" stroke-width="2" stroke-linecap="round"/>
</svg>
