<svg width="28" height="39" viewBox="0 0 28 39" fill="none" xmlns="http://www.w3.org/2000/svg">
<path d="M2.15894 37.7818H25.7502M13.9545 32.5694C13.9607 32.5694 23.4582 30.7326 26.9091 22.1758V7.47354C26.9091 6.80952 26.408 6.28259 25.7835 6.25321C18.148 5.89602 13.9603 2.0056 13.9545 2C13.9488 2.0056 9.75938 5.89602 2.12559 6.25321C1.50114 6.28259 1 6.80952 1 7.47354V22.1758C4.45048 30.7326 13.948 32.5685 13.9545 32.5694Z" stroke="white" stroke-width="2" stroke-linecap="round"/>
<path d="M20.8631 14.2183L13.4006 22.3291C13.2208 22.5245 13.0074 22.6795 12.7725 22.7853C12.5376 22.8911 12.2858 22.9455 12.0315 22.9455C11.7772 22.9455 11.5255 22.8911 11.2906 22.7853C11.0556 22.6795 10.8422 22.5245 10.6624 22.3291L7.04492 18.3973" stroke="white" stroke-width="2" stroke-linecap="round"/>
</svg>
