<svg width="32" height="42" viewBox="0 0 32 42" fill="none" xmlns="http://www.w3.org/2000/svg">
<path d="M1.07006 10.7308C1.02802 10.7788 1 10.8406 1 10.9023V40.76C1 40.8903 1.1121 41 1.24521 41V40.9931H30.7548C30.8879 40.9931 31 40.8834 31 40.7531L30.9852 22.539M1.07006 10.7308L10.9416 1.06858C10.9907 1.02057 11.0537 1 11.1168 1H30.7478C30.8809 1 30.993 1.10972 30.993 1.24001L30.985 23.0037M1.07006 10.7308L9.40028 10.6623C10.213 10.6623 10.8716 10.0177 10.8716 9.22218L10.7665 1.24001M6.4227 35.3357H21.8162M6.4227 28.9787H24.7563M6.4227 23.0881H25.5703M6.4227 16.7312H25.5703M24.6875 5.49169L23.0972 6.76033M23.1805 6.69387L20.2597 9.03017C20.2036 9.07818 20.1406 9.08503 20.1056 9.08503C20.0705 9.08503 19.9865 9.07132 19.9234 9.00274L18.5292 7.48723" stroke="#EC1C24" stroke-width="2" stroke-linecap="round"/>
</svg>
