<svg id="e4K7xJHfQME1" xmlns="http://www.w3.org/2000/svg" xmlns:xlink="http://www.w3.org/1999/xlink" viewBox="0 0 55 54" shape-rendering="geometricPrecision" text-rendering="geometricPrecision" project-id="45260836d1e5482ca3a318d1232b6a2b" export-id="434683b967c1435083321fafb626e93f" cached="false">
<style><![CDATA[
#e4K7xJHfQME3_to {animation: e4K7xJHfQME3_to__to 3000ms linear infinite alternate-reverse forwards}@keyframes e4K7xJHfQME3_to__to { 0% {transform: translate(38.324999px,16.317665px)} 33.333333% {transform: translate(41.324999px,16.317665px)} 100% {transform: translate(41.324999px,16.317665px)}} #e4K7xJHfQME4_ts {animation: e4K7xJHfQME4_ts__ts 3000ms linear infinite alternate-reverse forwards}@keyframes e4K7xJHfQME4_ts__ts { 0% {transform: translate(21.341874px,38.947562px) scale(0.7,1)} 33.333333% {transform: translate(21.341874px,38.947562px) scale(1,1)} 100% {transform: translate(21.341874px,38.947562px) scale(1,1)}} #e4K7xJHfQME5_to {animation: e4K7xJHfQME5_to__to 3000ms linear infinite alternate-reverse forwards}@keyframes e4K7xJHfQME5_to__to { 0% {transform: translate(42.210676px,37.29165px)} 33.333333% {transform: translate(45.210676px,37.29165px)} 100% {transform: translate(45.210676px,37.29165px)}}
]]></style>
<path d="M21.1472,23.493c-.225-.0224-.4951-.0224-.7426,0-5.3557-.1793-9.6088-4.5476-9.6088-9.9239c0-5.48839,4.4556-9.9463,9.9913-9.9463c5.5133,0,9.9914,4.45791,9.9914,9.9463-.0225,5.3763-4.2756,9.7446-9.6313,9.9239Z" fill="none" stroke="#ec1c24" stroke-width="2" stroke-linecap="round" stroke-linejoin="round"/><g id="e4K7xJHfQME3_to" transform="translate(41.324999,16.317665)"><path d="M37.7178,9.14233c4.1531,0,7.4927,3.21867,7.4927,7.17537c0,3.8746-3.2112,7.0318-7.2144,7.1753-.1713-.0205-.364-.0205-.5566,0" transform="translate(-41.324999,-16.317665)" fill="none" stroke="#ec1c24" stroke-width="2" stroke-linecap="round" stroke-linejoin="round"/></g><g id="e4K7xJHfQME4_ts" transform="translate(21.341874,38.947562) scale(1,1)"><path d="M10.3433,32.1753c-5.31794,3.7332-5.31794,9.817,0,13.5272c6.0432,4.2402,15.954,4.2402,21.9971,0c5.318-3.7333,5.318-9.817,0-13.5272-6.0211-4.2171-15.9319-4.2171-21.9971,0Z" transform="translate(-21.341874,-38.947562)" fill="none" stroke="#ec1c24" stroke-width="2" stroke-linecap="round" stroke-linejoin="round"/></g><g id="e4K7xJHfQME5_to" transform="translate(45.210676,37.29165)"><path d="M41.8802,44.467c1.5323-.3588,2.9794-1.0524,4.1711-2.0808c3.3198-2.7984,3.3198-7.4146,0-10.2129-1.1705-1.0046-2.5963-1.6743-4.1072-2.057" transform="translate(-45.210676,-37.29165)" fill="none" stroke="#ec1c24" stroke-width="2" stroke-linecap="round" stroke-linejoin="round"/></g></svg>
