<svg width="48" height="49" viewBox="0 0 48 49" fill="none" xmlns="http://www.w3.org/2000/svg">
<path d="M7.96857 26.6986H13.945V28.6986H7.96857V26.6986ZM7.96857 36.6986H13.945V34.6986H7.96857V36.6986ZM17.9293 36.6986H23.9057V34.6986H17.9293V36.6986ZM7.96857 12.6986H13.945V10.6986H7.96857V12.6986ZM7.96857 20.6986H13.945V18.6986H7.96857V20.6986ZM17.9293 28.6986H23.9057V26.6986H17.9293V28.6986ZM17.9293 12.6986H23.9057V10.6986H17.9293V12.6986ZM17.9293 20.6986H23.9057V18.6986H17.9293V20.6986ZM35.8585 36.6986H39.8428V34.6986H35.8585V36.6986ZM35.8585 20.6986H39.8428V18.6986H35.8585V20.6986ZM35.8585 28.6986H39.8428V26.6986H35.8585V28.6986ZM47.8114 15.6986V48.6986H0V5.69861C0 2.94061 2.23518 0.698608 4.98035 0.698608H26.8939C29.6391 0.698608 31.8743 2.94061 31.8743 5.69861V10.6986H42.831C45.5762 10.6986 47.8114 12.9406 47.8114 15.6986ZM29.8821 5.69861C29.8821 4.04461 28.5414 2.69861 26.8939 2.69861H4.98035C3.33285 2.69861 1.99214 4.04461 1.99214 5.69861V46.6986H29.8821V5.69861ZM45.8193 15.6986C45.8193 14.0446 44.4785 12.6986 42.831 12.6986H31.8743V46.6986H45.8193V15.6986Z" fill="#EC1C24"/>
</svg>
