<svg width="48" height="49" viewBox="0 0 48 49" fill="none" xmlns="http://www.w3.org/2000/svg">
<path d="M47.8043 23.5457C47.7544 33.7445 44.749 42.0897 38.875 48.3552C38.4646 48.7946 37.7762 48.8142 37.3398 48.4031C36.9033 47.9919 36.8816 47.3044 37.292 46.865C42.7772 41.015 45.5828 33.1637 45.6306 23.5349C45.648 19.9866 45.2832 16.1882 44.547 12.244C44.2452 10.397 42.3191 9.08082 40.495 9.46154C38.6123 9.81614 37.3658 11.637 37.7198 13.5232C38.3604 16.967 39.09 20.8677 39.0857 24.4616C39.0987 29.97 37.9934 34.073 34.5667 38.8178C34.2128 39.3029 33.5353 39.4117 33.051 39.0593C32.5646 38.7068 32.4582 38.0259 32.81 37.5408C34.6427 35.0063 35.6742 32.7808 36.2497 30.5422C36.3778 29.6915 36.3409 28.5472 35.4744 27.7097C34.4538 26.7263 32.8817 26.524 31.6504 27.2158C31.5874 27.2485 29.1966 28.5777 25.2249 34.1796C27.3247 37.2906 29.7699 41.4349 32.4951 46.989C32.76 47.5285 32.5386 48.179 32 48.4444C31.4723 48.7055 30.8122 48.4922 30.5473 47.9484C21.9307 30.3921 16.2544 27.2659 16.1979 27.2354C14.9232 26.5197 13.3532 26.722 12.3326 27.7075C11.4922 28.5189 11.4314 29.6263 11.5465 30.4704C12.3196 33.5139 13.9287 36.5139 17.1425 40.2275C17.5356 40.6822 17.4856 41.3675 17.0339 41.7634C16.5823 42.155 15.8961 42.1071 15.5008 41.6546C10.4238 35.6633 8.75829 31.4232 8.72138 24.4595C8.71704 20.8721 9.41409 17.1345 10.0873 13.521C10.439 11.6349 9.1926 9.81179 7.31207 9.45936C5.48148 9.06995 3.5662 10.397 3.25785 12.2397C2.5217 16.1882 2.15689 19.9888 2.17426 23.5305C2.22204 33.1615 5.02763 41.0107 10.5129 46.8606C10.9233 47.2979 10.9016 47.9875 10.4651 48.3987C10.0286 48.8099 9.34026 48.7903 8.92984 48.3508C3.0559 42.0876 0.0526923 33.7402 0.000575942 23.5414C-0.0167962 19.8604 0.358876 15.925 1.12108 11.8394C1.62053 8.83934 4.73231 6.69212 7.70945 7.31867C10.7669 7.89082 12.7908 10.8517 12.2219 13.917C11.5661 17.4326 10.8864 21.0678 10.8907 24.4551C10.8907 25.0012 10.9124 25.5255 10.9342 26.0476C12.641 24.4877 15.2012 24.1788 17.2185 25.3144C17.3445 25.3753 19.8156 26.6698 23.909 32.2913C27.9219 26.7829 30.3627 25.4232 30.6428 25.2862C32.6146 24.1766 35.1791 24.4899 36.8838 26.0541C36.9055 25.532 36.9185 25.0012 36.9185 24.4529C36.9228 21.0613 36.2453 17.4282 35.5895 13.9148C35.0184 10.8495 37.0401 7.88865 40.1019 7.31431C43.0747 6.69647 46.193 8.83499 46.6903 11.835C47.4525 15.9141 47.8282 19.8517 47.8108 23.537L47.8043 23.5457ZM15.5877 18.2897C15.2359 17.7023 15.1404 17.0236 15.3163 16.3775C15.8027 14.5848 17.566 11.5761 23.9176 11.5761C30.2693 11.5761 32.0326 14.5848 32.519 16.3775C32.9186 17.7393 31.9327 19.2274 30.5603 19.5189C29.0685 19.8648 26.708 20.2781 23.9176 20.2781C21.1272 20.2781 18.7646 19.867 17.2771 19.5211C16.5714 19.3557 15.9547 18.9076 15.5877 18.2919V18.2897ZM17.4118 16.9474C17.3597 17.1563 17.5681 17.3586 17.7701 17.4021C19.149 17.7219 21.3357 18.1026 23.9198 18.1026C26.5039 18.1026 28.6906 17.7219 30.0717 17.4C30.2715 17.3564 30.48 17.1541 30.4278 16.9474C29.8698 14.8872 27.5593 13.7516 23.922 13.7516C20.2847 13.7516 17.9742 14.8851 17.4161 16.9474H17.4118ZM19.5746 5.04962C19.5746 2.12139 20.9948 0.698608 23.9176 0.698608C26.8405 0.698608 28.2607 2.12139 28.2607 5.04962C28.2607 7.97784 26.8405 9.40062 23.9176 9.40062C20.9948 9.40062 19.5746 7.97784 19.5746 5.04962ZM21.7461 5.04962C21.7461 6.77697 22.1935 7.22512 23.9176 7.22512C25.6418 7.22512 26.0892 6.77697 26.0892 5.04962C26.0892 3.32227 25.6418 2.87411 23.9176 2.87411C22.1935 2.87411 21.7461 3.32227 21.7461 5.04962Z" fill="#EC1C24"/>
</svg>
