<svg id="eRmgVANdWLa1" xmlns="http://www.w3.org/2000/svg" xmlns:xlink="http://www.w3.org/1999/xlink" viewBox="0 0 38 50" shape-rendering="geometricPrecision" text-rendering="geometricPrecision" project-id="477abc6c605444bf843655d72c62fdfb" export-id="b065631fb7be4a4b82bb85735e51a8f3" cached="false">
<style><![CDATA[
#eRmgVANdWLa3 {animation: eRmgVANdWLa3_s_do 3000ms linear infinite normal forwards}@keyframes eRmgVANdWLa3_s_do { 0% {stroke-dashoffset: 23.63} 33.333333% {stroke-dashoffset: 23.63} 50% {stroke-dashoffset: 0} 100% {stroke-dashoffset: 0}} #eRmgVANdWLa4 {animation: eRmgVANdWLa4_s_do 3000ms linear infinite normal forwards}@keyframes eRmgVANdWLa4_s_do { 0% {stroke-dashoffset: 7.45} 16.666667% {stroke-dashoffset: 0} 100% {stroke-dashoffset: 0}} #eRmgVANdWLa5 {animation: eRmgVANdWLa5_s_do 3000ms linear infinite normal forwards}@keyframes eRmgVANdWLa5_s_do { 0% {stroke-dashoffset: 7.34} 16.666667% {stroke-dashoffset: 7.34} 33.333333% {stroke-dashoffset: 14.68} 100% {stroke-dashoffset: 14.68}} #eRmgVANdWLa6 {animation: eRmgVANdWLa6_s_do 3000ms linear infinite normal forwards}@keyframes eRmgVANdWLa6_s_do { 0% {stroke-dashoffset: 58.31} 33.333333% {stroke-dashoffset: 116.62} 100% {stroke-dashoffset: 116.62}}
]]></style>
<path d="M31.0189,15.0139l.0138,3.9113c0,6.4817-5.2985,11.7496-11.8137,11.7496-6.5153,0-11.81369-5.2679-11.81369-11.7457l-.01378-3.9152h-1.98076v-1.9577h1.97288l-.00394-1.0727c0-5.88658,4.81409-10.67295,10.73079-10.67295h2.1658c5.9167,0,10.7308,4.78441,10.7308,10.66505l.0039,1.0806h1.965v1.9577h-1.9571Z" fill="none" stroke="#ec1c24" stroke-width="2" stroke-linecap="round"/><path id="eRmgVANdWLa3" d="M7.39154,15.0139h23.62736" fill="none" stroke="#ec1c24" stroke-width="2" stroke-linecap="round" stroke-dashoffset="23.63" stroke-dasharray="23.63"/><path id="eRmgVANdWLa4" d="M15.2555,1.69397v7.44711" fill="none" stroke="#ec1c24" stroke-width="2" stroke-linecap="round" stroke-dashoffset="7.45" stroke-dasharray="7.45"/><path id="eRmgVANdWLa5" d="M23.1313,9.14108L23.115,1.81042" fill="none" stroke="#ec1c24" stroke-width="2" stroke-linecap="round" stroke-dashoffset="7.34" stroke-dasharray="7.34"/><path id="eRmgVANdWLa6" d="M36.9139,48.2934v-5.8729c0-5.3971-4.4163-9.7881-9.8447-9.7881h-15.726c-5.42838,0-9.84473,4.391-9.84473,9.7881v5.8729" fill="none" stroke="#ec1c24" stroke-width="2" stroke-linecap="round" stroke-dashoffset="58.31" stroke-dasharray="58.31"/></svg>
