<svg width="39" height="40" viewBox="0 0 39 40" fill="none" xmlns="http://www.w3.org/2000/svg">
<path d="M26.0272 7.75137H30.9433C31.0905 7.75137 31.2103 7.62617 31.2103 7.47077V2.30261" stroke="white" stroke-width="2" stroke-linecap="round"/>
<path d="M6.83905 37.6975V32.5293C6.83905 32.3739 6.95857 32.2488 7.10575 32.2488H12.0222" stroke="white" stroke-width="2" stroke-linecap="round"/>
<path d="M4.19874 28.9988C2.69686 26.2696 1.90259 23.1581 1.90259 19.9999C1.90259 10.0747 9.58416 2 19.0258 2C23.5962 2 27.8944 3.87373 31.1291 7.27677" stroke="white" stroke-width="2" stroke-linecap="round"/>
<path d="M6.92218 32.7232C10.1568 36.1262 14.4551 38.0001 19.0254 38.0001C28.4671 38.0001 36.1484 29.9247 36.1484 19.9995C36.1484 16.8406 35.3544 13.7291 33.8525 11.0006" stroke="white" stroke-width="2" stroke-linecap="round"/>
<path d="M21.1248 29.1036H16.9285C16.7807 29.1036 16.6615 28.9777 16.6615 28.823V26.8234C15.9073 26.5346 15.2126 26.1117 14.5918 25.563L12.9415 26.5649C12.88 26.6013 12.8067 26.6116 12.7387 26.5931C12.6706 26.5738 12.6117 26.527 12.5764 26.4624L10.478 22.642C10.4426 22.5774 10.4328 22.501 10.4511 22.4288C10.4695 22.3566 10.5142 22.2954 10.5757 22.2583L12.2193 21.2606C12.15 20.8459 12.1155 20.423 12.1155 20.0002C12.1155 19.5773 12.15 19.1537 12.2193 18.7397L10.5757 17.742C10.5142 17.7048 10.4695 17.643 10.4511 17.5715C10.4328 17.5 10.442 17.4229 10.478 17.3583L12.5764 13.5379C12.6117 13.4733 12.6706 13.4265 12.7387 13.4072C12.8067 13.388 12.88 13.3976 12.9415 13.4354L14.5918 14.4373C15.2126 13.8893 15.9073 13.4664 16.6615 13.1776V11.1772C16.6615 11.0218 16.7813 10.8967 16.9285 10.8967H21.1248C21.2726 10.8967 21.3915 11.0225 21.3915 11.1772V13.1776C22.1457 13.4664 22.8404 13.8893 23.4612 14.4373L25.1121 13.4354C25.1736 13.3983 25.2469 13.388 25.3149 13.4072C25.383 13.4265 25.4419 13.4733 25.4772 13.5379L27.5756 17.3583C27.6496 17.4924 27.6058 17.6643 27.4782 17.742L25.8343 18.7397C25.903 19.1551 25.9384 19.578 25.9384 20.0002C25.9384 20.4224 25.9036 20.8459 25.8343 21.2606L27.4782 22.2583C27.6058 22.336 27.6496 22.5072 27.5756 22.642L25.4772 26.4624C25.4419 26.527 25.383 26.5738 25.3149 26.5931C25.2469 26.6116 25.1736 26.602 25.1121 26.5649L23.4612 25.563C22.8397 26.1117 22.145 26.5346 21.3915 26.8234V28.823C21.3915 28.9784 21.2719 29.1036 21.1248 29.1036Z" stroke="white" stroke-width="2"/>
<path d="M19.0257 23.2214C17.3361 23.2214 15.9611 21.7761 15.9611 20C15.9611 18.2239 17.3361 16.7784 19.0257 16.7784C20.7153 16.7784 22.0903 18.2239 22.0903 20C22.0903 21.7761 20.7153 23.2214 19.0257 23.2214Z" stroke="white" stroke-width="1.8"/>
</svg>
