<svg width="39" height="40" viewBox="0 0 39 40" fill="none" xmlns="http://www.w3.org/2000/svg">
<path d="M21.87 4.39363L21.7291 4.30036C20.3245 3.37572 19.7249 3 18.979 3C18.2331 3 17.6268 3.37868 16.2096 4.31219L16.0942 4.38767C13.9212 5.74282 11.5595 6.62307 9.06567 7.00328C7.07286 7.35982 5.95814 7.66313 5.40505 8.32739C4.85618 8.98573 4.75635 10.1337 4.75635 12.159V20.1686C4.75635 26.5256 8.98433 32.6134 16.3546 36.8697L16.6192 37.0235C17.8197 37.7189 18.3317 38 18.9762 38C19.6208 38 20.1335 37.7174 21.3339 37.0235L21.5999 36.8697C28.9716 32.6149 33.2002 26.5286 33.2002 20.1701V12.1606C33.2002 10.1352 33.1004 8.98573 32.5515 8.32739C32.0012 7.66609 30.8475 7.35243 28.904 7.00328C26.4045 6.6216 23.9668 5.69918 21.7995 4.34699L21.87 4.39363Z" stroke="white" stroke-width="2" stroke-linecap="round"/>
<path d="M13.1155 20.1764L16.9534 23.8911C17.0604 23.9932 17.1981 24.051 17.3417 24.051C17.4852 24.051 17.6236 23.9947 17.7306 23.8911L24.8498 17" stroke="white" stroke-width="2" stroke-linecap="round"/>
</svg>
