<svg width="34" height="38" viewBox="0 0 34 38" fill="none" xmlns="http://www.w3.org/2000/svg">
<path d="M30.386 10.945C30.8574 11.7129 31.2675 12.5204 31.6119 13.3595M9.34001 15.1703C9.78146 15.0678 10.2743 14.9747 10.8186 14.8908C11.4473 14.7953 12.0821 14.7504 12.7174 14.7567C13.354 14.7277 13.9891 14.844 14.5789 15.0976C15.0078 15.2982 15.3528 15.6557 15.5496 16.1037C15.7565 16.6205 15.8554 17.178 15.8394 17.7384C15.8443 18.1665 15.7851 18.5928 15.6639 19.0015C15.5464 19.3807 15.3762 19.7395 15.1586 20.0662C14.9201 20.4203 14.6532 20.7522 14.3608 21.0583L9.86686 25.3897H16.6699M21.5862 26.2038V23.4224M21.5862 23.4224V21.402V20.0662M21.5862 23.4224H24.2221H17.4031L16.951 22.1984L19.8577 14.8294M20.7357 7.7356L24.3178 6.58427C24.6279 6.48525 24.8935 6.27173 25.0655 5.98309C25.2376 5.69445 25.3045 5.35017 25.2539 5.01376C25.2451 4.8638 25.2156 4.71599 25.1661 4.57503H25.1581L23.8285 0.900269M19.9694 36.6096C19.3734 36.728 18.7714 36.8101 18.1663 36.8555C17.9828 36.8555 17.1265 36.9003 16.9351 36.9003C14.4849 36.9031 12.0669 36.3153 9.86686 35.182C7.66686 34.0487 5.7436 32.4002 4.24508 30.3632C2.74656 28.3263 1.71271 25.9552 1.22309 23.4325C0.733476 20.9098 0.801141 18.3026 1.42088 15.8117C2.04062 13.3208 3.19592 11.0125 4.79787 9.06437C6.39982 7.11627 8.40573 5.58033 10.6612 4.57473C12.9167 3.56913 15.3617 3.12068 17.8081 3.26388C20.2544 3.40708 22.6369 4.13812 24.7721 5.40075M24.8439 34.7429C25.6053 34.2983 26.3279 33.784 27.0033 33.2059M30.4578 29.126C30.9187 28.3515 31.3198 27.5394 31.6571 26.6976M32.8725 21.402C32.9416 20.4915 32.9416 19.5767 32.8725 18.6662" stroke="white" stroke-width="1.8" stroke-linecap="round"/>
</svg>
