<svg width="38" height="37" viewBox="0 0 38 37" fill="none" xmlns="http://www.w3.org/2000/svg">
<path d="M18.5337 8C12.9759 8 8.45444 12.5969 8.45444 18.2476C8.45444 23.8983 12.9759 28.5048 18.5337 28.5048C24.0914 28.5048 28.6132 23.9079 28.6132 18.2572C28.6132 12.6066 24.0914 8 18.5337 8Z" stroke="white" stroke-width="2" stroke-linecap="round"/>
<path d="M23.0554 35.2004L23.855 35.2212L24.2695 35.0045C25.1003 34.5699 25.6234 33.593 26.1295 32.6477L26.1304 32.6461L26.1368 32.6342L26.1376 32.6327C26.5427 31.8758 26.9613 31.0939 27.5017 30.692C28.0447 30.2921 28.8525 30.1216 29.7752 29.9548C30.0489 29.9027 30.3321 29.8483 30.5977 29.7873L30.9161 29.7135L31.8783 29.3561C32.2552 29.1595 32.5412 28.9235 32.7505 28.6345C33.3615 27.7833 33.2158 26.6231 33.0614 25.3952L33.0592 25.378C32.9516 24.5484 32.8304 23.6078 33.0499 22.9272C33.249 22.2883 33.8459 21.6508 34.4277 21.0298L34.4299 21.0274C35.2109 20.1902 36.096 19.2414 36.096 18.1292C36.096 16.9899 35.1779 16.0058 34.4371 15.2118L34.4341 15.2086L34.3537 15.1215L34.3485 15.1158C33.8072 14.5293 33.2481 13.9236 33.0599 13.3178C32.8389 12.6327 32.9606 11.6921 33.0681 10.8648C33.216 9.68522 33.3687 8.46622 32.7584 7.60462C32.1505 6.74936 31.0223 6.52801 29.8272 6.29355L29.8256 6.29324L29.7459 6.27761L29.744 6.27723C28.9162 6.11799 28.0602 5.9533 27.5228 5.55074C26.9703 5.14787 26.5539 4.36002 26.15 3.59449L26.1497 3.59396C25.6141 2.58802 25.0069 1.44747 23.9819 1.10199C23.777 1.03348 23.5663 1 23.3387 1C22.5565 1 21.7097 1.40738 20.8908 1.80132L20.8826 1.80505L20.876 1.80819C20.0856 2.18625 19.2696 2.57655 18.553 2.57655C17.8344 2.57655 17.0153 2.18483 16.2148 1.80132C15.3959 1.40738 14.5488 1 13.7672 1C13.5389 1 13.3287 1.03356 13.1209 1.10281C12.1191 1.43047 11.5667 2.45734 10.982 3.54458L10.9485 3.60785L10.9476 3.60939C10.5425 4.36626 10.1239 5.14816 9.58354 5.55001C9.03985 5.94917 8.23196 6.12045 7.31287 6.28652C6.16035 6.50397 4.96927 6.72884 4.34581 7.60608C3.73552 8.45725 3.88019 9.61673 4.03459 10.8447L4.03674 10.8626C4.14431 11.6922 4.26591 12.6327 4.04638 13.3134C3.84735 13.9523 3.2511 14.589 2.66862 15.2108L2.66556 15.2141C1.88478 16.0511 1 16.9995 1 18.1114C1 19.2056 1.83217 20.1063 2.63749 20.9779L2.6386 20.9791L2.75187 21.102L2.75711 21.1077C3.29845 21.6943 3.85748 22.3 4.04567 22.9057C4.26666 23.5908 4.14502 24.5313 4.03745 25.3586C3.88964 26.5375 3.737 27.7565 4.34509 28.6152C4.56242 28.9145 4.85337 29.1565 5.2112 29.3345L5.63782 29.5467L6.45748 29.7695C6.72457 29.8313 7.00914 29.8848 7.28429 29.9377L7.32895 29.9459L7.33042 29.9462C8.15905 30.1055 9.01529 30.27 9.55282 30.6727C10.1045 31.075 10.5197 31.8605 10.9238 32.6249L10.9256 32.6283C11.4034 33.5256 11.9449 34.5421 12.7879 34.9867L14.0599 35.2004C14.766 35.1181 15.5033 34.7654 16.2213 34.422L16.2301 34.4177L16.2331 34.4163C17.0247 34.0377 17.8432 33.6462 18.5601 33.6462C19.278 33.6462 20.0975 34.0387 20.8936 34.42L20.8937 34.42L20.9341 34.4394L20.9399 34.4422C21.6457 34.7801 22.3745 35.1291 23.0554 35.2004Z" stroke="white" stroke-width="2" stroke-linecap="round"/>
<path d="M13.4914 17.4968L17.1677 21.2379C17.2068 21.2777 17.258 21.2979 17.3205 21.2979C17.3829 21.2979 17.4344 21.2777 17.4735 21.2379L23.5891 15" stroke="white" stroke-width="2" stroke-linecap="round"/>
</svg>
