<svg width="68" height="68" viewBox="0 0 68 68" fill="none" xmlns="http://www.w3.org/2000/svg">
<path d="M39.0953 42.2752L33.2148 42.2516L27.3344 42.2279M33.0109 42.0959V37.6692M33.0109 37.6692L30.6744 34.9131M33.0109 37.6692L35.3257 34.9131M31.6937 51.9841C31.0821 51.9841 30.5803 51.4818 30.5803 50.8696V48.7504H28.4556C27.844 48.7504 27.3422 48.2481 27.3422 47.6359V39.2299L27.0756 39.0886C23.2337 37.0401 20.6463 33.2335 20.1524 28.9089C19.7525 25.3926 20.7404 21.9392 22.9358 19.1686C25.1311 16.398 28.2752 14.6556 31.7878 14.2553C32.2974 14.1925 32.8227 14.1611 33.3324 14.1611C36.5862 14.1611 39.7068 15.362 42.1217 17.5439C43.2899 18.5878 44.2464 19.8122 44.9835 21.1936C48.4098 27.6374 45.9635 35.6666 39.5264 39.0965L39.2598 39.2378V47.6437C39.2598 48.2559 38.7581 48.7583 38.1465 48.7583H36.0295V50.8853C36.0295 51.4975 35.5277 51.9998 34.9162 51.9998H31.6859L31.6937 51.9841Z" stroke="white" stroke-width="2" stroke-linecap="round" stroke-linejoin="round"/>
<path d="M33.6143 8V11.2337" stroke="white" stroke-width="2" stroke-linecap="round"/>
<path d="M21.6733 16.1942L19.3682 13.8867" stroke="white" stroke-width="2" stroke-linecap="round"/>
<path d="M13.9189 27.1033H17.1493" stroke="white" stroke-width="2" stroke-linecap="round"/>
<path d="M22.0805 39.0732L19.791 41.3651" stroke="white" stroke-width="2" stroke-linecap="round"/>
<path d="M44.5127 15.7626L46.8178 13.4551" stroke="white" stroke-width="2" stroke-linecap="round"/>
<path d="M44.9512 38.6406L47.2328 40.9246" stroke="white" stroke-width="2" stroke-linecap="round"/>
<path d="M49.4756 27.1035H52.7059" stroke="white" stroke-width="2" stroke-linecap="round"/>
</svg>
