<svg width="68" height="68" viewBox="0 0 68 68" fill="none" xmlns="http://www.w3.org/2000/svg">
<path d="M35.1136 24.2756C31.7201 24.2756 28.5891 26.2344 27.1182 29.2345C26.782 29.9046 26.8346 30.7088 27.2548 31.3377C27.6646 31.9769 28.3685 32.3686 29.146 32.3686H41.0708C41.8483 32.3686 42.5627 31.9872 42.9724 31.3377C43.3822 30.7191 43.4347 29.9046 43.0985 29.2345C41.6381 26.2344 38.4967 24.2859 35.1136 24.2756ZM35.1031 15.0176C32.8653 15.0382 31.0266 16.8321 31.0056 19.0383C30.9846 21.2755 32.8232 23.1003 35.1031 23.1209C37.3515 23.1003 39.1901 21.3064 39.2006 19.1002C39.2216 16.863 37.383 15.0382 35.1031 15.0176Z" stroke="white" stroke-width="2"/>
<path d="M39.5684 43.5003L40.7361 43.3999L52.2215 40.0027C52.404 39.9571 52.5864 39.9297 52.7689 39.9297C53.672 39.9297 54.4748 40.5324 54.7211 41.4091C54.9765 42.3314 54.5751 43.2903 53.7267 43.7469L39.3677 51.2352C38.0449 51.9293 36.5488 52.2946 35.0527 52.2946C34.5783 52.2946 34.1039 52.258 33.6387 52.185L17.5007 49.7284L13.4229 42.651L23.4578 36.8521C24.5616 36.222 26.1249 35.8816 27.3915 35.8816L27.0795 35.875C27.7819 35.875 28.4844 35.9755 29.1868 36.1855L38.2456 40.0666C38.8751 40.3497 39.3677 40.8611 39.614 41.5095C39.8694 42.1579 39.8512 42.8702 39.5684 43.5003ZM39.5684 43.5003C39.1487 44.4409 38.2182 45.0437 37.1965 45.0437C37.1235 45.0437 37.0505 45.0345 36.9684 45.0345L30.6738 44.4044" stroke="white" stroke-width="2" stroke-linecap="round"/>
</svg>
