<svg width="68" height="68" viewBox="0 0 68 68" fill="none" xmlns="http://www.w3.org/2000/svg">
<path d="M43.0813 17.6667C46.9572 17.6667 50.074 20.6759 50.074 24.3751C50.074 27.9976 47.0771 30.9492 43.341 31.0834C43.1684 31.0642 42.9941 31.0642 42.8215 31.0834M46.9373 48.3334C48.3758 48.0459 49.7344 47.4901 50.8532 46.6659C53.97 44.4234 53.97 40.7242 50.8532 38.4817C49.7543 37.6767 48.4157 37.1401 46.9972 36.8334M28.5963 30.8342C28.3965 30.8151 28.1568 30.8151 27.937 30.8342C25.6438 30.7596 23.4709 29.8315 21.8786 28.2467C20.2862 26.6618 19.3994 24.5446 19.4059 22.3434C19.4059 17.6476 23.3618 13.8334 28.2767 13.8334C30.6267 13.7927 32.8973 14.6493 34.589 16.2147C36.2807 17.7801 37.2549 19.926 37.2973 22.1805C37.3397 24.4349 36.4468 26.6132 34.815 28.2361C33.1833 29.859 30.9464 30.7936 28.5963 30.8342ZM18.6067 37.9067C13.7717 41.0117 13.7717 46.0718 18.6067 49.1576C24.101 52.6842 33.1116 52.6842 38.6059 49.1576C43.4409 46.0526 43.4409 40.9926 38.6059 37.9067C33.1316 34.3992 24.121 34.3992 18.6067 37.9067Z" stroke="white" stroke-width="2" stroke-linecap="round" stroke-linejoin="round"/>
</svg>
