<svg width="68" height="68" viewBox="0 0 68 68" fill="none" xmlns="http://www.w3.org/2000/svg">
<path d="M33.5283 51.986C33.4392 51.9617 33.2846 51.9913 33.163 51.9913C23.75 47.8764 19.3233 39.5899 18.5287 37.9667C18.4801 37.8612 18.4639 37.7963 18.4639 37.7801V21.694C18.4639 21.4587 18.6341 21.2963 18.6828 21.272C23.1987 20.1439 29.5227 16.3618 32.8955 14.2029L33.0576 14.0974H33.0738C33.1225 14.0812 33.1954 14.0487 33.2846 14H33.463C33.5116 14.0162 33.5603 14.0325 33.6089 14.0406C33.617 14.0406 33.6333 14.0487 33.6414 14.0568C34.8332 14.8847 42.8922 19.9815 48.1135 21.2882C48.3162 21.3369 48.4459 21.4911 48.4459 21.694V37.7882C48.4459 37.7882 48.4216 37.8612 48.4054 37.9018L48.3567 38.0317C48.2432 38.2914 43.9867 47.5112 33.7549 51.9832H33.5765L33.291 52L33.5283 51.986Z" stroke="white" stroke-width="2"/>
<path d="M27.4473 33.0399L31.7605 37.3577C31.8578 37.4551 31.9551 37.5038 32.0686 37.5038C32.174 37.5038 32.2794 37.4551 32.3767 37.3577L39.6087 30.1182" stroke="white" stroke-width="2" stroke-linecap="round"/>
</svg>
