<svg width="34" height="34" viewBox="0 0 34 34" fill="none" xmlns="http://www.w3.org/2000/svg">
<path d="M16.9996 19.7093C15.5246 19.7093 14.3184 18.4854 14.3184 16.9758C14.3184 15.4662 15.5189 14.2422 16.9996 14.2422C18.4802 14.2422 19.6808 15.4662 19.6808 16.9758C19.6808 18.4854 18.4802 19.7093 16.9996 19.7093Z" stroke="white" stroke-width="2"/>
<path d="M1.07289 17.1915C4.13712 20.9975 10.4256 25.095 17 25.095V25.1008C20.11 25.1008 23.3971 24.1857 26.5014 22.4547C29.0225 21.05 31.3664 19.1324 32.9271 17.1915C33.0243 17.0691 33.0243 16.8884 32.9271 16.766C29.8629 12.96 23.5744 8.86255 17 8.86255C10.4256 8.86255 4.13712 12.96 1.07289 16.766C0.975703 16.8884 0.975703 17.0691 1.07289 17.1915Z" stroke="white" stroke-width="2"/>
<path d="M16.668 3.32558V1" stroke="white" stroke-width="2" stroke-linecap="round"/>
<path d="M23.0488 4.62523L24.3523 2.29382" stroke="white" stroke-width="2" stroke-linecap="round"/>
<path d="M10.3855 4.96312L9.08203 2.63171" stroke="white" stroke-width="2" stroke-linecap="round"/>
<path d="M16.668 32.952V30.6206" stroke="white" stroke-width="2" stroke-linecap="round"/>
<path d="M9.08789 31.3137L10.3913 28.9823" stroke="white" stroke-width="2" stroke-linecap="round"/>
<path d="M24.3464 31.652L23.043 29.3206" stroke="white" stroke-width="2" stroke-linecap="round"/>
</svg>
