<svg width="42" height="41" viewBox="0 0 42 41" fill="none" xmlns="http://www.w3.org/2000/svg">
<path d="M30.0813 5.66675C33.9572 5.66675 37.074 8.67592 37.074 12.3751C37.074 15.9976 34.0771 18.9492 30.341 19.0834C30.1684 19.0642 29.9941 19.0642 29.8215 19.0834M33.9373 36.3334C35.3758 36.0459 36.7344 35.4901 37.8532 34.6659C40.97 32.4234 40.97 28.7242 37.8532 26.4817C36.7543 25.6767 35.4157 25.1401 33.9972 24.8334M15.5963 18.8342C15.3965 18.8151 15.1568 18.8151 14.937 18.8342C12.6438 18.7596 10.4709 17.8315 8.87856 16.2467C7.28619 14.6618 6.39936 12.5446 6.40587 10.3434C6.40587 5.64758 10.3618 1.83342 15.2767 1.83342C17.6267 1.79275 19.8973 2.64933 21.589 4.21471C23.2807 5.78009 24.2549 7.92605 24.2973 10.1805C24.3397 12.4349 23.4468 14.6132 21.815 16.2361C20.1833 17.859 17.9464 18.7936 15.5963 18.8342ZM5.6067 25.9067C0.771725 29.0117 0.771725 34.0718 5.6067 37.1576C11.101 40.6842 20.1116 40.6842 25.6059 37.1576C30.4409 34.0526 30.4409 28.9926 25.6059 25.9067C20.1316 22.3992 11.121 22.3992 5.6067 25.9067Z" stroke="white" stroke-width="2" stroke-linecap="round" stroke-linejoin="round"/>
</svg>
