<svg width="42" height="46" viewBox="0 0 42 46" fill="none" xmlns="http://www.w3.org/2000/svg">
<path d="M27.0953 35.2752L21.2148 35.2516L15.3344 35.2279M21.0109 35.0959V30.6692M21.0109 30.6692L18.6744 27.9131M21.0109 30.6692L23.3257 27.9131M19.6937 44.9841C19.0821 44.9841 18.5803 44.4818 18.5803 43.8696V41.7504H16.4556C15.844 41.7504 15.3422 41.2481 15.3422 40.6359V32.2299L15.0756 32.0886C11.2337 30.0401 8.64634 26.2335 8.15239 21.9089C7.75252 18.3926 8.74043 14.9392 10.9358 12.1686C13.1311 9.39802 16.2752 7.6556 19.7878 7.25532C20.2974 7.19253 20.8227 7.16113 21.3324 7.16113C24.5862 7.16113 27.7068 8.36199 30.1217 10.5439C31.2899 11.5878 32.2464 12.8122 32.9835 14.1936C36.4098 20.6374 33.9635 28.6666 27.5264 32.0965L27.2598 32.2378V40.6437C27.2598 41.2559 26.7581 41.7583 26.1465 41.7583H24.0295V43.8853C24.0295 44.4975 23.5277 44.9998 22.9162 44.9998H19.6859L19.6937 44.9841Z" stroke="white" stroke-width="2" stroke-linecap="round" stroke-linejoin="round"/>
<path d="M21.6143 1V4.23367" stroke="white" stroke-width="2" stroke-linecap="round"/>
<path d="M9.67329 9.19424L7.36816 6.88672" stroke="white" stroke-width="2" stroke-linecap="round"/>
<path d="M1.91895 20.1033H5.14926" stroke="white" stroke-width="2" stroke-linecap="round"/>
<path d="M10.0805 32.0732L7.79102 34.3651" stroke="white" stroke-width="2" stroke-linecap="round"/>
<path d="M32.5127 8.7626L34.8178 6.45508" stroke="white" stroke-width="2" stroke-linecap="round"/>
<path d="M32.9512 31.6406L35.2328 33.9246" stroke="white" stroke-width="2" stroke-linecap="round"/>
<path d="M37.4756 20.1035H40.7059" stroke="white" stroke-width="2" stroke-linecap="round"/>
</svg>
