<svg width="44" height="40" viewBox="0 0 44 40" fill="none" xmlns="http://www.w3.org/2000/svg">
<path d="M23.1136 10.2756C19.7201 10.2756 16.5891 12.2344 15.1182 15.2345C14.782 15.9046 14.8346 16.7088 15.2548 17.3377C15.6646 17.9769 16.3685 18.3686 17.146 18.3686H29.0708C29.8483 18.3686 30.5627 17.9872 30.9724 17.3377C31.3822 16.7191 31.4347 15.9046 31.0985 15.2345C29.6381 12.2344 26.4967 10.2859 23.1136 10.2756ZM23.1031 1.01758C20.8653 1.0382 19.0266 2.83207 19.0056 5.03832C18.9846 7.2755 20.8232 9.1003 23.1031 9.12092C25.3515 9.1003 27.1901 7.30643 27.2006 5.10018C27.2216 2.863 25.383 1.0382 23.1031 1.01758Z" stroke="white" stroke-width="2"/>
<path d="M27.5684 29.5003L28.7361 29.3999L40.2215 26.0027C40.404 25.9571 40.5864 25.9297 40.7689 25.9297C41.672 25.9297 42.4748 26.5324 42.7211 27.4091C42.9765 28.3314 42.5751 29.2903 41.7267 29.7469L27.3677 37.2352C26.0449 37.9293 24.5488 38.2946 23.0527 38.2946C22.5783 38.2946 22.1039 38.258 21.6387 38.185L5.50068 35.7284L1.42285 28.651L11.4578 22.8521C12.5616 22.222 14.1249 21.8816 15.3915 21.8816L15.0795 21.875C15.7819 21.875 16.4844 21.9755 17.1868 22.1855L26.2456 26.0666C26.8751 26.3497 27.3677 26.8611 27.614 27.5095C27.8694 28.1579 27.8512 28.8702 27.5684 29.5003ZM27.5684 29.5003C27.1487 30.4409 26.2182 31.0437 25.1965 31.0437C25.1235 31.0437 25.0505 31.0345 24.9684 31.0345L18.6738 30.4044" stroke="white" stroke-width="2" stroke-linecap="round"/>
</svg>
