<svg width="33" height="40" viewBox="0 0 33 40" fill="none" xmlns="http://www.w3.org/2000/svg">
<path d="M16.5283 38.986C16.4392 38.9617 16.2846 38.9913 16.163 38.9913C6.75005 34.8764 2.32328 26.5899 1.52873 24.9667C1.48008 24.8612 1.46387 24.7963 1.46387 24.7801V8.69402C1.46387 8.45866 1.63413 8.29634 1.68277 8.27199C6.19873 7.14386 12.5227 3.36177 15.8955 1.2029L16.0576 1.09739H16.0738C16.1225 1.08116 16.1954 1.0487 16.2846 1H16.463C16.5116 1.01623 16.5603 1.03246 16.6089 1.04058C16.617 1.04058 16.6333 1.0487 16.6414 1.05681C17.8332 1.88465 25.8922 6.98154 31.1135 8.28822C31.3162 8.33692 31.4459 8.49112 31.4459 8.69402V24.7882C31.4459 24.7882 31.4216 24.8612 31.4054 24.9018L31.3567 25.0317C31.2432 25.2914 26.9867 34.5112 16.7549 38.9832H16.5765L16.291 39L16.5283 38.986Z" stroke="white" stroke-width="2"/>
<path d="M10.4473 20.0399L14.7605 24.3577C14.8578 24.4551 14.9551 24.5038 15.0686 24.5038C15.174 24.5038 15.2794 24.4551 15.3767 24.3577L22.6087 17.1182" stroke="white" stroke-width="2" stroke-linecap="round"/>
</svg>
