<svg width="34" height="34" viewBox="0 0 34 34" fill="none" xmlns="http://www.w3.org/2000/svg">
<path d="M6.7243 18.5742L6.60382 19.2387C6.5866 19.3074 6.57513 19.3819 6.56365 19.4563C6.46038 20.0635 6.66693 20.6936 7.10871 21.1347L12.8347 26.8515C13.1962 27.2123 13.6953 27.4186 14.2059 27.4186C14.315 27.4186 14.4182 27.4071 14.5215 27.3899C14.5904 27.3785 14.6592 27.367 14.7281 27.3556L15.4051 27.2353L16.1452 31.9954C16.2026 32.3735 16.4493 32.7 16.805 32.8546C16.9484 32.9177 17.1034 32.952 17.264 32.952C17.4878 32.952 17.7001 32.889 17.8894 32.763L22.9211 29.4406C23.426 29.1084 23.7416 28.5757 23.7875 27.9742L24.1834 22.8303M6.7243 18.5742L1.95648 17.8352C1.57207 17.778 1.25077 17.5317 1.09586 17.1765C0.940948 16.8214 0.975373 16.4204 1.18766 16.0939L4.51538 11.0702C4.84816 10.5661 5.38174 10.2511 5.98417 10.2053L11.1364 9.81001M6.7243 18.5742L7.0456 17.3884C7.62508 15.4179 8.55455 13.4703 9.79958 11.6087L11.1364 9.81001M11.1364 9.81001C11.1364 9.81001 11.3716 9.5236 11.3889 9.50641C13.483 6.99745 16.105 4.82645 18.5779 3.54906C22.6457 1.44107 26.8742 1 29.7086 1C30.1848 1 30.6667 1.01146 31.1257 1.0401C32.1183 1.09165 32.9043 1.88215 32.9617 2.8674C33.1051 5.46801 32.9617 10.5489 30.4544 15.4008C29.175 17.8696 27.0005 20.4817 24.4875 22.5782C24.4703 22.5954 24.1834 22.8303 24.1834 22.8303M24.1834 22.8303L22.3703 24.1592C20.5057 25.408 18.5607 26.3302 16.5813 26.9088L15.6683 27.2353M19.002 26.0221L7.75177 15.4008" stroke="white" stroke-width="2"/>
<path d="M20.1729 13.814C20.9704 14.6045 22.0318 15.0456 23.1621 15.0456C24.2924 15.0456 25.3538 14.6102 26.1513 13.814C26.9488 13.0178 27.3906 11.9581 27.3906 10.8296C27.3906 9.70116 26.9488 8.64144 26.1513 7.84521C25.3538 7.05472 24.2924 6.61365 23.1621 6.61365C22.0318 6.61365 20.9704 7.04899 20.1729 7.84521C19.3754 8.64144 18.9336 9.70116 18.9336 10.8296C18.9336 11.9581 19.3754 13.0178 20.1729 13.814Z" stroke="white" stroke-width="2"/>
<path d="M1.11328 26.5479L4.29757 23.3688" stroke="white" stroke-width="2" stroke-linecap="round"/>
<path d="M1.0957 32.3967L7.21757 26.2847" stroke="white" stroke-width="2" stroke-linecap="round"/>
<path d="M6.9541 32.3735L10.1384 29.1943" stroke="white" stroke-width="2" stroke-linecap="round"/>
</svg>
